<svg width="60" height="60" viewBox="0 0 60 60" fill="none" xmlns="http://www.w3.org/2000/svg">
<path d="M5.14 48.7875L20.36 33.4125L28.585 41.2875L38.6375 32.5L44.2375 37.96M55 13.75C55 12.7554 54.6049 11.8016 53.9016 11.0983C53.1984 10.3951 52.2446 10 51.25 10H8.75C7.75544 10 6.80161 10.3951 6.09835 11.0983C5.39509 11.8016 5 12.7554 5 13.75V25H55V13.75Z" stroke="black" stroke-width="3" stroke-linecap="round" stroke-linejoin="round"/>
<path d="M55 22.5V46.25C55 47.2446 54.6049 48.1984 53.9016 48.9016C53.1984 49.6049 52.2446 50 51.25 50H15M23.89 17.5H46.39M13.8875 17.5H16.3875M5 22.5V33.75" stroke="black" stroke-width="3" stroke-linecap="round" stroke-linejoin="round"/>
</svg>
