<svg width="60" height="60" viewBox="0 0 60 60" fill="none" xmlns="http://www.w3.org/2000/svg">
<path fill-rule="evenodd" clip-rule="evenodd" d="M10.5552 10.5552C13.3682 7.74233 17.1833 6.16211 21.1614 6.16211C25.1395 6.16211 28.9546 7.74233 31.7677 10.5552L49.4452 28.2302C52.2584 31.0431 53.8391 34.8584 53.8393 38.8368C53.8395 42.8151 52.2594 46.6306 49.4464 49.4439C46.6335 52.2572 42.8181 53.8378 38.8398 53.838C34.8614 53.8383 31.0459 52.2581 28.2327 49.4452L10.5552 31.7677C7.74233 28.9546 6.16211 25.1395 6.16211 21.1614C6.16211 17.1833 7.74233 13.3682 10.5552 10.5552ZM28.2302 42.3752L31.7677 45.9102C33.6431 47.7856 36.1867 48.8392 38.8389 48.8392C41.4911 48.8392 44.0347 47.7856 45.9102 45.9102C47.7856 44.0347 48.8392 41.4911 48.8392 38.8389C48.8392 36.1867 47.7856 33.6431 45.9102 31.7677L42.3752 28.2327L42.3702 28.2302C40.4873 26.3899 37.9547 25.3665 35.3219 25.3819C32.6892 25.3973 30.1688 26.4504 28.3076 28.3126C26.4464 30.1747 25.3947 32.6957 25.3807 35.3285C25.3666 37.9612 26.3889 40.4933 28.2302 42.3752Z" fill="black"/>
</svg>
