<svg width="60" height="60" viewBox="0 0 60 60" fill="none" xmlns="http://www.w3.org/2000/svg">
<path d="M38.5406 24.6891L27.2906 17.1891C27.0082 17.0006 26.6799 16.8924 26.3407 16.876C26.0016 16.8595 25.6644 16.9355 25.365 17.0958C25.0657 17.256 24.8155 17.4946 24.6411 17.7859C24.4668 18.0772 24.3748 18.4105 24.375 18.75V33.75C24.3748 34.0895 24.4668 34.4228 24.6411 34.7141C24.8155 35.0054 25.0657 35.244 25.365 35.4042C25.6644 35.5645 26.0016 35.6405 26.3407 35.624C26.6799 35.6076 27.0082 35.4994 27.2906 35.3109L38.5406 27.8109C38.7978 27.6398 39.0087 27.4077 39.1546 27.1354C39.3005 26.8631 39.3768 26.5589 39.3768 26.25C39.3768 25.9411 39.3005 25.6369 39.1546 25.3646C39.0087 25.0923 38.7978 24.8602 38.5406 24.6891ZM28.125 30.2461V22.2656L34.1203 26.25L28.125 30.2461ZM50.625 9.375H9.375C8.38044 9.375 7.42661 9.77009 6.72335 10.4733C6.02009 11.1766 5.625 12.1304 5.625 13.125V39.375C5.625 40.3696 6.02009 41.3234 6.72335 42.0266C7.42661 42.7299 8.38044 43.125 9.375 43.125H50.625C51.6196 43.125 52.5734 42.7299 53.2766 42.0266C53.9799 41.3234 54.375 40.3696 54.375 39.375V13.125C54.375 12.1304 53.9799 11.1766 53.2766 10.4733C52.5734 9.77009 51.6196 9.375 50.625 9.375ZM50.625 39.375H9.375V13.125H50.625V39.375ZM54.375 48.75C54.375 49.2473 54.1775 49.7242 53.8258 50.0758C53.4742 50.4275 52.9973 50.625 52.5 50.625H7.5C7.00272 50.625 6.52581 50.4275 6.17417 50.0758C5.82254 49.7242 5.625 49.2473 5.625 48.75C5.625 48.2527 5.82254 47.7758 6.17417 47.4242C6.52581 47.0725 7.00272 46.875 7.5 46.875H52.5C52.9973 46.875 53.4742 47.0725 53.8258 47.4242C54.1775 47.7758 54.375 48.2527 54.375 48.75Z" fill="black"/>
</svg>
