<svg width="60" height="60" viewBox="0 0 60 60" fill="none" xmlns="http://www.w3.org/2000/svg">
<path d="M24.4575 15.1406C23.9482 15.1386 23.459 15.3385 23.0968 15.6965C22.7346 16.0545 22.529 16.5414 22.525 17.0506C22.525 18.1031 23.39 18.9581 24.4575 18.9581C24.9659 18.9595 25.4542 18.7597 25.8158 18.4023C26.1773 18.0449 26.3829 17.559 26.3875 17.0506C26.3835 16.5418 26.1783 16.0553 25.8166 15.6974C25.455 15.3395 24.9663 15.1393 24.4575 15.1406ZM4.7375 20.2506C2.0525 20.2506 0.2775 21.5556 0.2775 23.5331C0.2775 25.1181 1.23 26.1831 2.8975 26.5956L4.9875 27.1206C5.6075 27.3156 5.8575 27.6206 5.855 28.0956C5.855 28.6206 5.33 28.9131 4.795 28.9381C4.02 28.9731 3.4525 28.5531 3.41 27.8831H0C0.05 29.8831 2.005 31.2881 4.935 31.2881C7.705 31.2881 9.5025 30.0056 9.5025 27.8331C9.5025 26.2481 8.505 25.2481 6.86 24.8131L4.835 24.2531C4.15 24.0506 3.9125 23.7481 3.9125 23.3231C3.9125 22.8606 4.2775 22.5881 4.75 22.5331C5.435 22.4531 5.965 22.7506 5.965 23.4881V23.5381H9.45V23.4881C9.45 21.4031 7.6825 20.2506 4.7375 20.2506ZM10.95 20.5406V31.0156H14.245V26.4631L17.43 31.0131H21.48L17.4075 25.5106L21.4175 20.5681H17.5175L14.245 24.9681V20.5431L10.95 20.5406ZM22.81 20.5406V31.0156H26.105V20.5406H22.81ZM28.02 20.5406V31.0181H36.065V27.9081H31.335V20.5431L28.02 20.5406ZM37.8625 20.5406V31.0181H45.9075V27.9081H41.1775V20.5431L37.8625 20.5406ZM4.7375 33.8106C2.0525 33.8106 0.2775 35.1156 0.2775 37.0906C0.2775 38.6781 1.23 39.7406 2.8975 40.1531L4.9875 40.6781C5.6075 40.8731 5.8575 41.1781 5.855 41.6531C5.855 42.1781 5.33 42.4731 4.795 42.4981C4.02 42.5331 3.4525 42.1106 3.41 41.4406H0C0.05 43.4406 2.005 44.8456 4.935 44.8456C7.705 44.8456 9.5025 43.5656 9.5025 41.3906C9.5025 39.8056 8.505 38.8056 6.86 38.3731L4.835 37.8106C4.15 37.6081 3.9125 37.3081 3.9125 36.8831C3.9125 36.4181 4.2775 36.1456 4.75 36.0906C5.435 36.0106 5.965 36.3081 5.965 37.0481V37.0956H9.45V37.0456C9.45 34.9606 7.6825 33.8106 4.7375 33.8106ZM27.7125 33.8481C24.675 33.8481 22.7475 36.2306 22.7475 39.3531C22.7475 42.4956 24.5475 44.8581 27.6675 44.8556C29.1175 44.8556 30.4175 44.1406 30.9825 43.1006V44.5756H34.2775V34.1281H30.9825V35.6256C30.42 34.5631 29.2275 33.8481 27.71 33.8481H27.7125ZM49.59 33.8481C46.19 33.8481 43.9575 35.9281 43.9575 39.3531C43.9575 42.8431 46.145 44.8581 49.6975 44.8581C52.4725 44.8581 54.575 43.4931 54.8975 41.4331H51.6475C51.365 42.0831 50.715 42.3656 49.6975 42.3656C48.2225 42.3656 47.3125 41.6281 47.2475 40.2631H54.965C55.03 39.6781 55.0525 39.3531 55.0525 38.8106C55.0525 35.8631 52.8425 33.8481 49.59 33.8481ZM42.415 33.9556C41.14 33.9556 39.9025 34.7556 39.535 36.3181V34.1281H36.2175V44.5756H39.535V40.5431C39.535 38.2256 40.49 37.0556 42.285 37.0556C42.6135 37.0549 42.9417 37.0758 43.2675 37.1181L43.285 34.0431C43.0011 33.9751 42.7068 33.9457 42.415 33.9556ZM10.95 34.1256V44.6031H14.2V40.8906H18.175V44.6031H21.425V34.1256H18.175V37.8881H14.2V34.1256H10.95ZM49.57 36.0781C50.98 36.0781 51.76 36.8156 51.7825 38.2031H47.25C47.27 36.9256 48.1425 36.0781 49.57 36.0781ZM28.62 36.6206C30.27 36.6206 31.1125 37.8556 31.1125 39.3531C31.1125 40.8706 30.27 42.1031 28.62 42.1031C27.08 42.1031 26.1275 40.9331 26.1275 39.3531C26.1275 37.7681 27.0825 36.6206 28.62 36.6206ZM58.07 40.9731C57.5612 40.9718 57.0725 41.172 56.7109 41.5299C56.3492 41.8878 56.144 42.3743 56.14 42.8831C56.14 43.9381 57.0025 44.7931 58.07 44.7931C58.5788 44.7945 59.0675 44.5943 59.4291 44.2364C59.7908 43.8785 59.996 43.3919 60 42.8831C59.996 42.3743 59.7908 41.8878 59.4291 41.5299C59.0675 41.172 58.5788 40.9718 58.07 40.9731Z" fill="black"/>
</svg>
