<svg width="60" height="60" viewBox="0 0 60 60" fill="none" xmlns="http://www.w3.org/2000/svg">
<path d="M29.4425 25L41.5175 28.235M27.5 32.245L34.745 34.185M50.78 31.6175C49.2675 37.255 48.5125 40.075 46.8 41.9025C45.4487 43.3454 43.7001 44.3554 41.775 44.805C41.5333 44.8617 41.2875 44.905 41.0375 44.935C38.75 45.2175 35.9575 44.47 30.8775 43.11C25.24 41.5975 22.42 40.8425 20.5925 39.13C19.1491 37.778 18.1391 36.0285 17.69 34.1025C17.12 31.6625 17.875 28.845 19.3875 23.2075L20.68 18.3775L21.29 16.115C22.4275 11.95 23.1925 9.65748 24.66 8.08998C26.0116 6.64798 27.7602 5.63883 29.685 5.18998C32.125 4.61998 34.945 5.37498 40.585 6.88748C46.22 8.39748 49.04 9.15248 50.8675 10.8625C52.3113 12.2151 53.3214 13.9656 53.77 15.8925C54.1725 17.6175 53.9125 19.5325 53.1925 22.5" stroke="black" stroke-width="4" stroke-linecap="round"/>
<path d="M8.17952 41.6183C9.68952 47.2558 10.447 50.0758 12.1595 51.9033C13.5108 53.3462 15.2594 54.3562 17.1845 54.8058C19.6245 55.3733 22.4445 54.6183 28.0845 53.1083C33.7195 51.5983 36.5395 50.8433 38.367 49.1308C39.596 47.9796 40.5144 46.5366 41.037 44.9358M21.2895 16.1133C20.4112 16.3416 19.4403 16.5999 18.377 16.8883C12.7395 18.3983 9.91952 19.1533 8.09202 20.8633C6.64825 22.2159 5.63815 23.9664 5.18952 25.8933C4.78702 27.6183 5.04702 29.5333 5.76702 32.5008" stroke="black" stroke-width="4" stroke-linecap="round" stroke-linejoin="round"/>
</svg>
