<svg width="60" height="60" viewBox="0 0 60 60" fill="none" xmlns="http://www.w3.org/2000/svg">
<g clip-path="url(#clip0_227_10452)">
<path d="M29.9992 49.8983H57.8563M29.9992 49.8983C29.9992 50.6823 29.8448 51.4586 29.5447 52.1829C29.2447 52.9072 28.805 53.5654 28.2506 54.1197C27.6962 54.6741 27.0381 55.1138 26.3138 55.4139C25.5895 55.7139 24.8132 55.8683 24.0292 55.8683C23.2452 55.8683 22.4689 55.7139 21.7446 55.4139C21.0202 55.1138 20.3621 54.6741 19.8077 54.1197C19.2534 53.5654 18.8136 52.9072 18.5136 52.1829C18.2136 51.4586 18.0592 50.6823 18.0592 49.8983C18.0592 49.1143 18.2136 48.338 18.5136 47.6137C18.8136 46.8894 19.2534 46.2312 19.8077 45.6769C20.3621 45.1225 21.0202 44.6828 21.7446 44.3827C22.4689 44.0827 23.2452 43.9283 24.0292 43.9283C24.8132 43.9283 25.5895 44.0827 26.3138 44.3827C27.0381 44.6828 27.6962 45.1225 28.2506 45.6769C28.805 46.2312 29.2447 46.8894 29.5447 47.6137C29.8448 48.338 29.9992 49.1143 29.9992 49.8983ZM57.8563 49.8983L49.8977 41.9397M57.8563 49.8983L49.8977 57.8569M14.082 8.11258C14.082 9.69592 14.711 11.2144 15.8306 12.334C16.9502 13.4536 18.4687 14.0826 20.052 14.0826C21.6354 14.0826 23.1539 13.4536 24.2735 12.334C25.393 11.2144 26.022 9.69592 26.022 8.11258C26.022 6.52924 25.393 5.01074 24.2735 3.89115C23.1539 2.77156 21.6354 2.14258 20.052 2.14258C18.4687 2.14258 16.9502 2.77156 15.8306 3.89115C14.711 5.01074 14.082 6.52924 14.082 8.11258ZM29.9992 28.0111C29.9992 29.5945 30.6282 31.113 31.7477 32.2326C32.8673 33.3522 34.3858 33.9811 35.9692 33.9811C37.5525 33.9811 39.071 33.3522 40.1906 32.2326C41.3102 31.113 41.9392 29.5945 41.9392 28.0111C41.9392 26.4278 41.3102 24.9093 40.1906 23.7897C39.071 22.6701 37.5525 22.0411 35.9692 22.0411C34.3858 22.0411 32.8673 22.6701 31.7477 23.7897C30.6282 24.9093 29.9992 26.4278 29.9992 28.0111Z" stroke="black" stroke-width="3" stroke-linecap="round" stroke-linejoin="round"/>
<path d="M29.9997 28.0119H13.0883C10.2234 28.0685 7.49494 29.2464 5.48888 31.2926C3.48283 33.3387 2.35916 36.0899 2.35916 38.9554C2.35916 41.8209 3.48283 44.5721 5.48888 46.6183C7.49494 48.6644 10.2234 49.8423 13.0883 49.899H18.0597M41.9397 28.0119H47.9097C50.5484 28.0119 53.0791 26.9636 54.9449 25.0978C56.8108 23.2319 57.859 20.7013 57.859 18.0626C57.859 15.4239 56.8108 12.8932 54.9449 11.0274C53.0791 9.16151 50.5484 8.11328 47.9097 8.11328H26.014M14.0826 8.11328H2.14258" stroke="black" stroke-width="3" stroke-linecap="round" stroke-linejoin="round"/>
</g>
<defs>
<clipPath id="clip0_227_10452">
<rect width="60" height="60" fill="white"/>
</clipPath>
</defs>
</svg>
