<svg width="60" height="60" viewBox="0 0 60 60" fill="none" xmlns="http://www.w3.org/2000/svg">
<g clip-path="url(#clip0_227_10474)">
<path d="M25 18.75C25 18.4185 25.1317 18.1005 25.3661 17.8661C25.6005 17.6317 25.9185 17.5 26.25 17.5H36.25C36.5815 17.5 36.8995 17.6317 37.1339 17.8661C37.3683 18.1005 37.5 18.4185 37.5 18.75C37.5 19.0815 37.3683 19.3995 37.1339 19.6339C36.8995 19.8683 36.5815 20 36.25 20H26.25C25.9185 20 25.6005 19.8683 25.3661 19.6339C25.1317 19.3995 25 19.0815 25 18.75ZM26.25 22.5C25.9185 22.5 25.6005 22.6317 25.3661 22.8661C25.1317 23.1005 25 23.4185 25 23.75C25 24.0815 25.1317 24.3995 25.3661 24.6339C25.6005 24.8683 25.9185 25 26.25 25H36.25C36.5815 25 36.8995 24.8683 37.1339 24.6339C37.3683 24.3995 37.5 24.0815 37.5 23.75C37.5 23.4185 37.3683 23.1005 37.1339 22.8661C36.8995 22.6317 36.5815 22.5 36.25 22.5H26.25ZM25 35C25 34.6685 25.1317 34.3505 25.3661 34.1161C25.6005 33.8817 25.9185 33.75 26.25 33.75H36.25C36.5815 33.75 36.8995 33.8817 37.1339 34.1161C37.3683 34.3505 37.5 34.6685 37.5 35C37.5 35.3315 37.3683 35.6495 37.1339 35.8839C36.8995 36.1183 36.5815 36.25 36.25 36.25H26.25C25.9185 36.25 25.6005 36.1183 25.3661 35.8839C25.1317 35.6495 25 35.3315 25 35ZM26.25 38.75C25.9185 38.75 25.6005 38.8817 25.3661 39.1161C25.1317 39.3505 25 39.6685 25 40C25 40.3315 25.1317 40.6495 25.3661 40.8839C25.6005 41.1183 25.9185 41.25 26.25 41.25H36.25C36.5815 41.25 36.8995 41.1183 37.1339 40.8839C37.3683 40.6495 37.5 40.3315 37.5 40C37.5 39.6685 37.3683 39.3505 37.1339 39.1161C36.8995 38.8817 36.5815 38.75 36.25 38.75H26.25Z" fill="black"/>
<path fill-rule="evenodd" clip-rule="evenodd" d="M12.5 33.75C12.5 33.4185 12.6317 33.1005 12.8661 32.8661C13.1005 32.6317 13.4185 32.5 13.75 32.5H20C20.3315 32.5 20.6495 32.6317 20.8839 32.8661C21.1183 33.1005 21.25 33.4185 21.25 33.75V40C21.25 40.3315 21.1183 40.6495 20.8839 40.8839C20.6495 41.1183 20.3315 41.25 20 41.25H13.75C13.4185 41.25 13.1005 41.1183 12.8661 40.8839C12.6317 40.6495 12.5 40.3315 12.5 40V33.75ZM15 35V38.75H18.75V35H15Z" fill="black"/>
<path d="M22.134 19.634C22.3617 19.3983 22.4877 19.0825 22.4849 18.7548C22.482 18.427 22.3505 18.1135 22.1188 17.8817C21.887 17.65 21.5735 17.5185 21.2458 17.5157C20.918 17.5128 20.6023 17.6388 20.3665 17.8665L16.2503 21.9828L14.634 20.3665C14.3983 20.1388 14.0825 20.0128 13.7548 20.0157C13.427 20.0185 13.1135 20.15 12.8817 20.3817C12.65 20.6135 12.5185 20.927 12.5157 21.2548C12.5128 21.5825 12.6388 21.8983 12.8665 22.134L16.2503 25.5178L22.134 19.634Z" fill="black"/>
<path fill-rule="evenodd" clip-rule="evenodd" d="M12.5 7.5C11.1739 7.5 9.90215 8.02678 8.96447 8.96447C8.02678 9.90215 7.5 11.1739 7.5 12.5V47.5C7.5 48.8261 8.02678 50.0979 8.96447 51.0355C9.90215 51.9732 11.1739 52.5 12.5 52.5H37.5C38.8261 52.5 40.0979 51.9732 41.0355 51.0355C41.9732 50.0979 42.5 48.8261 42.5 47.5V12.5C42.5 11.1739 41.9732 9.90215 41.0355 8.96447C40.0979 8.02678 38.8261 7.5 37.5 7.5H12.5ZM10 12.5C10 11.837 10.2634 11.2011 10.7322 10.7322C11.2011 10.2634 11.837 10 12.5 10H37.5C38.163 10 38.7989 10.2634 39.2678 10.7322C39.7366 11.2011 40 11.837 40 12.5V47.5C40 48.163 39.7366 48.7989 39.2678 49.2678C38.7989 49.7366 38.163 50 37.5 50H12.5C11.837 50 11.2011 49.7366 10.7322 49.2678C10.2634 48.7989 10 48.163 10 47.5V12.5ZM45 20C45 19.0054 45.3951 18.0516 46.0984 17.3483C46.8016 16.6451 47.7554 16.25 48.75 16.25C49.7446 16.25 50.6984 16.6451 51.4016 17.3483C52.1049 18.0516 52.5 19.0054 52.5 20V45.3788L48.75 51.0038L45 45.3788V20ZM48.75 18.75C48.4185 18.75 48.1005 18.8817 47.8661 19.1161C47.6317 19.3505 47.5 19.6685 47.5 20V22.5H50V20C50 19.6685 49.8683 19.3505 49.6339 19.1161C49.3995 18.8817 49.0815 18.75 48.75 18.75ZM48.75 46.4962L47.5 44.6212V25H50V44.6212L48.75 46.4962Z" fill="black"/>
</g>
<defs>
<clipPath id="clip0_227_10474">
<rect width="60" height="60" fill="white"/>
</clipPath>
</defs>
</svg>
