<svg width="60" height="60" viewBox="0 0 60 60" fill="none" xmlns="http://www.w3.org/2000/svg">
<path fill-rule="evenodd" clip-rule="evenodd" d="M37.5003 10.0004C37.5003 9.33733 37.7637 8.70145 38.2326 8.23261C38.7014 7.76377 39.3373 7.50037 40.0003 7.50037H50.0003C50.6634 7.50037 51.2993 7.76377 51.7681 8.23261C52.2369 8.70145 52.5003 9.33733 52.5003 10.0004V17.5004C52.5003 18.1634 52.2369 18.7993 51.7681 19.2681C51.2993 19.737 50.6634 20.0004 50.0003 20.0004H40.0003V52.5004H20.0003V19.6729L16.3878 22.0804C16.1147 22.2626 15.8083 22.3892 15.4862 22.453C15.1641 22.5168 14.8326 22.5166 14.5107 22.4523C14.1887 22.388 13.8825 22.2609 13.6096 22.0782C13.3368 21.8956 13.1025 21.661 12.9203 21.3879C12.5523 20.8362 12.4186 20.161 12.5484 19.5107C12.6783 18.8604 13.0612 18.2884 13.6128 17.9204L28.6128 7.92037C29.0236 7.64628 29.5065 7.5 30.0003 7.5C30.4942 7.5 30.977 7.64628 31.3878 7.92037L37.5003 11.9954V10.0004ZM25.0003 30.0004C25.0003 29.3373 25.2637 28.7014 25.7326 28.2326C26.2014 27.7638 26.8373 27.5004 27.5003 27.5004H32.5003C33.1634 27.5004 33.7992 27.7638 34.2681 28.2326C34.7369 28.7014 35.0003 29.3373 35.0003 30.0004C35.0003 30.6634 34.7369 31.2993 34.2681 31.7681C33.7992 32.237 33.1634 32.5004 32.5003 32.5004H27.5003C26.8373 32.5004 26.2014 32.237 25.7326 31.7681C25.2637 31.2993 25.0003 30.6634 25.0003 30.0004ZM27.5003 20.0004C26.8373 20.0004 26.2014 20.2638 25.7326 20.7326C25.2637 21.2014 25.0003 21.8373 25.0003 22.5004C25.0003 23.1634 25.2637 23.7993 25.7326 24.2681C26.2014 24.737 26.8373 25.0004 27.5003 25.0004H32.5003C33.1634 25.0004 33.7992 24.737 34.2681 24.2681C34.7369 23.7993 35.0003 23.1634 35.0003 22.5004C35.0003 21.8373 34.7369 21.2014 34.2681 20.7326C33.7992 20.2638 33.1634 20.0004 32.5003 20.0004H27.5003Z" fill="#0A5D2A"/>
<path d="M45 22.5H44.96H45.035H45ZM15 26.31L9.325 27.905C8.79982 28.0523 8.33722 28.3672 8.00772 28.8019C7.67823 29.2366 7.49992 29.7671 7.5 30.3125V50C7.5 50.663 7.76339 51.2989 8.23223 51.7678C8.70107 52.2366 9.33696 52.5 10 52.5H15V26.31ZM50.675 27.905L45 26.31V52.5H50C50.663 52.5 51.2989 52.2366 51.7678 51.7678C52.2366 51.2989 52.5 50.663 52.5 50V30.3125C52.5001 29.7671 52.3218 29.2366 51.9923 28.8019C51.6628 28.3672 51.2002 28.0523 50.675 27.905Z" fill="#0A5D2A"/>
</svg>
