<svg width="24" height="24" viewBox="0 0 24 24" fill="none" xmlns="http://www.w3.org/2000/svg">
<path d="M12 8L18 5L12 2V12" stroke="#3E3E45" stroke-width="2" stroke-linecap="round" stroke-linejoin="round"/>
<path d="M7.99914 11.9902L2.49914 15.1302C2.34524 15.2175 2.21723 15.3439 2.12817 15.4968C2.03911 15.6496 1.99219 15.8233 1.99219 16.0002C1.99219 16.1771 2.03911 16.3509 2.12817 16.5037C2.21723 16.6565 2.34524 16.783 2.49914 16.8702L10.9991 21.7302C11.3032 21.9058 11.6481 21.9982 11.9991 21.9982C12.3502 21.9982 12.6951 21.9058 12.9991 21.7302L21.4991 16.8702C21.653 16.783 21.781 16.6565 21.8701 16.5037C21.9592 16.3509 22.0061 16.1771 22.0061 16.0002C22.0061 15.8233 21.9592 15.6496 21.8701 15.4968C21.781 15.3439 21.653 15.2175 21.4991 15.1302L15.9991 12.0002" stroke="#3E3E45" stroke-width="2" stroke-linecap="round" stroke-linejoin="round"/>
<path d="M6.49023 12.8501L17.5102 19.1501" stroke="#3E3E45" stroke-width="2" stroke-linecap="round" stroke-linejoin="round"/>
<path d="M17.51 12.8501L6.5 19.1501" stroke="#3E3E45" stroke-width="2" stroke-linecap="round" stroke-linejoin="round"/>
</svg>
