<svg width="888" height="184" viewBox="0 0 888 184" fill="none" xmlns="http://www.w3.org/2000/svg">
<rect width="888" height="184" rx="12" fill="#5856D6"/>
<rect width="888" height="184" rx="12" fill="url(#paint0_linear_6008_9203)"/>
<mask id="mask0_6008_9203" style="mask-type:alpha" maskUnits="userSpaceOnUse" x="0" y="0" width="888" height="184">
<rect width="888" height="184" rx="12" fill="#663259"/>
</mask>
<g mask="url(#mask0_6008_9203)">
<path fill-rule="evenodd" clip-rule="evenodd" d="M904.547 172.281C909.962 170.077 912.566 163.903 910.363 158.489C908.16 153.074 901.984 150.473 896.569 152.676C891.154 154.88 888.549 161.054 890.753 166.469C892.956 171.884 899.132 174.485 904.547 172.281ZM922.129 153.7C926.977 165.612 921.247 179.195 909.334 184.044C897.42 188.892 883.834 183.169 878.987 171.257C874.139 159.345 879.869 145.762 891.782 140.913C903.696 136.065 917.282 141.789 922.129 153.7Z" fill="#FD6234"/>
<path d="M811.624 9.72986C813.827 15.1435 820.003 17.7457 825.418 15.542C830.833 13.3384 833.437 7.16325 831.234 1.74964C829.031 -3.66396 822.855 -6.26619 817.44 -4.06253C814.191 -2.74037 810.485 -4.30175 809.164 -7.54984C807.842 -10.7979 809.404 -14.5031 812.653 -15.8253C824.567 -20.6734 838.154 -14.9487 843 -3.03849C847.847 8.87169 842.118 22.4566 830.205 27.3048C818.291 32.1529 804.704 26.4282 799.858 14.518C798.536 11.2699 800.098 7.56472 803.347 6.24256C806.596 4.92039 810.302 6.48178 811.624 9.72986Z" fill="#E53855"/>
<path fill-rule="evenodd" clip-rule="evenodd" d="M727.874 -58.8804C733.289 -61.0841 735.893 -67.2592 733.69 -72.6728C731.487 -78.0867 725.311 -80.6886 719.896 -78.4849C714.481 -76.2813 711.877 -70.1066 714.08 -64.6926C716.283 -59.279 722.459 -56.6768 727.874 -58.8804ZM847.02 53.4989C852.435 51.2953 855.039 45.1202 852.836 39.7066C850.633 34.2926 844.458 31.6908 839.042 33.8944C833.627 36.0981 831.023 42.2728 833.226 47.6868C835.429 53.1004 841.605 55.7026 847.02 53.4989Z" fill="#FFC735"/>
<path d="M808.417 81.7446C813.832 79.541 820.008 82.1432 822.211 87.5568C824.414 92.9705 821.81 99.1456 816.394 101.349C810.979 103.553 804.803 100.951 802.6 95.5371C801.279 92.289 797.573 90.7276 794.324 92.0497C791.075 93.3719 789.512 97.0771 790.834 100.325C795.681 112.235 809.268 117.96 821.181 113.112C833.095 108.264 838.824 94.6789 833.977 82.7687C829.13 70.8585 815.543 65.1337 803.63 69.9819C800.381 71.304 798.818 75.0092 800.14 78.2573C801.462 81.5054 805.168 83.0668 808.417 81.7446Z" fill="#44AB96"/>
<path fill-rule="evenodd" clip-rule="evenodd" d="M888.613 134.126C876.706 138.971 863.125 133.243 858.278 121.331L842.32 82.1158C837.472 70.2039 843.194 56.6201 855.101 51.775C867.007 46.9299 880.588 52.6586 885.435 64.5705L890.542 77.1192L902.888 72.0949C914.794 67.25 928.376 72.9785 933.223 84.8903L949.181 124.105C951.385 129.521 957.558 132.124 962.97 129.921L981 122.584C986.411 120.382 989.013 114.208 986.809 108.793C985.488 105.546 987.048 101.839 990.295 100.518C993.542 99.1967 997.246 100.761 998.568 104.008C1003.42 115.921 997.693 129.504 985.787 134.349L967.757 141.686C961.58 144.199 954.951 143.867 949.326 141.301C947.09 147.065 942.578 151.932 936.4 154.446L918.762 161.624C915.515 162.945 911.811 161.381 910.489 158.134C909.168 154.887 910.728 151.181 913.975 149.859L931.613 142.682C937.025 140.479 939.626 134.306 937.422 128.89L921.464 89.6754C919.261 84.2611 913.088 81.6571 907.676 83.8593L895.329 88.8837L901.393 103.785C906.241 115.697 900.519 129.281 888.613 134.126ZM873.676 69.3555C871.473 63.9412 865.3 61.3372 859.888 63.5394C854.476 65.7417 851.875 71.9163 854.079 77.3307L870.037 116.545C872.24 121.96 878.413 124.564 883.825 122.362C889.237 120.159 891.838 113.985 889.634 108.57L873.676 69.3555Z" fill="#8950FC"/>
<path fill-rule="evenodd" clip-rule="evenodd" d="M887.319 134.514C872.392 140.588 865.214 157.608 871.287 172.532C872.607 175.774 871.047 179.476 867.802 180.796C864.557 182.117 860.856 180.556 859.536 177.313C850.823 155.902 861.122 131.482 882.539 122.766C885.783 121.446 889.485 123.007 890.804 126.249C892.124 129.492 890.564 133.193 887.319 134.514Z" fill="#FFC735"/>
<path fill-rule="evenodd" clip-rule="evenodd" d="M879.389 130.894C878.07 127.652 879.63 123.95 882.875 122.63C886.119 121.309 889.821 122.87 891.14 126.113C892.46 129.355 890.9 133.057 887.655 134.377C884.41 135.698 880.709 134.137 879.389 130.894Z" fill="#FD6234"/>
<path fill-rule="evenodd" clip-rule="evenodd" d="M787.871 77.1771C784.626 78.4975 783.065 82.1979 784.385 85.4418C785.706 88.6857 789.406 90.245 792.651 88.9246C795.896 87.6041 797.456 83.9038 796.136 80.6599C794.816 77.416 791.115 75.8566 787.871 77.1771Z" fill="#FD6234"/>
<path fill-rule="evenodd" clip-rule="evenodd" d="M781.519 61.5697C778.274 62.8901 776.714 66.5905 778.034 69.8344C779.354 73.0782 783.055 74.6376 786.3 73.3172C789.544 71.9967 791.105 68.2963 789.785 65.0525C788.465 61.8086 784.764 60.2492 781.519 61.5697Z" fill="#FD6234"/>
<g style="mix-blend-mode:multiply">
<path fill-rule="evenodd" clip-rule="evenodd" d="M689.91 233.138C685.063 221.226 690.779 207.648 702.678 202.806L741.847 186.866C753.745 182.024 767.319 187.752 772.166 199.664C777.014 211.576 771.297 225.154 759.399 229.996L720.229 245.936C708.331 250.778 694.757 245.049 689.91 233.138ZM715.442 234.173L754.612 218.233C760.02 216.033 762.619 209.861 760.416 204.446C758.212 199.031 752.042 196.428 746.634 198.629L707.464 214.569C702.056 216.769 699.457 222.941 701.661 228.356C703.864 233.771 710.034 236.374 715.442 234.173Z" fill="#B4D51E"/>
</g>
<path d="M768.721 208.05C780.603 203.215 794.168 208.964 799.023 220.894C800.346 224.146 804.047 225.716 807.287 224.397C810.528 223.078 812.081 219.37 810.757 216.119C803.256 197.685 782.289 188.797 763.927 196.269C760.687 197.587 759.134 201.295 760.457 204.547C761.78 207.798 765.481 209.368 768.721 208.05Z" fill="#E5E0D5"/>
<path fill-rule="evenodd" clip-rule="evenodd" d="M699.91 167.841C697.707 162.428 691.531 159.825 686.116 162.029C680.701 164.233 678.097 170.408 680.3 175.821C682.503 181.235 688.679 183.837 694.094 181.633C699.509 179.43 702.113 173.255 699.91 167.841ZM681.329 150.266C693.243 145.418 706.829 151.143 711.676 163.053C716.523 174.963 710.794 188.548 698.88 193.396C686.967 198.244 673.38 192.52 668.533 180.609C663.687 168.699 669.415 155.114 681.329 150.266Z" fill="#FFC735"/>
<path d="M680.29 38.8024C681.611 42.0479 680.044 45.7523 676.791 47.0761C671.369 49.2826 668.758 55.4564 670.959 60.8656L686.902 100.043C689.103 105.453 695.283 108.049 700.705 105.843C703.958 104.519 707.666 106.077 708.987 109.322C710.308 112.568 708.741 116.272 705.488 117.596C698.259 120.538 690.417 119.599 684.282 115.753C679.777 119.196 677.976 125.35 680.293 131.045L689.54 153.768C690.861 157.014 689.294 160.718 686.041 162.042C682.788 163.366 679.08 161.808 677.759 158.562L668.513 135.839C664.187 125.21 667.3 113.301 675.773 106.295C675.541 105.82 675.323 105.334 675.121 104.837L659.178 65.6598C654.335 53.7592 660.079 40.1771 672.008 35.3228C675.261 33.999 678.969 35.557 680.29 38.8024Z" fill="#E5E0D5"/>
<path fill-rule="evenodd" clip-rule="evenodd" d="M730.825 -38.0043C735.671 -26.0941 729.955 -12.5143 718.057 -7.6724L678.887 8.26733C666.989 13.1092 653.415 7.37932 648.568 -4.53085C643.721 -16.441 649.438 -30.0209 661.336 -34.8627L700.505 -50.8025C712.404 -55.6443 725.978 -49.9145 730.825 -38.0043ZM713.27 -19.4352C718.678 -21.636 721.277 -27.8088 719.074 -33.2224C716.871 -38.636 710.7 -41.2405 705.292 -39.0398L666.123 -23.1C660.714 -20.8992 658.116 -14.7265 660.319 -9.31286C662.522 -3.89927 668.692 -1.29473 674.1 -3.49552L713.27 -19.4352Z" fill="#44AB96"/>
<path fill-rule="evenodd" clip-rule="evenodd" d="M668.537 43.5816C669.857 46.8255 673.562 48.3833 676.811 47.0609C682.227 44.8569 688.401 47.4531 690.602 52.8597L706.537 92.0181C708.737 97.4246 706.13 103.594 700.714 105.798C697.464 107.121 695.9 110.823 697.22 114.067C698.54 117.31 702.245 118.868 705.494 117.546C711.676 115.03 716.195 110.166 718.436 104.405C724.062 106.964 730.694 107.291 736.876 104.775L754.92 97.4325C766.836 92.5836 772.571 79.0105 767.731 67.1158C766.411 63.8719 762.706 62.3141 759.456 63.6365C756.207 64.9589 754.643 68.6608 755.963 71.9047C758.163 77.3113 755.556 83.481 750.14 85.685L732.095 93.028C726.679 95.232 720.505 92.6358 718.305 87.2292L702.37 48.0712C702.37 48.0708 702.37 48.0712 702.37 48.0712C697.529 36.1765 683.946 30.4645 672.031 35.3134C668.781 36.6358 667.217 40.3377 668.537 43.5816Z" fill="#44AB96"/>
<path fill-rule="evenodd" clip-rule="evenodd" d="M705.577 117.53C700.162 119.734 697.558 125.909 699.761 131.323C701.964 136.736 708.139 139.339 713.555 137.135C718.97 134.931 721.574 128.756 719.371 123.342C718.049 120.094 719.612 116.389 722.861 115.067C726.11 113.745 729.815 115.306 731.137 118.554C735.984 130.465 730.255 144.05 718.341 148.898C706.428 153.746 692.841 148.021 687.994 136.111C683.148 124.201 688.876 110.616 700.79 105.767C704.039 104.445 707.745 106.007 709.066 109.255C710.388 112.503 708.826 116.208 705.577 117.53Z" fill="#463C74"/>
<path fill-rule="evenodd" clip-rule="evenodd" d="M733.393 47.8829C738.808 45.6792 741.412 39.5041 739.209 34.0905C737.006 28.6769 730.83 26.0746 725.415 28.2783C719.999 30.4819 717.395 36.6571 719.598 42.0707C720.92 45.3188 719.358 49.024 716.109 50.3461C712.86 51.6683 709.154 50.1069 707.832 46.8588C702.986 34.9486 708.714 21.3637 720.628 16.5155C732.542 11.6674 746.128 17.3922 750.975 29.3023C755.822 41.2125 750.093 54.7975 738.179 59.6456C734.93 60.9678 731.225 59.4064 729.903 56.1583C728.581 52.9102 730.144 49.205 733.393 47.8829Z" fill="#E53855"/>
<path fill-rule="evenodd" clip-rule="evenodd" d="M668.892 -19.55C676.124 -22.493 679.575 -30.6709 676.681 -37.7816C673.787 -44.8924 665.607 -48.3375 658.375 -45.3944C654.38 -43.7686 651.535 -40.5471 650.277 -36.7679C649.17 -33.4408 645.571 -31.6346 642.24 -32.7337C638.908 -33.8326 637.106 -37.4204 638.213 -40.7472C640.599 -47.9136 646.018 -54.0586 653.595 -57.1419C667.28 -62.7112 682.906 -56.2264 688.461 -42.5754C694.016 -28.9244 687.359 -13.3717 673.673 -7.8025C670.42 -6.47878 666.713 -8.03549 665.393 -11.2794C664.073 -14.5232 665.639 -18.2263 668.892 -19.55Z" fill="#FD6234"/>
<path fill-rule="evenodd" clip-rule="evenodd" d="M705.655 117.481C702.41 118.801 698.71 117.242 697.389 113.998C696.069 110.754 697.63 107.054 700.875 105.733C704.119 104.413 707.82 105.972 709.14 109.216C710.46 112.46 708.9 116.16 705.655 117.481Z" fill="#FD6234"/>
<path fill-rule="evenodd" clip-rule="evenodd" d="M676.803 47.0642C673.559 48.3847 669.858 46.8253 668.538 43.5815C667.218 40.3376 668.778 36.6372 672.023 35.3168C675.268 33.9963 678.969 35.5556 680.289 38.7995C681.609 42.0434 680.048 45.7438 676.803 47.0642Z" fill="#FD6234"/>
<path fill-rule="evenodd" clip-rule="evenodd" d="M686.026 162.048C682.781 163.368 679.081 161.809 677.761 158.565C676.441 155.321 678.001 151.621 681.246 150.3C684.49 148.98 688.191 150.539 689.511 153.783C690.831 157.027 689.271 160.727 686.026 162.048Z" fill="#FD6234"/>
<path fill-rule="evenodd" clip-rule="evenodd" d="M692.614 177.755C689.369 179.075 685.668 177.516 684.348 174.272C683.028 171.028 684.589 167.328 687.833 166.007C691.078 164.687 694.779 166.246 696.099 169.49C697.419 172.734 695.859 176.434 692.614 177.755Z" fill="#FD6234"/>
<path fill-rule="evenodd" clip-rule="evenodd" d="M686.078 86.7295C683.882 81.3339 677.712 78.7463 672.297 80.95C666.882 83.1536 664.272 89.3141 666.468 94.7097C667.785 97.9469 666.219 101.643 662.97 102.965C659.721 104.288 656.019 102.735 654.701 99.4978C649.871 87.6273 655.613 74.0746 667.526 69.2265C679.44 64.3783 693.013 70.0709 697.844 81.9413C699.161 85.1786 697.595 88.875 694.346 90.1972C691.097 91.5193 687.395 89.9667 686.078 86.7295Z" fill="#FFC735"/>
<path fill-rule="evenodd" clip-rule="evenodd" d="M796.088 56.02C793.047 48.5467 784.298 44.8144 776.4 48.0284C768.502 51.2425 764.845 60.0233 767.886 67.4966C769.208 70.7463 767.65 74.4514 764.405 75.7718C761.16 77.0923 757.458 75.5282 756.135 72.2786C750.36 58.0869 757.444 42.0252 771.611 36.26C785.778 30.4947 802.064 37.0465 807.839 51.2381C809.162 54.4878 807.603 58.1929 804.358 59.5133C801.113 60.8338 797.411 59.2697 796.088 56.02Z" fill="#FFB017"/>
<path fill-rule="evenodd" clip-rule="evenodd" d="M707.774 46.7796C701.697 31.8461 684.648 24.6737 669.693 30.7593C657.773 35.6101 644.183 29.8929 639.339 17.9894C634.495 6.08595 640.232 -7.49579 652.152 -12.3466C655.403 -13.6695 659.109 -12.1102 660.43 -8.86395C661.751 -5.61768 660.187 -1.91337 656.936 -0.590472C651.518 1.61441 648.91 7.78808 651.112 13.1987C653.314 18.6092 659.491 21.208 664.909 19.0031C686.366 10.2717 710.828 20.5628 719.547 41.9888C720.868 45.2351 719.303 48.9394 716.052 50.2623C712.802 51.5852 709.095 50.0259 707.774 46.7796Z" fill="#FFB017"/>
<path d="M731.336 -36.7456C741.369 -12.0916 769.494 -0.240779 794.155 -10.2764C797.4 -11.5969 801.101 -10.0375 802.421 -6.79364C803.741 -3.54977 802.181 0.150624 798.936 1.47107C767.785 14.1478 732.258 -0.82149 719.585 -31.9637C718.265 -35.2076 719.825 -38.908 723.07 -40.2284C726.315 -41.5489 730.016 -39.9895 731.336 -36.7456Z" fill="#8950FC"/>
<path fill-rule="evenodd" clip-rule="evenodd" d="M725.969 155.379C740.896 149.305 748.073 132.284 742.001 117.361C740.681 114.117 742.241 110.417 745.486 109.097C748.731 107.776 752.432 109.335 753.752 112.579C762.464 133.99 752.166 158.411 730.749 167.126C727.504 168.447 723.804 166.887 722.484 163.644C721.164 160.4 722.724 156.699 725.969 155.379Z" fill="#FD6234"/>
<path fill-rule="evenodd" clip-rule="evenodd" d="M694.354 90.1941C691.109 91.5145 687.409 89.9552 686.088 86.7113C684.768 83.4675 686.329 79.7671 689.574 78.4466C692.819 77.1262 696.519 78.6855 697.839 81.9294C699.16 85.1732 697.599 88.8736 694.354 90.1941Z" fill="#FD6234"/>
<path fill-rule="evenodd" clip-rule="evenodd" d="M716.132 50.4255C712.887 51.746 709.186 50.1866 707.866 46.9428C706.546 43.6989 708.106 39.9985 711.351 38.6781C714.596 37.3576 718.297 38.917 719.617 42.1608C720.937 45.4047 719.376 49.1051 716.132 50.4255Z" fill="#FD6234"/>
<path fill-rule="evenodd" clip-rule="evenodd" d="M772.438 26.1082C769.193 27.4286 765.493 25.8693 764.173 22.6254C762.852 19.3815 764.413 15.6811 767.658 14.3607C770.903 13.0402 774.603 14.5996 775.923 17.8435C777.244 21.0874 775.683 24.7877 772.438 26.1082Z" fill="#FD6234"/>
<path fill-rule="evenodd" clip-rule="evenodd" d="M764.405 75.7717C761.16 77.0921 757.459 75.5328 756.139 72.2889C754.819 69.0451 756.38 65.3447 759.625 64.0243C762.869 62.7038 766.57 64.2632 767.89 67.507C769.21 70.7509 767.65 74.4512 764.405 75.7717Z" fill="#FD6234"/>
<path fill-rule="evenodd" clip-rule="evenodd" d="M733.761 79.6345C730.516 80.955 726.815 79.3956 725.495 76.1518C724.175 72.9079 725.735 69.2075 728.98 67.8871C732.225 66.5666 735.926 68.126 737.246 71.3698C738.566 74.6137 737.005 78.3141 733.761 79.6345Z" fill="#44AB96"/>
<path fill-rule="evenodd" clip-rule="evenodd" d="M657.005 -0.628156C653.76 0.692299 650.059 -0.867051 648.739 -4.11092C647.419 -7.35479 648.979 -11.0552 652.224 -12.3756C655.469 -13.6961 659.17 -12.1367 660.49 -8.89286C661.81 -5.649 660.249 -1.94861 657.005 -0.628156Z" fill="#FD6234"/>
<path fill-rule="evenodd" clip-rule="evenodd" d="M597.153 2.79698C595.833 -0.446886 597.388 -4.14516 600.627 -5.46302L617.437 -12.3037C620.675 -13.6215 624.371 -12.0601 625.691 -8.81621C627.011 -5.57235 625.456 -1.87407 622.217 -0.556209L605.407 6.28444C602.169 7.6023 598.473 6.04085 597.153 2.79698Z" fill="#B4D51E"/>
<path fill-rule="evenodd" clip-rule="evenodd" d="M613.328 29.078C616.572 27.7575 620.274 29.3194 621.596 32.5664L640.577 79.2094C641.898 82.4564 640.338 86.1593 637.094 87.4798C633.849 88.8003 630.147 87.2384 628.826 83.9914L609.845 37.3483C608.523 34.1014 610.083 30.3984 613.328 29.078Z" fill="#FFC735"/>
<path fill-rule="evenodd" clip-rule="evenodd" d="M629.442 85.5073C628.122 82.2634 629.682 78.563 632.927 77.2425C636.172 75.9221 639.873 77.4814 641.193 80.7253C642.513 83.9692 640.953 87.6696 637.708 88.99C634.463 90.3105 630.762 88.7511 629.442 85.5073Z" fill="#FD6234"/>
<path fill-rule="evenodd" clip-rule="evenodd" d="M774.129 109.764C782.577 130.525 806.262 140.505 827.029 132.053C830.274 130.733 833.975 132.292 835.295 135.536C836.615 138.78 835.055 142.481 831.81 143.801C804.552 154.893 773.467 141.795 762.378 114.546C761.058 111.302 762.618 107.601 765.863 106.281C769.108 104.96 772.809 106.52 774.129 109.764Z" fill="#B4D51E"/>
<path fill-rule="evenodd" clip-rule="evenodd" d="M826.955 143.771C823.727 142.411 822.213 138.692 823.574 135.465C824.935 132.237 828.656 130.723 831.883 132.083C835.111 133.443 836.625 137.162 835.264 140.39C833.903 143.617 830.183 145.131 826.955 143.771Z" fill="#463C74"/>
<path fill-rule="evenodd" clip-rule="evenodd" d="M833.716 160.385C830.488 159.025 828.974 155.304 830.336 152.08C831.697 148.852 835.417 147.338 838.645 148.699C841.872 150.056 843.386 153.776 842.025 157.004C840.665 160.232 836.945 161.746 833.716 160.385Z" fill="#463C74"/>
<path fill-rule="evenodd" clip-rule="evenodd" d="M827.658 208.663C816.198 180.501 784.074 166.966 755.905 178.429C752.655 179.752 748.948 178.19 747.626 174.941C746.304 171.691 747.867 167.985 751.117 166.662C785.786 152.554 825.324 169.212 839.428 203.873C840.75 207.12 839.188 210.828 835.938 212.151C832.687 213.474 828.98 211.91 827.658 208.663Z" fill="#FFC735"/>
<path d="M846.763 197.373L837.274 174.055C835.954 170.81 837.512 167.106 840.757 165.786C844.002 164.465 847.705 166.028 849.025 169.273L858.514 192.591C859.834 195.836 858.275 199.54 855.031 200.86C851.786 202.181 848.083 200.618 846.763 197.373Z" fill="#E5E0D5"/>
<path fill-rule="evenodd" clip-rule="evenodd" d="M853.914 18.4952C855.234 21.7391 858.939 23.2969 862.188 21.9745C867.604 19.7705 873.778 22.3667 875.979 27.7733L891.914 66.9316C894.114 72.3382 891.507 78.5079 886.091 80.712C882.841 82.0343 881.277 85.7363 882.597 88.9801C883.917 92.224 887.622 93.7818 890.871 92.4595C897.053 89.9437 901.572 85.0792 903.813 79.3191C909.439 81.8777 916.071 82.2048 922.253 79.6891L940.297 72.3461C952.213 67.4972 957.948 53.9241 953.108 42.0294C951.788 38.7855 948.083 37.2277 944.833 38.5501C941.584 39.8724 940.019 43.5744 941.34 46.8183C943.54 52.2249 940.933 58.3946 935.517 60.5986L917.472 67.9416C912.056 70.1456 905.882 67.5493 903.682 62.1427L887.747 22.9848C887.747 22.9844 887.747 22.9848 887.747 22.9848C882.906 11.0901 869.323 5.37807 857.408 10.227C854.158 11.5494 852.594 15.2513 853.914 18.4952Z" fill="#44AB96"/>
</g>
<defs>
<linearGradient id="paint0_linear_6008_9203" x1="-150.476" y1="241.506" x2="-76.9583" y2="-64.2463" gradientUnits="userSpaceOnUse">
<stop stop-color="#02171A"/>
<stop offset="1" stop-color="#183631"/>
</linearGradient>
</defs>
</svg>
