<svg width="60" height="60" viewBox="0 0 60 60" fill="none" xmlns="http://www.w3.org/2000/svg">
<path d="M6.25 6.875C6.25 6.37772 6.05246 5.90081 5.70083 5.54917C5.34919 5.19754 4.87228 5 4.375 5C3.87772 5 3.40081 5.19754 3.04917 5.54917C2.69754 5.90081 2.5 6.37772 2.5 6.875V53.125C2.5 54.16 3.34 55 4.375 55H50C50.4973 55 50.9742 54.8025 51.3258 54.4508C51.6775 54.0992 51.875 53.6223 51.875 53.125C51.875 52.6277 51.6775 52.1508 51.3258 51.7992C50.9742 51.4475 50.4973 51.25 50 51.25H6.25V6.875Z" fill="#A8A506"/>
<path d="M55.6999 19.4501C56.0311 19.0947 56.2114 18.6246 56.2028 18.1388C56.1943 17.653 55.9975 17.1896 55.6539 16.846C55.3104 16.5025 54.847 16.3057 54.3612 16.2972C53.8754 16.2886 53.4053 16.4689 53.0499 16.8001L38.7499 31.1001L29.4499 21.8001C29.0983 21.449 28.6218 21.2518 28.1249 21.2518C27.628 21.2518 27.1515 21.449 26.7999 21.8001L11.7999 36.8001C11.6157 36.9718 11.4679 37.1788 11.3654 37.4088C11.263 37.6388 11.2079 37.887 11.2034 38.1388C11.199 38.3906 11.2453 38.6406 11.3396 38.8741C11.4339 39.1076 11.5743 39.3197 11.7523 39.4977C11.9303 39.6757 12.1424 39.8161 12.3759 39.9104C12.6094 40.0047 12.8594 40.051 13.1112 40.0466C13.363 40.0421 13.6112 39.987 13.8412 39.8846C14.0712 39.7821 14.2782 39.6343 14.4499 39.4501L28.1249 25.7751L37.4249 35.0751C37.7765 35.4262 38.253 35.6235 38.7499 35.6235C39.2468 35.6235 39.7233 35.4262 40.0749 35.0751L55.6999 19.4501Z" fill="#A8A506"/>
</svg>
