<svg width="1126" height="68" viewBox="0 0 1126 68" fill="none" xmlns="http://www.w3.org/2000/svg">
<rect width="1126" height="68" fill="#FFF8C6"/>
<path d="M333 31.4H353V11.4H333V31.4ZM361.898 27.36H366.378V30H358.478V15.96H361.898V27.36ZM369.73 17.68C369.13 17.68 368.636 17.5067 368.25 17.16C367.876 16.8 367.69 16.36 367.69 15.84C367.69 15.3067 367.876 14.8667 368.25 14.52C368.636 14.16 369.13 13.98 369.73 13.98C370.316 13.98 370.796 14.16 371.17 14.52C371.556 14.8667 371.75 15.3067 371.75 15.84C371.75 16.36 371.556 16.8 371.17 17.16C370.796 17.5067 370.316 17.68 369.73 17.68ZM371.43 18.84V30H368.01V18.84H371.43ZM388.148 18.72C389.535 18.72 390.635 19.14 391.448 19.98C392.275 20.82 392.688 21.9867 392.688 23.48V30H389.288V23.94C389.288 23.22 389.095 22.6667 388.708 22.28C388.335 21.88 387.815 21.68 387.148 21.68C386.481 21.68 385.955 21.88 385.568 22.28C385.195 22.6667 385.008 23.22 385.008 23.94V30H381.608V23.94C381.608 23.22 381.415 22.6667 381.028 22.28C380.655 21.88 380.135 21.68 379.468 21.68C378.801 21.68 378.275 21.88 377.888 22.28C377.515 22.6667 377.328 23.22 377.328 23.94V30H373.908V18.84H377.328V20.24C377.675 19.7733 378.128 19.4067 378.688 19.14C379.248 18.86 379.881 18.72 380.588 18.72C381.428 18.72 382.175 18.9 382.828 19.26C383.495 19.62 384.015 20.1333 384.388 20.8C384.775 20.1867 385.301 19.6867 385.968 19.3C386.635 18.9133 387.361 18.72 388.148 18.72ZM396.8 17.68C396.2 17.68 395.707 17.5067 395.32 17.16C394.947 16.8 394.76 16.36 394.76 15.84C394.76 15.3067 394.947 14.8667 395.32 14.52C395.707 14.16 396.2 13.98 396.8 13.98C397.387 13.98 397.867 14.16 398.24 14.52C398.627 14.8667 398.82 15.3067 398.82 15.84C398.82 16.36 398.627 16.8 398.24 17.16C397.867 17.5067 397.387 17.68 396.8 17.68ZM398.5 18.84V30H395.08V18.84H398.5ZM407.198 27.1V30H405.458C404.218 30 403.252 29.7 402.558 29.1C401.865 28.4867 401.518 27.4933 401.518 26.12V21.68H400.158V18.84H401.518V16.12H404.938V18.84H407.178V21.68H404.938V26.16C404.938 26.4933 405.018 26.7333 405.178 26.88C405.338 27.0267 405.605 27.1 405.978 27.1H407.198ZM419.623 24.24C419.623 24.56 419.603 24.8933 419.563 25.24H411.823C411.877 25.9333 412.097 26.4667 412.483 26.84C412.883 27.2 413.37 27.38 413.943 27.38C414.797 27.38 415.39 27.02 415.723 26.3H419.363C419.177 27.0333 418.837 27.6933 418.343 28.28C417.863 28.8667 417.257 29.3267 416.523 29.66C415.79 29.9933 414.97 30.16 414.063 30.16C412.97 30.16 411.997 29.9267 411.143 29.46C410.29 28.9933 409.623 28.3267 409.143 27.46C408.663 26.5933 408.423 25.58 408.423 24.42C408.423 23.26 408.657 22.2467 409.123 21.38C409.603 20.5133 410.27 19.8467 411.123 19.38C411.977 18.9133 412.957 18.68 414.063 18.68C415.143 18.68 416.103 18.9067 416.943 19.36C417.783 19.8133 418.437 20.46 418.903 21.3C419.383 22.14 419.623 23.12 419.623 24.24ZM416.123 23.34C416.123 22.7533 415.923 22.2867 415.523 21.94C415.123 21.5933 414.623 21.42 414.023 21.42C413.45 21.42 412.963 21.5867 412.563 21.92C412.177 22.2533 411.937 22.7267 411.843 23.34H416.123ZM420.748 24.4C420.748 23.2533 420.961 22.2467 421.388 21.38C421.828 20.5133 422.421 19.8467 423.168 19.38C423.914 18.9133 424.748 18.68 425.668 18.68C426.401 18.68 427.068 18.8333 427.668 19.14C428.281 19.4467 428.761 19.86 429.108 20.38V15.2H432.528V30H429.108V28.4C428.788 28.9333 428.328 29.36 427.728 29.68C427.141 30 426.454 30.16 425.668 30.16C424.748 30.16 423.914 29.9267 423.168 29.46C422.421 28.98 421.828 28.3067 421.388 27.44C420.961 26.56 420.748 25.5467 420.748 24.4ZM429.108 24.42C429.108 23.5667 428.868 22.8933 428.388 22.4C427.921 21.9067 427.348 21.66 426.668 21.66C425.988 21.66 425.408 21.9067 424.928 22.4C424.461 22.88 424.228 23.5467 424.228 24.4C424.228 25.2533 424.461 25.9333 424.928 26.44C425.408 26.9333 425.988 27.18 426.668 27.18C427.348 27.18 427.921 26.9333 428.388 26.44C428.868 25.9467 429.108 25.2733 429.108 24.42ZM449.34 15.96V18.7H445.62V30H442.2V18.7H438.48V15.96H449.34ZM452.776 17.68C452.176 17.68 451.683 17.5067 451.296 17.16C450.923 16.8 450.736 16.36 450.736 15.84C450.736 15.3067 450.923 14.8667 451.296 14.52C451.683 14.16 452.176 13.98 452.776 13.98C453.363 13.98 453.843 14.16 454.216 14.52C454.603 14.8667 454.796 15.3067 454.796 15.84C454.796 16.36 454.603 16.8 454.216 17.16C453.843 17.5067 453.363 17.68 452.776 17.68ZM454.476 18.84V30H451.056V18.84H454.476ZM471.195 18.72C472.582 18.72 473.682 19.14 474.495 19.98C475.322 20.82 475.735 21.9867 475.735 23.48V30H472.335V23.94C472.335 23.22 472.142 22.6667 471.755 22.28C471.382 21.88 470.862 21.68 470.195 21.68C469.528 21.68 469.002 21.88 468.615 22.28C468.242 22.6667 468.055 23.22 468.055 23.94V30H464.655V23.94C464.655 23.22 464.462 22.6667 464.075 22.28C463.702 21.88 463.182 21.68 462.515 21.68C461.848 21.68 461.322 21.88 460.935 22.28C460.562 22.6667 460.375 23.22 460.375 23.94V30H456.955V18.84H460.375V20.24C460.722 19.7733 461.175 19.4067 461.735 19.14C462.295 18.86 462.928 18.72 463.635 18.72C464.475 18.72 465.222 18.9 465.875 19.26C466.542 19.62 467.062 20.1333 467.435 20.8C467.822 20.1867 468.348 19.6867 469.015 19.3C469.682 18.9133 470.408 18.72 471.195 18.72ZM488.647 24.24C488.647 24.56 488.627 24.8933 488.587 25.24H480.847C480.9 25.9333 481.12 26.4667 481.507 26.84C481.907 27.2 482.393 27.38 482.967 27.38C483.82 27.38 484.413 27.02 484.747 26.3H488.387C488.2 27.0333 487.86 27.6933 487.367 28.28C486.887 28.8667 486.28 29.3267 485.547 29.66C484.813 29.9933 483.993 30.16 483.087 30.16C481.993 30.16 481.02 29.9267 480.167 29.46C479.313 28.9933 478.647 28.3267 478.167 27.46C477.687 26.5933 477.447 25.58 477.447 24.42C477.447 23.26 477.68 22.2467 478.147 21.38C478.627 20.5133 479.293 19.8467 480.147 19.38C481 18.9133 481.98 18.68 483.087 18.68C484.167 18.68 485.127 18.9067 485.967 19.36C486.807 19.8133 487.46 20.46 487.927 21.3C488.407 22.14 488.647 23.12 488.647 24.24ZM485.147 23.34C485.147 22.7533 484.947 22.2867 484.547 21.94C484.147 21.5933 483.647 21.42 483.047 21.42C482.473 21.42 481.987 21.5867 481.587 21.92C481.2 22.2533 480.96 22.7267 480.867 23.34H485.147ZM501.329 30.14C500.009 30.14 498.796 29.8333 497.689 29.22C496.596 28.6067 495.723 27.7533 495.069 26.66C494.429 25.5533 494.109 24.3133 494.109 22.94C494.109 21.5667 494.429 20.3333 495.069 19.24C495.723 18.1467 496.596 17.2933 497.689 16.68C498.796 16.0667 500.009 15.76 501.329 15.76C502.649 15.76 503.856 16.0667 504.949 16.68C506.056 17.2933 506.923 18.1467 507.549 19.24C508.189 20.3333 508.509 21.5667 508.509 22.94C508.509 24.3133 508.189 25.5533 507.549 26.66C506.909 27.7533 506.043 28.6067 504.949 29.22C503.856 29.8333 502.649 30.14 501.329 30.14ZM501.329 27.02C502.449 27.02 503.343 26.6467 504.009 25.9C504.689 25.1533 505.029 24.1667 505.029 22.94C505.029 21.7 504.689 20.7133 504.009 19.98C503.343 19.2333 502.449 18.86 501.329 18.86C500.196 18.86 499.289 19.2267 498.609 19.96C497.943 20.6933 497.609 21.6867 497.609 22.94C497.609 24.18 497.943 25.1733 498.609 25.92C499.289 26.6533 500.196 27.02 501.329 27.02ZM516.012 21.68H514.172V30H510.752V21.68H509.512V18.84H510.752V18.52C510.752 17.1467 511.145 16.1067 511.932 15.4C512.719 14.68 513.872 14.32 515.392 14.32C515.645 14.32 515.832 14.3267 515.952 14.34V17.24C515.299 17.2 514.839 17.2933 514.572 17.52C514.305 17.7467 514.172 18.1533 514.172 18.74V18.84H516.012V21.68ZM523.219 21.68H521.379V30H517.959V21.68H516.719V18.84H517.959V18.52C517.959 17.1467 518.352 16.1067 519.139 15.4C519.926 14.68 521.079 14.32 522.599 14.32C522.852 14.32 523.039 14.3267 523.159 14.34V17.24C522.506 17.2 522.046 17.2933 521.779 17.52C521.512 17.7467 521.379 18.1533 521.379 18.74V18.84H523.219V21.68ZM535.346 24.24C535.346 24.56 535.326 24.8933 535.286 25.24H527.546C527.599 25.9333 527.819 26.4667 528.206 26.84C528.606 27.2 529.093 27.38 529.666 27.38C530.519 27.38 531.113 27.02 531.446 26.3H535.086C534.899 27.0333 534.559 27.6933 534.066 28.28C533.586 28.8667 532.979 29.3267 532.246 29.66C531.513 29.9933 530.693 30.16 529.786 30.16C528.693 30.16 527.719 29.9267 526.866 29.46C526.013 28.9933 525.346 28.3267 524.866 27.46C524.386 26.5933 524.146 25.58 524.146 24.42C524.146 23.26 524.379 22.2467 524.846 21.38C525.326 20.5133 525.993 19.8467 526.846 19.38C527.699 18.9133 528.679 18.68 529.786 18.68C530.866 18.68 531.826 18.9067 532.666 19.36C533.506 19.8133 534.159 20.46 534.626 21.3C535.106 22.14 535.346 23.12 535.346 24.24ZM531.846 23.34C531.846 22.7533 531.646 22.2867 531.246 21.94C530.846 21.5933 530.346 21.42 529.746 21.42C529.173 21.42 528.686 21.5867 528.286 21.92C527.899 22.2533 527.659 22.7267 527.566 23.34H531.846ZM540.57 20.7C540.97 20.0867 541.47 19.6067 542.07 19.26C542.67 18.9 543.337 18.72 544.07 18.72V22.34H543.13C542.277 22.34 541.637 22.5267 541.21 22.9C540.783 23.26 540.57 23.9 540.57 24.82V30H537.15V18.84H540.57V20.7ZM547.305 30.16C546.705 30.16 546.212 29.9867 545.825 29.64C545.452 29.28 545.265 28.84 545.265 28.32C545.265 27.7867 545.452 27.34 545.825 26.98C546.212 26.62 546.705 26.44 547.305 26.44C547.892 26.44 548.372 26.62 548.745 26.98C549.132 27.34 549.325 27.7867 549.325 28.32C549.325 28.84 549.132 29.28 548.745 29.64C548.372 29.9867 547.892 30.16 547.305 30.16ZM547.305 22.02C546.705 22.02 546.212 21.8467 545.825 21.5C545.452 21.14 545.265 20.7 545.265 20.18C545.265 19.6467 545.452 19.2 545.825 18.84C546.212 18.48 546.705 18.3 547.305 18.3C547.892 18.3 548.372 18.48 548.745 18.84C549.132 19.2 549.325 19.6467 549.325 20.18C549.325 20.7 549.132 21.14 548.745 21.5C548.372 21.8467 547.892 22.02 547.305 22.02ZM565.567 18.38H559.327V21.14C559.593 20.8467 559.967 20.6067 560.447 20.42C560.927 20.2333 561.447 20.14 562.007 20.14C563.007 20.14 563.833 20.3667 564.487 20.82C565.153 21.2733 565.64 21.86 565.947 22.58C566.253 23.3 566.407 24.08 566.407 24.92C566.407 26.48 565.967 27.72 565.087 28.64C564.207 29.5467 562.967 30 561.367 30C560.3 30 559.373 29.82 558.587 29.46C557.8 29.0867 557.193 28.5733 556.767 27.92C556.34 27.2667 556.107 26.5133 556.067 25.66H559.407C559.487 26.0733 559.68 26.42 559.987 26.7C560.293 26.9667 560.713 27.1 561.247 27.1C561.873 27.1 562.34 26.9 562.647 26.5C562.953 26.1 563.107 25.5667 563.107 24.9C563.107 24.2467 562.947 23.7467 562.627 23.4C562.307 23.0533 561.84 22.88 561.227 22.88C560.773 22.88 560.4 22.9933 560.107 23.22C559.813 23.4333 559.62 23.72 559.527 24.08H556.227V15.38H565.567V18.38ZM568.295 22.5C568.295 20.2067 568.735 18.4 569.615 17.08C570.508 15.76 571.941 15.1 573.915 15.1C575.888 15.1 577.315 15.76 578.195 17.08C579.088 18.4 579.535 20.2067 579.535 22.5C579.535 24.82 579.088 26.64 578.195 27.96C577.315 29.28 575.888 29.94 573.915 29.94C571.941 29.94 570.508 29.28 569.615 27.96C568.735 26.64 568.295 24.82 568.295 22.5ZM576.175 22.5C576.175 21.1533 576.028 20.12 575.735 19.4C575.441 18.6667 574.835 18.3 573.915 18.3C572.995 18.3 572.388 18.6667 572.095 19.4C571.801 20.12 571.655 21.1533 571.655 22.5C571.655 23.4067 571.708 24.16 571.815 24.76C571.921 25.3467 572.135 25.8267 572.455 26.2C572.788 26.56 573.275 26.74 573.915 26.74C574.555 26.74 575.035 26.56 575.355 26.2C575.688 25.8267 575.908 25.3467 576.015 24.76C576.121 24.16 576.175 23.4067 576.175 22.5ZM581.061 19.08C581.061 18 581.368 17.1667 581.981 16.58C582.608 15.9933 583.415 15.7 584.401 15.7C585.388 15.7 586.188 15.9933 586.801 16.58C587.415 17.1667 587.721 18 587.721 19.08C587.721 20.16 587.415 20.9933 586.801 21.58C586.188 22.1667 585.388 22.46 584.401 22.46C583.415 22.46 582.608 22.1667 581.981 21.58C581.368 20.9933 581.061 20.16 581.061 19.08ZM594.641 15.92L586.941 30H583.641L591.341 15.92H594.641ZM584.381 17.7C583.741 17.7 583.421 18.16 583.421 19.08C583.421 19.9867 583.741 20.44 584.381 20.44C584.688 20.44 584.928 20.3267 585.101 20.1C585.275 19.8733 585.361 19.5333 585.361 19.08C585.361 18.16 585.035 17.7 584.381 17.7ZM590.581 26.84C590.581 25.76 590.888 24.9267 591.501 24.34C592.115 23.7533 592.915 23.46 593.901 23.46C594.888 23.46 595.688 23.7533 596.301 24.34C596.915 24.9267 597.221 25.76 597.221 26.84C597.221 27.92 596.915 28.7533 596.301 29.34C595.688 29.9267 594.888 30.22 593.901 30.22C592.915 30.22 592.115 29.9267 591.501 29.34C590.888 28.7533 590.581 27.92 590.581 26.84ZM593.881 25.46C593.575 25.46 593.335 25.5733 593.161 25.8C593.001 26.0267 592.921 26.3733 592.921 26.84C592.921 27.7467 593.241 28.2 593.881 28.2C594.188 28.2 594.428 28.0867 594.601 27.86C594.775 27.6333 594.861 27.2933 594.861 26.84C594.861 26.3867 594.775 26.0467 594.601 25.82C594.428 25.58 594.188 25.46 593.881 25.46ZM609.962 30.14C608.642 30.14 607.429 29.8333 606.322 29.22C605.229 28.6067 604.355 27.7533 603.702 26.66C603.062 25.5533 602.742 24.3133 602.742 22.94C602.742 21.5667 603.062 20.3333 603.702 19.24C604.355 18.1467 605.229 17.2933 606.322 16.68C607.429 16.0667 608.642 15.76 609.962 15.76C611.282 15.76 612.489 16.0667 613.582 16.68C614.689 17.2933 615.555 18.1467 616.182 19.24C616.822 20.3333 617.142 21.5667 617.142 22.94C617.142 24.3133 616.822 25.5533 616.182 26.66C615.542 27.7533 614.675 28.6067 613.582 29.22C612.489 29.8333 611.282 30.14 609.962 30.14ZM609.962 27.02C611.082 27.02 611.975 26.6467 612.642 25.9C613.322 25.1533 613.662 24.1667 613.662 22.94C613.662 21.7 613.322 20.7133 612.642 19.98C611.975 19.2333 611.082 18.86 609.962 18.86C608.829 18.86 607.922 19.2267 607.242 19.96C606.575 20.6933 606.242 21.6867 606.242 22.94C606.242 24.18 606.575 25.1733 607.242 25.92C607.922 26.6533 608.829 27.02 609.962 27.02ZM624.645 21.68H622.805V30H619.385V21.68H618.145V18.84H619.385V18.52C619.385 17.1467 619.778 16.1067 620.565 15.4C621.351 14.68 622.505 14.32 624.025 14.32C624.278 14.32 624.465 14.3267 624.585 14.34V17.24C623.931 17.2 623.471 17.2933 623.205 17.52C622.938 17.7467 622.805 18.1533 622.805 18.74V18.84H624.645V21.68ZM631.852 21.68H630.012V30H626.592V21.68H625.352V18.84H626.592V18.52C626.592 17.1467 626.985 16.1067 627.772 15.4C628.558 14.68 629.712 14.32 631.232 14.32C631.485 14.32 631.672 14.3267 631.792 14.34V17.24C631.138 17.2 630.678 17.2933 630.412 17.52C630.145 17.7467 630.012 18.1533 630.012 18.74V18.84H631.852V21.68ZM646.437 27.52H641.197L640.357 30H636.777L641.857 15.96H645.817L650.897 30H647.277L646.437 27.52ZM645.557 24.88L643.817 19.74L642.097 24.88H645.557ZM655.863 15.2V30H652.443V15.2H655.863ZM661.762 15.2V30H658.342V15.2H661.762ZM667.898 22.96C667.898 21.5733 668.198 20.34 668.798 19.26C669.398 18.1667 670.232 17.32 671.298 16.72C672.378 16.1067 673.598 15.8 674.958 15.8C676.625 15.8 678.052 16.24 679.238 17.12C680.425 18 681.218 19.2 681.618 20.72H677.858C677.578 20.1333 677.178 19.6867 676.658 19.38C676.152 19.0733 675.572 18.92 674.918 18.92C673.865 18.92 673.012 19.2867 672.358 20.02C671.705 20.7533 671.378 21.7333 671.378 22.96C671.378 24.1867 671.705 25.1667 672.358 25.9C673.012 26.6333 673.865 27 674.918 27C675.572 27 676.152 26.8467 676.658 26.54C677.178 26.2333 677.578 25.7867 677.858 25.2H681.618C681.218 26.72 680.425 27.92 679.238 28.8C678.052 29.6667 676.625 30.1 674.958 30.1C673.598 30.1 672.378 29.8 671.298 29.2C670.232 28.5867 669.398 27.74 668.798 26.66C668.198 25.58 667.898 24.3467 667.898 22.96ZM688.793 30.16C687.699 30.16 686.713 29.9267 685.833 29.46C684.966 28.9933 684.279 28.3267 683.773 27.46C683.279 26.5933 683.033 25.58 683.033 24.42C683.033 23.2733 683.286 22.2667 683.793 21.4C684.299 20.52 684.993 19.8467 685.873 19.38C686.753 18.9133 687.739 18.68 688.833 18.68C689.926 18.68 690.913 18.9133 691.793 19.38C692.673 19.8467 693.366 20.52 693.873 21.4C694.379 22.2667 694.633 23.2733 694.633 24.42C694.633 25.5667 694.373 26.58 693.853 27.46C693.346 28.3267 692.646 28.9933 691.753 29.46C690.873 29.9267 689.886 30.16 688.793 30.16ZM688.793 27.2C689.446 27.2 689.999 26.96 690.453 26.48C690.919 26 691.153 25.3133 691.153 24.42C691.153 23.5267 690.926 22.84 690.473 22.36C690.033 21.88 689.486 21.64 688.833 21.64C688.166 21.64 687.613 21.88 687.173 22.36C686.733 22.8267 686.513 23.5133 686.513 24.42C686.513 25.3133 686.726 26 687.153 26.48C687.593 26.96 688.139 27.2 688.793 27.2ZM707.467 18.84V30H704.047V28.48C703.7 28.9733 703.227 29.3733 702.627 29.68C702.04 29.9733 701.387 30.12 700.667 30.12C699.814 30.12 699.06 29.9333 698.407 29.56C697.754 29.1733 697.247 28.62 696.887 27.9C696.527 27.18 696.347 26.3333 696.347 25.36V18.84H699.747V24.9C699.747 25.6467 699.94 26.2267 700.327 26.64C700.714 27.0533 701.234 27.26 701.887 27.26C702.554 27.26 703.08 27.0533 703.467 26.64C703.854 26.2267 704.047 25.6467 704.047 24.9V18.84H707.467ZM713.344 20.7C713.744 20.0867 714.244 19.6067 714.844 19.26C715.444 18.9 716.11 18.72 716.844 18.72V22.34H715.904C715.05 22.34 714.41 22.5267 713.984 22.9C713.557 23.26 713.344 23.9 713.344 24.82V30H709.924V18.84H713.344V20.7ZM723.018 30.16C722.045 30.16 721.178 29.9933 720.418 29.66C719.658 29.3267 719.058 28.8733 718.618 28.3C718.178 27.7133 717.932 27.06 717.878 26.34H721.258C721.298 26.7267 721.478 27.04 721.798 27.28C722.118 27.52 722.512 27.64 722.978 27.64C723.405 27.64 723.732 27.56 723.958 27.4C724.198 27.2267 724.318 27.0067 724.318 26.74C724.318 26.42 724.152 26.1867 723.818 26.04C723.485 25.88 722.945 25.7067 722.198 25.52C721.398 25.3333 720.732 25.14 720.198 24.94C719.665 24.7267 719.205 24.4 718.818 23.96C718.432 23.5067 718.238 22.9 718.238 22.14C718.238 21.5 718.412 20.92 718.758 20.4C719.118 19.8667 719.638 19.4467 720.318 19.14C721.012 18.8333 721.832 18.68 722.778 18.68C724.178 18.68 725.278 19.0267 726.078 19.72C726.892 20.4133 727.358 21.3333 727.478 22.48H724.318C724.265 22.0933 724.092 21.7867 723.798 21.56C723.518 21.3333 723.145 21.22 722.678 21.22C722.278 21.22 721.972 21.3 721.758 21.46C721.545 21.6067 721.438 21.8133 721.438 22.08C721.438 22.4 721.605 22.64 721.938 22.8C722.285 22.96 722.818 23.12 723.538 23.28C724.365 23.4933 725.038 23.7067 725.558 23.92C726.078 24.12 726.532 24.4533 726.918 24.92C727.318 25.3733 727.525 25.9867 727.538 26.76C727.538 27.4133 727.352 28 726.978 28.52C726.618 29.0267 726.092 29.4267 725.398 29.72C724.718 30.0133 723.925 30.16 723.018 30.16ZM740.151 24.24C740.151 24.56 740.131 24.8933 740.091 25.24H732.351C732.404 25.9333 732.624 26.4667 733.011 26.84C733.411 27.2 733.897 27.38 734.471 27.38C735.324 27.38 735.917 27.02 736.251 26.3H739.891C739.704 27.0333 739.364 27.6933 738.871 28.28C738.391 28.8667 737.784 29.3267 737.051 29.66C736.317 29.9933 735.497 30.16 734.591 30.16C733.497 30.16 732.524 29.9267 731.671 29.46C730.817 28.9933 730.151 28.3267 729.671 27.46C729.191 26.5933 728.951 25.58 728.951 24.42C728.951 23.26 729.184 22.2467 729.651 21.38C730.131 20.5133 730.797 19.8467 731.651 19.38C732.504 18.9133 733.484 18.68 734.591 18.68C735.671 18.68 736.631 18.9067 737.471 19.36C738.311 19.8133 738.964 20.46 739.431 21.3C739.911 22.14 740.151 23.12 740.151 24.24ZM736.651 23.34C736.651 22.7533 736.451 22.2867 736.051 21.94C735.651 21.5933 735.151 21.42 734.551 21.42C733.977 21.42 733.491 21.5867 733.091 21.92C732.704 22.2533 732.464 22.7267 732.371 23.34H736.651ZM746.495 30.16C745.522 30.16 744.655 29.9933 743.895 29.66C743.135 29.3267 742.535 28.8733 742.095 28.3C741.655 27.7133 741.408 27.06 741.355 26.34H744.735C744.775 26.7267 744.955 27.04 745.275 27.28C745.595 27.52 745.988 27.64 746.455 27.64C746.882 27.64 747.208 27.56 747.435 27.4C747.675 27.2267 747.795 27.0067 747.795 26.74C747.795 26.42 747.628 26.1867 747.295 26.04C746.962 25.88 746.422 25.7067 745.675 25.52C744.875 25.3333 744.208 25.14 743.675 24.94C743.142 24.7267 742.682 24.4 742.295 23.96C741.908 23.5067 741.715 22.9 741.715 22.14C741.715 21.5 741.888 20.92 742.235 20.4C742.595 19.8667 743.115 19.4467 743.795 19.14C744.488 18.8333 745.308 18.68 746.255 18.68C747.655 18.68 748.755 19.0267 749.555 19.72C750.368 20.4133 750.835 21.3333 750.955 22.48H747.795C747.742 22.0933 747.568 21.7867 747.275 21.56C746.995 21.3333 746.622 21.22 746.155 21.22C745.755 21.22 745.448 21.3 745.235 21.46C745.022 21.6067 744.915 21.8133 744.915 22.08C744.915 22.4 745.082 22.64 745.415 22.8C745.762 22.96 746.295 23.12 747.015 23.28C747.842 23.4933 748.515 23.7067 749.035 23.92C749.555 24.12 750.008 24.4533 750.395 24.92C750.795 25.3733 751.002 25.9867 751.015 26.76C751.015 27.4133 750.828 28 750.455 28.52C750.095 29.0267 749.568 29.4267 748.875 29.72C748.195 30.0133 747.402 30.16 746.495 30.16ZM757.607 15.46L757.207 25.04H754.307L753.907 15.46H757.607ZM755.807 30.16C755.207 30.16 754.714 29.9867 754.327 29.64C753.954 29.28 753.767 28.84 753.767 28.32C753.767 27.7867 753.954 27.34 754.327 26.98C754.714 26.62 755.207 26.44 755.807 26.44C756.394 26.44 756.874 26.62 757.247 26.98C757.634 27.34 757.827 27.7867 757.827 28.32C757.827 28.84 757.634 29.28 757.247 29.64C756.874 29.9867 756.394 30.16 755.807 30.16ZM763.938 31.4H783.938V11.4H763.938V31.4Z" fill="black"/>
<path d="M277.964 47.974C278.319 48.03 278.641 48.1747 278.93 48.408C279.229 48.6413 279.462 48.9307 279.63 49.276C279.807 49.6213 279.896 49.99 279.896 50.382C279.896 50.8767 279.77 51.3247 279.518 51.726C279.266 52.118 278.897 52.4307 278.412 52.664C277.936 52.888 277.371 53 276.718 53H273.078V43.242H276.578C277.241 43.242 277.805 43.354 278.272 43.578C278.739 43.7927 279.089 44.0867 279.322 44.46C279.555 44.8333 279.672 45.2533 279.672 45.72C279.672 46.2987 279.513 46.7793 279.196 47.162C278.888 47.5353 278.477 47.806 277.964 47.974ZM274.352 47.456H276.494C277.091 47.456 277.553 47.316 277.88 47.036C278.207 46.756 278.37 46.3687 278.37 45.874C278.37 45.3793 278.207 44.992 277.88 44.712C277.553 44.432 277.082 44.292 276.466 44.292H274.352V47.456ZM276.606 51.95C277.241 51.95 277.735 51.8007 278.09 51.502C278.445 51.2033 278.622 50.788 278.622 50.256C278.622 49.7147 278.435 49.29 278.062 48.982C277.689 48.6647 277.189 48.506 276.564 48.506H274.352V51.95H276.606ZM285.01 53.126C284.291 53.126 283.638 52.9627 283.05 52.636C282.471 52.3093 282.014 51.8473 281.678 51.25C281.351 50.6433 281.188 49.9433 281.188 49.15C281.188 48.366 281.356 47.6753 281.692 47.078C282.037 46.4713 282.504 46.0093 283.092 45.692C283.68 45.3653 284.338 45.202 285.066 45.202C285.794 45.202 286.452 45.3653 287.04 45.692C287.628 46.0093 288.09 46.4667 288.426 47.064C288.771 47.6613 288.944 48.3567 288.944 49.15C288.944 49.9433 288.767 50.6433 288.412 51.25C288.067 51.8473 287.595 52.3093 286.998 52.636C286.401 52.9627 285.738 53.126 285.01 53.126ZM285.01 52.006C285.467 52.006 285.897 51.8987 286.298 51.684C286.699 51.4693 287.021 51.1473 287.264 50.718C287.516 50.2887 287.642 49.766 287.642 49.15C287.642 48.534 287.521 48.0113 287.278 47.582C287.035 47.1527 286.718 46.8353 286.326 46.63C285.934 46.4153 285.509 46.308 285.052 46.308C284.585 46.308 284.156 46.4153 283.764 46.63C283.381 46.8353 283.073 47.1527 282.84 47.582C282.607 48.0113 282.49 48.534 282.49 49.15C282.49 49.7753 282.602 50.3027 282.826 50.732C283.059 51.1613 283.367 51.4833 283.75 51.698C284.133 51.9033 284.553 52.006 285.01 52.006ZM293.965 53.126C293.246 53.126 292.593 52.9627 292.005 52.636C291.426 52.3093 290.969 51.8473 290.633 51.25C290.306 50.6433 290.143 49.9433 290.143 49.15C290.143 48.366 290.311 47.6753 290.647 47.078C290.992 46.4713 291.459 46.0093 292.047 45.692C292.635 45.3653 293.293 45.202 294.021 45.202C294.749 45.202 295.407 45.3653 295.995 45.692C296.583 46.0093 297.045 46.4667 297.381 47.064C297.726 47.6613 297.899 48.3567 297.899 49.15C297.899 49.9433 297.722 50.6433 297.367 51.25C297.022 51.8473 296.55 52.3093 295.953 52.636C295.356 52.9627 294.693 53.126 293.965 53.126ZM293.965 52.006C294.422 52.006 294.852 51.8987 295.253 51.684C295.654 51.4693 295.976 51.1473 296.219 50.718C296.471 50.2887 296.597 49.766 296.597 49.15C296.597 48.534 296.476 48.0113 296.233 47.582C295.99 47.1527 295.673 46.8353 295.281 46.63C294.889 46.4153 294.464 46.308 294.007 46.308C293.54 46.308 293.111 46.4153 292.719 46.63C292.336 46.8353 292.028 47.1527 291.795 47.582C291.562 48.0113 291.445 48.534 291.445 49.15C291.445 49.7753 291.557 50.3027 291.781 50.732C292.014 51.1613 292.322 51.4833 292.705 51.698C293.088 51.9033 293.508 52.006 293.965 52.006ZM302.29 53.126C301.702 53.126 301.175 53.028 300.708 52.832C300.241 52.6267 299.873 52.3467 299.602 51.992C299.331 51.628 299.182 51.2127 299.154 50.746H300.47C300.507 51.1287 300.685 51.4413 301.002 51.684C301.329 51.9267 301.753 52.048 302.276 52.048C302.761 52.048 303.144 51.9407 303.424 51.726C303.704 51.5113 303.844 51.2407 303.844 50.914C303.844 50.578 303.695 50.3307 303.396 50.172C303.097 50.004 302.635 49.8407 302.01 49.682C301.441 49.5327 300.974 49.3833 300.61 49.234C300.255 49.0753 299.947 48.8467 299.686 48.548C299.434 48.24 299.308 47.8387 299.308 47.344C299.308 46.952 299.425 46.5927 299.658 46.266C299.891 45.9393 300.223 45.6827 300.652 45.496C301.081 45.3 301.571 45.202 302.122 45.202C302.971 45.202 303.657 45.4167 304.18 45.846C304.703 46.2753 304.983 46.8633 305.02 47.61H303.746C303.718 47.2087 303.555 46.8867 303.256 46.644C302.967 46.4013 302.575 46.28 302.08 46.28C301.623 46.28 301.259 46.378 300.988 46.574C300.717 46.77 300.582 47.0267 300.582 47.344C300.582 47.596 300.661 47.806 300.82 47.974C300.988 48.1327 301.193 48.2633 301.436 48.366C301.688 48.4593 302.033 48.5667 302.472 48.688C303.023 48.8373 303.471 48.9867 303.816 49.136C304.161 49.276 304.455 49.4907 304.698 49.78C304.95 50.0693 305.081 50.4473 305.09 50.914C305.09 51.334 304.973 51.712 304.74 52.048C304.507 52.384 304.175 52.65 303.746 52.846C303.326 53.0327 302.841 53.126 302.29 53.126ZM308.443 46.378V50.9C308.443 51.2733 308.522 51.5393 308.681 51.698C308.839 51.8473 309.115 51.922 309.507 51.922H310.445V53H309.297C308.587 53 308.055 52.8367 307.701 52.51C307.346 52.1833 307.169 51.6467 307.169 50.9V46.378H306.175V45.328H307.169V43.396H308.443V45.328H310.445V46.378H308.443ZM322.329 45.328L317.709 56.612H316.393L317.905 52.916L314.811 45.328H316.225L318.633 51.544L321.013 45.328H322.329ZM326.955 53.126C326.237 53.126 325.583 52.9627 324.995 52.636C324.417 52.3093 323.959 51.8473 323.623 51.25C323.297 50.6433 323.133 49.9433 323.133 49.15C323.133 48.366 323.301 47.6753 323.637 47.078C323.983 46.4713 324.449 46.0093 325.037 45.692C325.625 45.3653 326.283 45.202 327.011 45.202C327.739 45.202 328.397 45.3653 328.985 45.692C329.573 46.0093 330.035 46.4667 330.371 47.064C330.717 47.6613 330.889 48.3567 330.889 49.15C330.889 49.9433 330.712 50.6433 330.357 51.25C330.012 51.8473 329.541 52.3093 328.943 52.636C328.346 52.9627 327.683 53.126 326.955 53.126ZM326.955 52.006C327.413 52.006 327.842 51.8987 328.243 51.684C328.645 51.4693 328.967 51.1473 329.209 50.718C329.461 50.2887 329.587 49.766 329.587 49.15C329.587 48.534 329.466 48.0113 329.223 47.582C328.981 47.1527 328.663 46.8353 328.271 46.63C327.879 46.4153 327.455 46.308 326.997 46.308C326.531 46.308 326.101 46.4153 325.709 46.63C325.327 46.8353 325.019 47.1527 324.785 47.582C324.552 48.0113 324.435 48.534 324.435 49.15C324.435 49.7753 324.547 50.3027 324.771 50.732C325.005 51.1613 325.313 51.4833 325.695 51.698C326.078 51.9033 326.498 52.006 326.955 52.006ZM339.368 45.328V53H338.094V51.866C337.852 52.258 337.511 52.566 337.072 52.79C336.643 53.0047 336.167 53.112 335.644 53.112C335.047 53.112 334.51 52.9907 334.034 52.748C333.558 52.496 333.18 52.1227 332.9 51.628C332.63 51.1333 332.494 50.5313 332.494 49.822V45.328H333.754V49.654C333.754 50.41 333.946 50.9933 334.328 51.404C334.711 51.8053 335.234 52.006 335.896 52.006C336.578 52.006 337.114 51.796 337.506 51.376C337.898 50.956 338.094 50.3447 338.094 49.542V45.328H339.368ZM342.793 46.574C343.017 46.1353 343.335 45.7947 343.745 45.552C344.165 45.3093 344.674 45.188 345.271 45.188V46.504H344.935C343.507 46.504 342.793 47.2787 342.793 48.828V53H341.519V45.328H342.793V46.574ZM357.474 48.87C357.474 49.1127 357.46 49.3693 357.432 49.64H351.3C351.347 50.396 351.604 50.9887 352.07 51.418C352.546 51.838 353.12 52.048 353.792 52.048C354.343 52.048 354.8 51.922 355.164 51.67C355.538 51.4087 355.799 51.0633 355.948 50.634H357.32C357.115 51.3713 356.704 51.9733 356.088 52.44C355.472 52.8973 354.707 53.126 353.792 53.126C353.064 53.126 352.411 52.9627 351.832 52.636C351.263 52.3093 350.815 51.8473 350.488 51.25C350.162 50.6433 349.998 49.9433 349.998 49.15C349.998 48.3567 350.157 47.6613 350.474 47.064C350.792 46.4667 351.235 46.0093 351.804 45.692C352.383 45.3653 353.046 45.202 353.792 45.202C354.52 45.202 355.164 45.3607 355.724 45.678C356.284 45.9953 356.714 46.434 357.012 46.994C357.32 47.5447 357.474 48.17 357.474 48.87ZM356.158 48.604C356.158 48.1187 356.051 47.7033 355.836 47.358C355.622 47.0033 355.328 46.7373 354.954 46.56C354.59 46.3733 354.184 46.28 353.736 46.28C353.092 46.28 352.542 46.4853 352.084 46.896C351.636 47.3067 351.38 47.876 351.314 48.604H356.158ZM363.16 53L361.34 50.144L359.59 53H358.26L360.738 49.192L358.26 45.328H359.702L361.522 48.17L363.258 45.328H364.588L362.124 49.122L364.602 53H363.16ZM365.379 49.136C365.379 48.352 365.538 47.666 365.855 47.078C366.173 46.4807 366.607 46.0187 367.157 45.692C367.717 45.3653 368.338 45.202 369.019 45.202C369.691 45.202 370.275 45.3467 370.769 45.636C371.264 45.9253 371.633 46.2893 371.875 46.728V45.328H373.163V53H371.875V51.572C371.623 52.02 371.245 52.3933 370.741 52.692C370.247 52.9813 369.668 53.126 369.005 53.126C368.324 53.126 367.708 52.958 367.157 52.622C366.607 52.286 366.173 51.8147 365.855 51.208C365.538 50.6013 365.379 49.9107 365.379 49.136ZM371.875 49.15C371.875 48.5713 371.759 48.0673 371.525 47.638C371.292 47.2087 370.975 46.882 370.573 46.658C370.181 46.4247 369.747 46.308 369.271 46.308C368.795 46.308 368.361 46.42 367.969 46.644C367.577 46.868 367.265 47.1947 367.031 47.624C366.798 48.0533 366.681 48.5573 366.681 49.136C366.681 49.724 366.798 50.2373 367.031 50.676C367.265 51.1053 367.577 51.4367 367.969 51.67C368.361 51.894 368.795 52.006 369.271 52.006C369.747 52.006 370.181 51.894 370.573 51.67C370.975 51.4367 371.292 51.1053 371.525 50.676C371.759 50.2373 371.875 49.7287 371.875 49.15ZM384.542 45.188C385.14 45.188 385.672 45.314 386.138 45.566C386.605 45.8087 386.974 46.1773 387.244 46.672C387.515 47.1667 387.65 47.7687 387.65 48.478V53H386.39V48.66C386.39 47.8947 386.199 47.3113 385.816 46.91C385.443 46.4993 384.934 46.294 384.29 46.294C383.628 46.294 383.1 46.5087 382.708 46.938C382.316 47.358 382.12 47.9693 382.12 48.772V53H380.86V48.66C380.86 47.8947 380.669 47.3113 380.286 46.91C379.913 46.4993 379.404 46.294 378.76 46.294C378.098 46.294 377.57 46.5087 377.178 46.938C376.786 47.358 376.59 47.9693 376.59 48.772V53H375.316V45.328H376.59V46.434C376.842 46.0327 377.178 45.7247 377.598 45.51C378.028 45.2953 378.499 45.188 379.012 45.188C379.656 45.188 380.226 45.3327 380.72 45.622C381.215 45.9113 381.584 46.336 381.826 46.896C382.041 46.3547 382.396 45.9347 382.89 45.636C383.385 45.3373 383.936 45.188 384.542 45.188ZM394.747 46.742C394.999 46.3033 395.372 45.9393 395.867 45.65C396.371 45.3513 396.954 45.202 397.617 45.202C398.298 45.202 398.914 45.3653 399.465 45.692C400.025 46.0187 400.463 46.4807 400.781 47.078C401.098 47.666 401.257 48.352 401.257 49.136C401.257 49.9107 401.098 50.6013 400.781 51.208C400.463 51.8147 400.025 52.286 399.465 52.622C398.914 52.958 398.298 53.126 397.617 53.126C396.963 53.126 396.385 52.9813 395.881 52.692C395.386 52.3933 395.008 52.0247 394.747 51.586V56.64H393.473V45.328H394.747V46.742ZM399.955 49.136C399.955 48.5573 399.838 48.0533 399.605 47.624C399.371 47.1947 399.054 46.868 398.653 46.644C398.261 46.42 397.827 46.308 397.351 46.308C396.884 46.308 396.45 46.4247 396.049 46.658C395.657 46.882 395.339 47.2133 395.097 47.652C394.863 48.0813 394.747 48.5807 394.747 49.15C394.747 49.7287 394.863 50.2373 395.097 50.676C395.339 51.1053 395.657 51.4367 396.049 51.67C396.45 51.894 396.884 52.006 397.351 52.006C397.827 52.006 398.261 51.894 398.653 51.67C399.054 51.4367 399.371 51.1053 399.605 50.676C399.838 50.2373 399.955 49.724 399.955 49.136ZM404.207 46.574C404.431 46.1353 404.749 45.7947 405.159 45.552C405.579 45.3093 406.088 45.188 406.685 45.188V46.504H406.349C404.921 46.504 404.207 47.2787 404.207 48.828V53H402.933V45.328H404.207V46.574ZM415.156 48.87C415.156 49.1127 415.142 49.3693 415.114 49.64H408.982C409.029 50.396 409.285 50.9887 409.752 51.418C410.228 51.838 410.802 52.048 411.474 52.048C412.025 52.048 412.482 51.922 412.846 51.67C413.219 51.4087 413.481 51.0633 413.63 50.634H415.002C414.797 51.3713 414.386 51.9733 413.77 52.44C413.154 52.8973 412.389 53.126 411.474 53.126C410.746 53.126 410.093 52.9627 409.514 52.636C408.945 52.3093 408.497 51.8473 408.17 51.25C407.843 50.6433 407.68 49.9433 407.68 49.15C407.68 48.3567 407.839 47.6613 408.156 47.064C408.473 46.4667 408.917 46.0093 409.486 45.692C410.065 45.3653 410.727 45.202 411.474 45.202C412.202 45.202 412.846 45.3607 413.406 45.678C413.966 45.9953 414.395 46.434 414.694 46.994C415.002 47.5447 415.156 48.17 415.156 48.87ZM413.84 48.604C413.84 48.1187 413.733 47.7033 413.518 47.358C413.303 47.0033 413.009 46.7373 412.636 46.56C412.272 46.3733 411.866 46.28 411.418 46.28C410.774 46.28 410.223 46.4853 409.766 46.896C409.318 47.3067 409.061 47.876 408.996 48.604H413.84ZM418.112 46.742C418.364 46.3033 418.737 45.9393 419.232 45.65C419.736 45.3513 420.319 45.202 420.982 45.202C421.663 45.202 422.279 45.3653 422.83 45.692C423.39 46.0187 423.828 46.4807 424.146 47.078C424.463 47.666 424.622 48.352 424.622 49.136C424.622 49.9107 424.463 50.6013 424.146 51.208C423.828 51.8147 423.39 52.286 422.83 52.622C422.279 52.958 421.663 53.126 420.982 53.126C420.328 53.126 419.75 52.9813 419.246 52.692C418.751 52.3933 418.373 52.0247 418.112 51.586V56.64H416.838V45.328H418.112V46.742ZM423.32 49.136C423.32 48.5573 423.203 48.0533 422.97 47.624C422.736 47.1947 422.419 46.868 422.018 46.644C421.626 46.42 421.192 46.308 420.716 46.308C420.249 46.308 419.815 46.4247 419.414 46.658C419.022 46.882 418.704 47.2133 418.462 47.652C418.228 48.0813 418.112 48.5807 418.112 49.15C418.112 49.7287 418.228 50.2373 418.462 50.676C418.704 51.1053 419.022 51.4367 419.414 51.67C419.815 51.894 420.249 52.006 420.716 52.006C421.192 52.006 421.626 51.894 422.018 51.67C422.419 51.4367 422.736 51.1053 422.97 50.676C423.203 50.2373 423.32 49.724 423.32 49.136ZM440.251 45.328L437.857 53H436.541L434.693 46.91L432.845 53H431.529L429.121 45.328H430.423L432.187 51.768L434.091 45.328H435.393L437.255 51.782L438.991 45.328H440.251ZM442.174 44.082C441.931 44.082 441.726 43.998 441.558 43.83C441.39 43.662 441.306 43.4567 441.306 43.214C441.306 42.9713 441.39 42.766 441.558 42.598C441.726 42.43 441.931 42.346 442.174 42.346C442.407 42.346 442.603 42.43 442.762 42.598C442.93 42.766 443.014 42.9713 443.014 43.214C443.014 43.4567 442.93 43.662 442.762 43.83C442.603 43.998 442.407 44.082 442.174 44.082ZM442.79 45.328V53H441.516V45.328H442.79ZM446.515 46.378V50.9C446.515 51.2733 446.594 51.5393 446.753 51.698C446.911 51.8473 447.187 51.922 447.579 51.922H448.517V53H447.369C446.659 53 446.127 52.8367 445.773 52.51C445.418 52.1833 445.241 51.6467 445.241 50.9V46.378H444.247V45.328H445.241V43.396H446.515V45.328H448.517V46.378H446.515ZM453.868 45.188C454.447 45.188 454.97 45.314 455.436 45.566C455.903 45.8087 456.267 46.1773 456.528 46.672C456.799 47.1667 456.934 47.7687 456.934 48.478V53H455.674V48.66C455.674 47.8947 455.483 47.3113 455.1 46.91C454.718 46.4993 454.195 46.294 453.532 46.294C452.86 46.294 452.324 46.504 451.922 46.924C451.53 47.344 451.334 47.9553 451.334 48.758V53H450.06V42.64H451.334V46.42C451.586 46.028 451.932 45.7247 452.37 45.51C452.818 45.2953 453.318 45.188 453.868 45.188ZM466.556 45.188C467.135 45.188 467.657 45.314 468.124 45.566C468.591 45.8087 468.955 46.1773 469.216 46.672C469.487 47.1667 469.622 47.7687 469.622 48.478V53H468.362V48.66C468.362 47.8947 468.171 47.3113 467.788 46.91C467.405 46.4993 466.883 46.294 466.22 46.294C465.548 46.294 465.011 46.504 464.61 46.924C464.218 47.344 464.022 47.9553 464.022 48.758V53H462.748V42.64H464.022V46.42C464.274 46.028 464.619 45.7247 465.058 45.51C465.506 45.2953 466.005 45.188 466.556 45.188ZM471.227 49.136C471.227 48.352 471.386 47.666 471.703 47.078C472.02 46.4807 472.454 46.0187 473.005 45.692C473.565 45.3653 474.186 45.202 474.867 45.202C475.539 45.202 476.122 45.3467 476.617 45.636C477.112 45.9253 477.48 46.2893 477.723 46.728V45.328H479.011V53H477.723V51.572C477.471 52.02 477.093 52.3933 476.589 52.692C476.094 52.9813 475.516 53.126 474.853 53.126C474.172 53.126 473.556 52.958 473.005 52.622C472.454 52.286 472.02 51.8147 471.703 51.208C471.386 50.6013 471.227 49.9107 471.227 49.136ZM477.723 49.15C477.723 48.5713 477.606 48.0673 477.373 47.638C477.14 47.2087 476.822 46.882 476.421 46.658C476.029 46.4247 475.595 46.308 475.119 46.308C474.643 46.308 474.209 46.42 473.817 46.644C473.425 46.868 473.112 47.1947 472.879 47.624C472.646 48.0533 472.529 48.5573 472.529 49.136C472.529 49.724 472.646 50.2373 472.879 50.676C473.112 51.1053 473.425 51.4367 473.817 51.67C474.209 51.894 474.643 52.006 475.119 52.006C475.595 52.006 476.029 51.894 476.421 51.67C476.822 51.4367 477.14 51.1053 477.373 50.676C477.606 50.2373 477.723 49.7287 477.723 49.15ZM482.438 42.64V53H481.164V42.64H482.438ZM487.731 46.378H486.121V53H484.847V46.378H483.853V45.328H484.847V44.782C484.847 43.9233 485.067 43.298 485.505 42.906C485.953 42.5047 486.667 42.304 487.647 42.304V43.368C487.087 43.368 486.691 43.48 486.457 43.704C486.233 43.9187 486.121 44.278 486.121 44.782V45.328H487.731V46.378ZM496.295 53.126C495.576 53.126 494.923 52.9627 494.335 52.636C493.756 52.3093 493.299 51.8473 492.963 51.25C492.636 50.6433 492.473 49.9433 492.473 49.15C492.473 48.366 492.641 47.6753 492.977 47.078C493.322 46.4713 493.789 46.0093 494.377 45.692C494.965 45.3653 495.623 45.202 496.351 45.202C497.079 45.202 497.737 45.3653 498.325 45.692C498.913 46.0093 499.375 46.4667 499.711 47.064C500.056 47.6613 500.229 48.3567 500.229 49.15C500.229 49.9433 500.052 50.6433 499.697 51.25C499.352 51.8473 498.88 52.3093 498.283 52.636C497.686 52.9627 497.023 53.126 496.295 53.126ZM496.295 52.006C496.752 52.006 497.182 51.8987 497.583 51.684C497.984 51.4693 498.306 51.1473 498.549 50.718C498.801 50.2887 498.927 49.766 498.927 49.15C498.927 48.534 498.806 48.0113 498.563 47.582C498.32 47.1527 498.003 46.8353 497.611 46.63C497.219 46.4153 496.794 46.308 496.337 46.308C495.87 46.308 495.441 46.4153 495.049 46.63C494.666 46.8353 494.358 47.1527 494.125 47.582C493.892 48.0113 493.775 48.534 493.775 49.15C493.775 49.7753 493.887 50.3027 494.111 50.732C494.344 51.1613 494.652 51.4833 495.035 51.698C495.418 51.9033 495.838 52.006 496.295 52.006ZM505.026 46.378H503.416V53H502.142V46.378H501.148V45.328H502.142V44.782C502.142 43.9233 502.362 43.298 502.8 42.906C503.248 42.5047 503.962 42.304 504.942 42.304V43.368C504.382 43.368 503.986 43.48 503.752 43.704C503.528 43.9187 503.416 44.278 503.416 44.782V45.328H505.026V46.378ZM509.634 46.378H508.024V53H506.75V46.378H505.756V45.328H506.75V44.782C506.75 43.9233 506.969 43.298 507.408 42.906C507.856 42.5047 508.57 42.304 509.55 42.304V43.368C508.99 43.368 508.593 43.48 508.36 43.704C508.136 43.9187 508.024 44.278 508.024 44.782V45.328H509.634V46.378ZM518.197 53.126C517.479 53.126 516.825 52.9627 516.237 52.636C515.659 52.3093 515.201 51.8473 514.865 51.25C514.539 50.6433 514.375 49.9433 514.375 49.15C514.375 48.366 514.543 47.6753 514.879 47.078C515.225 46.4713 515.691 46.0093 516.279 45.692C516.867 45.3653 517.525 45.202 518.253 45.202C518.981 45.202 519.639 45.3653 520.227 45.692C520.815 46.0093 521.277 46.4667 521.613 47.064C521.959 47.6613 522.131 48.3567 522.131 49.15C522.131 49.9433 521.954 50.6433 521.599 51.25C521.254 51.8473 520.783 52.3093 520.185 52.636C519.588 52.9627 518.925 53.126 518.197 53.126ZM518.197 52.006C518.655 52.006 519.084 51.8987 519.485 51.684C519.887 51.4693 520.209 51.1473 520.451 50.718C520.703 50.2887 520.829 49.766 520.829 49.15C520.829 48.534 520.708 48.0113 520.465 47.582C520.223 47.1527 519.905 46.8353 519.513 46.63C519.121 46.4153 518.697 46.308 518.239 46.308C517.773 46.308 517.343 46.4153 516.951 46.63C516.569 46.8353 516.261 47.1527 516.027 47.582C515.794 48.0113 515.677 48.534 515.677 49.15C515.677 49.7753 515.789 50.3027 516.013 50.732C516.247 51.1613 516.555 51.4833 516.937 51.698C517.32 51.9033 517.74 52.006 518.197 52.006ZM527.545 45.188C528.478 45.188 529.234 45.4727 529.813 46.042C530.391 46.602 530.681 47.414 530.681 48.478V53H529.421V48.66C529.421 47.8947 529.229 47.3113 528.847 46.91C528.464 46.4993 527.941 46.294 527.279 46.294C526.607 46.294 526.07 46.504 525.669 46.924C525.277 47.344 525.081 47.9553 525.081 48.758V53H523.807V45.328H525.081V46.42C525.333 46.028 525.673 45.7247 526.103 45.51C526.541 45.2953 527.022 45.188 527.545 45.188ZM539.84 53.126C539.121 53.126 538.468 52.9627 537.88 52.636C537.301 52.3093 536.844 51.8473 536.508 51.25C536.181 50.6433 536.018 49.9433 536.018 49.15C536.018 48.366 536.186 47.6753 536.522 47.078C536.867 46.4713 537.334 46.0093 537.922 45.692C538.51 45.3653 539.168 45.202 539.896 45.202C540.624 45.202 541.282 45.3653 541.87 45.692C542.458 46.0093 542.92 46.4667 543.256 47.064C543.601 47.6613 543.774 48.3567 543.774 49.15C543.774 49.9433 543.597 50.6433 543.242 51.25C542.897 51.8473 542.425 52.3093 541.828 52.636C541.231 52.9627 540.568 53.126 539.84 53.126ZM539.84 52.006C540.297 52.006 540.727 51.8987 541.128 51.684C541.529 51.4693 541.851 51.1473 542.094 50.718C542.346 50.2887 542.472 49.766 542.472 49.15C542.472 48.534 542.351 48.0113 542.108 47.582C541.865 47.1527 541.548 46.8353 541.156 46.63C540.764 46.4153 540.339 46.308 539.882 46.308C539.415 46.308 538.986 46.4153 538.594 46.63C538.211 46.8353 537.903 47.1527 537.67 47.582C537.437 48.0113 537.32 48.534 537.32 49.15C537.32 49.7753 537.432 50.3027 537.656 50.732C537.889 51.1613 538.197 51.4833 538.58 51.698C538.963 51.9033 539.383 52.006 539.84 52.006ZM552.253 45.328V53H550.979V51.866C550.736 52.258 550.396 52.566 549.957 52.79C549.528 53.0047 549.052 53.112 548.529 53.112C547.932 53.112 547.395 52.9907 546.919 52.748C546.443 52.496 546.065 52.1227 545.785 51.628C545.514 51.1333 545.379 50.5313 545.379 49.822V45.328H546.639V49.654C546.639 50.41 546.83 50.9933 547.213 51.404C547.596 51.8053 548.118 52.006 548.781 52.006C549.462 52.006 549.999 51.796 550.391 51.376C550.783 50.956 550.979 50.3447 550.979 49.542V45.328H552.253ZM555.678 46.574C555.902 46.1353 556.22 45.7947 556.63 45.552C557.05 45.3093 557.559 45.188 558.156 45.188V46.504H557.82C556.392 46.504 555.678 47.2787 555.678 48.828V53H554.404V45.328H555.678V46.574ZM564.913 46.378V50.9C564.913 51.2733 564.993 51.5393 565.151 51.698C565.31 51.8473 565.585 51.922 565.977 51.922H566.915V53H565.767C565.058 53 564.526 52.8367 564.171 52.51C563.817 52.1833 563.639 51.6467 563.639 50.9V46.378H562.645V45.328H563.639V43.396H564.913V45.328H566.915V46.378H564.913ZM571.805 53.126C571.086 53.126 570.433 52.9627 569.845 52.636C569.266 52.3093 568.809 51.8473 568.473 51.25C568.146 50.6433 567.983 49.9433 567.983 49.15C567.983 48.366 568.151 47.6753 568.487 47.078C568.832 46.4713 569.299 46.0093 569.887 45.692C570.475 45.3653 571.133 45.202 571.861 45.202C572.589 45.202 573.247 45.3653 573.835 45.692C574.423 46.0093 574.885 46.4667 575.221 47.064C575.566 47.6613 575.739 48.3567 575.739 49.15C575.739 49.9433 575.562 50.6433 575.207 51.25C574.862 51.8473 574.39 52.3093 573.793 52.636C573.196 52.9627 572.533 53.126 571.805 53.126ZM571.805 52.006C572.262 52.006 572.692 51.8987 573.093 51.684C573.494 51.4693 573.816 51.1473 574.059 50.718C574.311 50.2887 574.437 49.766 574.437 49.15C574.437 48.534 574.316 48.0113 574.073 47.582C573.83 47.1527 573.513 46.8353 573.121 46.63C572.729 46.4153 572.304 46.308 571.847 46.308C571.38 46.308 570.951 46.4153 570.559 46.63C570.176 46.8353 569.868 47.1527 569.635 47.582C569.402 48.0113 569.285 48.534 569.285 49.15C569.285 49.7753 569.397 50.3027 569.621 50.732C569.854 51.1613 570.162 51.4833 570.545 51.698C570.928 51.9033 571.348 52.006 571.805 52.006ZM578.688 46.742C578.94 46.3033 579.313 45.9393 579.808 45.65C580.312 45.3513 580.895 45.202 581.558 45.202C582.239 45.202 582.855 45.3653 583.406 45.692C583.966 46.0187 584.405 46.4807 584.722 47.078C585.039 47.666 585.198 48.352 585.198 49.136C585.198 49.9107 585.039 50.6013 584.722 51.208C584.405 51.8147 583.966 52.286 583.406 52.622C582.855 52.958 582.239 53.126 581.558 53.126C580.905 53.126 580.326 52.9813 579.822 52.692C579.327 52.3933 578.949 52.0247 578.688 51.586V56.64H577.414V45.328H578.688V46.742ZM583.896 49.136C583.896 48.5573 583.779 48.0533 583.546 47.624C583.313 47.1947 582.995 46.868 582.594 46.644C582.202 46.42 581.768 46.308 581.292 46.308C580.825 46.308 580.391 46.4247 579.99 46.658C579.598 46.882 579.281 47.2133 579.038 47.652C578.805 48.0813 578.688 48.5807 578.688 49.15C578.688 49.7287 578.805 50.2373 579.038 50.676C579.281 51.1053 579.598 51.4367 579.99 51.67C580.391 51.894 580.825 52.006 581.292 52.006C581.768 52.006 582.202 51.894 582.594 51.67C582.995 51.4367 583.313 51.1053 583.546 50.676C583.779 50.2373 583.896 49.724 583.896 49.136ZM592.195 47.33V48.408H586.609V47.33H592.195ZM595.86 46.574C596.084 46.1353 596.401 45.7947 596.812 45.552C597.232 45.3093 597.74 45.188 598.338 45.188V46.504H598.002C596.574 46.504 595.86 47.2787 595.86 48.828V53H594.586V45.328H595.86V46.574ZM599.332 49.136C599.332 48.352 599.491 47.666 599.808 47.078C600.126 46.4807 600.56 46.0187 601.11 45.692C601.67 45.3653 602.291 45.202 602.972 45.202C603.644 45.202 604.228 45.3467 604.722 45.636C605.217 45.9253 605.586 46.2893 605.828 46.728V45.328H607.116V53H605.828V51.572C605.576 52.02 605.198 52.3933 604.694 52.692C604.2 52.9813 603.621 53.126 602.958 53.126C602.277 53.126 601.661 52.958 601.11 52.622C600.56 52.286 600.126 51.8147 599.808 51.208C599.491 50.6013 599.332 49.9107 599.332 49.136ZM605.828 49.15C605.828 48.5713 605.712 48.0673 605.478 47.638C605.245 47.2087 604.928 46.882 604.526 46.658C604.134 46.4247 603.7 46.308 603.224 46.308C602.748 46.308 602.314 46.42 601.922 46.644C601.53 46.868 601.218 47.1947 600.984 47.624C600.751 48.0533 600.634 48.5573 600.634 49.136C600.634 49.724 600.751 50.2373 600.984 50.676C601.218 51.1053 601.53 51.4367 601.922 51.67C602.314 51.894 602.748 52.006 603.224 52.006C603.7 52.006 604.134 51.894 604.526 51.67C604.928 51.4367 605.245 51.1053 605.478 50.676C605.712 50.2373 605.828 49.7287 605.828 49.15ZM610.823 46.378V50.9C610.823 51.2733 610.903 51.5393 611.061 51.698C611.22 51.8473 611.495 51.922 611.887 51.922H612.825V53H611.677C610.968 53 610.436 52.8367 610.081 52.51C609.727 52.1833 609.549 51.6467 609.549 50.9V46.378H608.555V45.328H609.549V43.396H610.823V45.328H612.825V46.378H610.823ZM621.369 48.87C621.369 49.1127 621.355 49.3693 621.327 49.64H615.195C615.242 50.396 615.498 50.9887 615.965 51.418C616.441 51.838 617.015 52.048 617.687 52.048C618.238 52.048 618.695 51.922 619.059 51.67C619.432 51.4087 619.694 51.0633 619.843 50.634H621.215C621.01 51.3713 620.599 51.9733 619.983 52.44C619.367 52.8973 618.602 53.126 617.687 53.126C616.959 53.126 616.306 52.9627 615.727 52.636C615.158 52.3093 614.71 51.8473 614.383 51.25C614.056 50.6433 613.893 49.9433 613.893 49.15C613.893 48.3567 614.052 47.6613 614.369 47.064C614.686 46.4667 615.13 46.0093 615.699 45.692C616.278 45.3653 616.94 45.202 617.687 45.202C618.415 45.202 619.059 45.3607 619.619 45.678C620.179 45.9953 620.608 46.434 620.907 46.994C621.215 47.5447 621.369 48.17 621.369 48.87ZM620.053 48.604C620.053 48.1187 619.946 47.7033 619.731 47.358C619.516 47.0033 619.222 46.7373 618.849 46.56C618.485 46.3733 618.079 46.28 617.631 46.28C616.987 46.28 616.436 46.4853 615.979 46.896C615.531 47.3067 615.274 47.876 615.209 48.604H620.053ZM622.575 49.136C622.575 48.352 622.733 47.666 623.051 47.078C623.368 46.4807 623.802 46.0187 624.353 45.692C624.913 45.3653 625.538 45.202 626.229 45.202C626.826 45.202 627.381 45.342 627.895 45.622C628.408 45.8927 628.8 46.252 629.071 46.7V42.64H630.359V53H629.071V51.558C628.819 52.0153 628.445 52.3933 627.951 52.692C627.456 52.9813 626.877 53.126 626.215 53.126C625.533 53.126 624.913 52.958 624.353 52.622C623.802 52.286 623.368 51.8147 623.051 51.208C622.733 50.6013 622.575 49.9107 622.575 49.136ZM629.071 49.15C629.071 48.5713 628.954 48.0673 628.721 47.638C628.487 47.2087 628.17 46.882 627.769 46.658C627.377 46.4247 626.943 46.308 626.467 46.308C625.991 46.308 625.557 46.42 625.165 46.644C624.773 46.868 624.46 47.1947 624.227 47.624C623.993 48.0533 623.877 48.5573 623.877 49.136C623.877 49.724 623.993 50.2373 624.227 50.676C624.46 51.1053 624.773 51.4367 625.165 51.67C625.557 51.894 625.991 52.006 626.467 52.006C626.943 52.006 627.377 51.894 627.769 51.67C628.17 51.4367 628.487 51.1053 628.721 50.676C628.954 50.2373 629.071 49.7287 629.071 49.15ZM635.768 49.15C635.768 48.3567 635.927 47.666 636.244 47.078C636.561 46.4807 637 46.0187 637.56 45.692C638.129 45.3653 638.778 45.202 639.506 45.202C640.449 45.202 641.223 45.4307 641.83 45.888C642.446 46.3453 642.852 46.98 643.048 47.792H641.676C641.545 47.3253 641.289 46.9567 640.906 46.686C640.533 46.4153 640.066 46.28 639.506 46.28C638.778 46.28 638.19 46.532 637.742 47.036C637.294 47.5307 637.07 48.2353 637.07 49.15C637.07 50.074 637.294 50.788 637.742 51.292C638.19 51.796 638.778 52.048 639.506 52.048C640.066 52.048 640.533 51.9173 640.906 51.656C641.279 51.3947 641.536 51.0213 641.676 50.536H643.048C642.843 51.32 642.432 51.95 641.816 52.426C641.2 52.8927 640.43 53.126 639.506 53.126C638.778 53.126 638.129 52.9627 637.56 52.636C637 52.3093 636.561 51.8473 636.244 51.25C635.927 50.6527 635.768 49.9527 635.768 49.15ZM648.094 53.126C647.375 53.126 646.722 52.9627 646.134 52.636C645.555 52.3093 645.098 51.8473 644.762 51.25C644.435 50.6433 644.272 49.9433 644.272 49.15C644.272 48.366 644.44 47.6753 644.776 47.078C645.121 46.4713 645.588 46.0093 646.176 45.692C646.764 45.3653 647.422 45.202 648.15 45.202C648.878 45.202 649.536 45.3653 650.124 45.692C650.712 46.0093 651.174 46.4667 651.51 47.064C651.855 47.6613 652.028 48.3567 652.028 49.15C652.028 49.9433 651.851 50.6433 651.496 51.25C651.151 51.8473 650.679 52.3093 650.082 52.636C649.485 52.9627 648.822 53.126 648.094 53.126ZM648.094 52.006C648.551 52.006 648.981 51.8987 649.382 51.684C649.783 51.4693 650.105 51.1473 650.348 50.718C650.6 50.2887 650.726 49.766 650.726 49.15C650.726 48.534 650.605 48.0113 650.362 47.582C650.119 47.1527 649.802 46.8353 649.41 46.63C649.018 46.4153 648.593 46.308 648.136 46.308C647.669 46.308 647.24 46.4153 646.848 46.63C646.465 46.8353 646.157 47.1527 645.924 47.582C645.691 48.0113 645.574 48.534 645.574 49.15C645.574 49.7753 645.686 50.3027 645.91 50.732C646.143 51.1613 646.451 51.4833 646.834 51.698C647.217 51.9033 647.637 52.006 648.094 52.006ZM660.507 45.328V53H659.233V51.866C658.99 52.258 658.65 52.566 658.211 52.79C657.782 53.0047 657.306 53.112 656.783 53.112C656.186 53.112 655.649 52.9907 655.173 52.748C654.697 52.496 654.319 52.1227 654.039 51.628C653.768 51.1333 653.633 50.5313 653.633 49.822V45.328H654.893V49.654C654.893 50.41 655.084 50.9933 655.467 51.404C655.85 51.8053 656.372 52.006 657.035 52.006C657.716 52.006 658.253 51.796 658.645 51.376C659.037 50.956 659.233 50.3447 659.233 49.542V45.328H660.507ZM663.932 46.574C664.156 46.1353 664.473 45.7947 664.884 45.552C665.304 45.3093 665.813 45.188 666.41 45.188V46.504H666.074C664.646 46.504 663.932 47.2787 663.932 48.828V53H662.658V45.328H663.932V46.574ZM670.597 53.126C670.009 53.126 669.481 53.028 669.015 52.832C668.548 52.6267 668.179 52.3467 667.909 51.992C667.638 51.628 667.489 51.2127 667.461 50.746H668.777C668.814 51.1287 668.991 51.4413 669.309 51.684C669.635 51.9267 670.06 52.048 670.583 52.048C671.068 52.048 671.451 51.9407 671.731 51.726C672.011 51.5113 672.151 51.2407 672.151 50.914C672.151 50.578 672.001 50.3307 671.703 50.172C671.404 50.004 670.942 49.8407 670.317 49.682C669.747 49.5327 669.281 49.3833 668.917 49.234C668.562 49.0753 668.254 48.8467 667.993 48.548C667.741 48.24 667.615 47.8387 667.615 47.344C667.615 46.952 667.731 46.5927 667.965 46.266C668.198 45.9393 668.529 45.6827 668.959 45.496C669.388 45.3 669.878 45.202 670.429 45.202C671.278 45.202 671.964 45.4167 672.487 45.846C673.009 46.2753 673.289 46.8633 673.327 47.61H672.053C672.025 47.2087 671.861 46.8867 671.563 46.644C671.273 46.4013 670.881 46.28 670.387 46.28C669.929 46.28 669.565 46.378 669.295 46.574C669.024 46.77 668.889 47.0267 668.889 47.344C668.889 47.596 668.968 47.806 669.127 47.974C669.295 48.1327 669.5 48.2633 669.743 48.366C669.995 48.4593 670.34 48.5667 670.779 48.688C671.329 48.8373 671.777 48.9867 672.123 49.136C672.468 49.276 672.762 49.4907 673.005 49.78C673.257 50.0693 673.387 50.4473 673.397 50.914C673.397 51.334 673.28 51.712 673.047 52.048C672.813 52.384 672.482 52.65 672.053 52.846C671.633 53.0327 671.147 53.126 670.597 53.126ZM682.195 48.87C682.195 49.1127 682.181 49.3693 682.153 49.64H676.021C676.068 50.396 676.325 50.9887 676.791 51.418C677.267 51.838 677.841 52.048 678.513 52.048C679.064 52.048 679.521 51.922 679.885 51.67C680.259 51.4087 680.52 51.0633 680.669 50.634H682.041C681.836 51.3713 681.425 51.9733 680.809 52.44C680.193 52.8973 679.428 53.126 678.513 53.126C677.785 53.126 677.132 52.9627 676.553 52.636C675.984 52.3093 675.536 51.8473 675.209 51.25C674.883 50.6433 674.719 49.9433 674.719 49.15C674.719 48.3567 674.878 47.6613 675.195 47.064C675.513 46.4667 675.956 46.0093 676.525 45.692C677.104 45.3653 677.767 45.202 678.513 45.202C679.241 45.202 679.885 45.3607 680.445 45.678C681.005 45.9953 681.435 46.434 681.733 46.994C682.041 47.5447 682.195 48.17 682.195 48.87ZM680.879 48.604C680.879 48.1187 680.772 47.7033 680.557 47.358C680.343 47.0033 680.049 46.7373 679.675 46.56C679.311 46.3733 678.905 46.28 678.457 46.28C677.813 46.28 677.263 46.4853 676.805 46.896C676.357 47.3067 676.101 47.876 676.035 48.604H680.879ZM686.593 53.126C686.005 53.126 685.477 53.028 685.011 52.832C684.544 52.6267 684.175 52.3467 683.905 51.992C683.634 51.628 683.485 51.2127 683.457 50.746H684.773C684.81 51.1287 684.987 51.4413 685.305 51.684C685.631 51.9267 686.056 52.048 686.579 52.048C687.064 52.048 687.447 51.9407 687.727 51.726C688.007 51.5113 688.147 51.2407 688.147 50.914C688.147 50.578 687.997 50.3307 687.699 50.172C687.4 50.004 686.938 49.8407 686.313 49.682C685.743 49.5327 685.277 49.3833 684.913 49.234C684.558 49.0753 684.25 48.8467 683.989 48.548C683.737 48.24 683.611 47.8387 683.611 47.344C683.611 46.952 683.727 46.5927 683.961 46.266C684.194 45.9393 684.525 45.6827 684.955 45.496C685.384 45.3 685.874 45.202 686.425 45.202C687.274 45.202 687.96 45.4167 688.483 45.846C689.005 46.2753 689.285 46.8633 689.323 47.61H688.049C688.021 47.2087 687.857 46.8867 687.559 46.644C687.269 46.4013 686.877 46.28 686.383 46.28C685.925 46.28 685.561 46.378 685.291 46.574C685.02 46.77 684.885 47.0267 684.885 47.344C684.885 47.596 684.964 47.806 685.123 47.974C685.291 48.1327 685.496 48.2633 685.739 48.366C685.991 48.4593 686.336 48.5667 686.775 48.688C687.325 48.8373 687.773 48.9867 688.119 49.136C688.464 49.276 688.758 49.4907 689.001 49.78C689.253 50.0693 689.383 50.4473 689.393 50.914C689.393 51.334 689.276 51.712 689.043 52.048C688.809 52.384 688.478 52.65 688.049 52.846C687.629 53.0327 687.143 53.126 686.593 53.126ZM691.597 53.084C691.355 53.084 691.149 53 690.981 52.832C690.813 52.664 690.729 52.4587 690.729 52.216C690.729 51.9733 690.813 51.768 690.981 51.6C691.149 51.432 691.355 51.348 691.597 51.348C691.831 51.348 692.027 51.432 692.185 51.6C692.353 51.768 692.437 51.9733 692.437 52.216C692.437 52.4587 692.353 52.664 692.185 52.832C692.027 53 691.831 53.084 691.597 53.084ZM705.381 43.242V53H704.107V48.576H699.137V53H697.863V43.242H699.137V47.526H704.107V43.242H705.381ZM714.361 45.328V53H713.087V51.866C712.844 52.258 712.503 52.566 712.065 52.79C711.635 53.0047 711.159 53.112 710.637 53.112C710.039 53.112 709.503 52.9907 709.027 52.748C708.551 52.496 708.173 52.1227 707.893 51.628C707.622 51.1333 707.487 50.5313 707.487 49.822V45.328H708.747V49.654C708.747 50.41 708.938 50.9933 709.321 51.404C709.703 51.8053 710.226 52.006 710.889 52.006C711.57 52.006 712.107 51.796 712.499 51.376C712.891 50.956 713.087 50.3447 713.087 49.542V45.328H714.361ZM717.786 46.574C718.01 46.1353 718.327 45.7947 718.738 45.552C719.158 45.3093 719.666 45.188 720.264 45.188V46.504H719.928C718.5 46.504 717.786 47.2787 717.786 48.828V53H716.512V45.328H717.786V46.574ZM723.008 46.574C723.232 46.1353 723.55 45.7947 723.96 45.552C724.38 45.3093 724.889 45.188 725.486 45.188V46.504H725.15C723.722 46.504 723.008 47.2787 723.008 48.828V53H721.734V45.328H723.008V46.574ZM733.565 45.328L728.945 56.612H727.629L729.141 52.916L726.047 45.328H727.461L729.869 51.544L732.249 45.328H733.565ZM736.162 51.236L734.594 55.002H733.74L734.762 51.236H736.162ZM744.699 53.126C743.981 53.126 743.327 52.9627 742.739 52.636C742.161 52.3093 741.703 51.8473 741.367 51.25C741.041 50.6433 740.877 49.9433 740.877 49.15C740.877 48.366 741.045 47.6753 741.381 47.078C741.727 46.4713 742.193 46.0093 742.781 45.692C743.369 45.3653 744.027 45.202 744.755 45.202C745.483 45.202 746.141 45.3653 746.729 45.692C747.317 46.0093 747.779 46.4667 748.115 47.064C748.461 47.6613 748.633 48.3567 748.633 49.15C748.633 49.9433 748.456 50.6433 748.101 51.25C747.756 51.8473 747.285 52.3093 746.687 52.636C746.09 52.9627 745.427 53.126 744.699 53.126ZM744.699 52.006C745.157 52.006 745.586 51.8987 745.987 51.684C746.389 51.4693 746.711 51.1473 746.953 50.718C747.205 50.2887 747.331 49.766 747.331 49.15C747.331 48.534 747.21 48.0113 746.967 47.582C746.725 47.1527 746.407 46.8353 746.015 46.63C745.623 46.4153 745.199 46.308 744.741 46.308C744.275 46.308 743.845 46.4153 743.453 46.63C743.071 46.8353 742.763 47.1527 742.529 47.582C742.296 48.0113 742.179 48.534 742.179 49.15C742.179 49.7753 742.291 50.3027 742.515 50.732C742.749 51.1613 743.057 51.4833 743.439 51.698C743.822 51.9033 744.242 52.006 744.699 52.006ZM753.43 46.378H751.82V53H750.546V46.378H749.552V45.328H750.546V44.782C750.546 43.9233 750.766 43.298 751.204 42.906C751.652 42.5047 752.366 42.304 753.346 42.304V43.368C752.786 43.368 752.39 43.48 752.156 43.704C751.932 43.9187 751.82 44.278 751.82 44.782V45.328H753.43V46.378ZM758.038 46.378H756.428V53H755.154V46.378H754.16V45.328H755.154V44.782C755.154 43.9233 755.373 43.298 755.812 42.906C756.26 42.5047 756.974 42.304 757.954 42.304V43.368C757.394 43.368 756.997 43.48 756.764 43.704C756.54 43.9187 756.428 44.278 756.428 44.782V45.328H758.038V46.378ZM766.523 48.87C766.523 49.1127 766.509 49.3693 766.481 49.64H760.349C760.396 50.396 760.653 50.9887 761.119 51.418C761.595 51.838 762.169 52.048 762.841 52.048C763.392 52.048 763.849 51.922 764.213 51.67C764.587 51.4087 764.848 51.0633 764.997 50.634H766.369C766.164 51.3713 765.753 51.9733 765.137 52.44C764.521 52.8973 763.756 53.126 762.841 53.126C762.113 53.126 761.46 52.9627 760.881 52.636C760.312 52.3093 759.864 51.8473 759.537 51.25C759.211 50.6433 759.047 49.9433 759.047 49.15C759.047 48.3567 759.206 47.6613 759.523 47.064C759.841 46.4667 760.284 46.0093 760.853 45.692C761.432 45.3653 762.095 45.202 762.841 45.202C763.569 45.202 764.213 45.3607 764.773 45.678C765.333 45.9953 765.763 46.434 766.061 46.994C766.369 47.5447 766.523 48.17 766.523 48.87ZM765.207 48.604C765.207 48.1187 765.1 47.7033 764.885 47.358C764.671 47.0033 764.377 46.7373 764.003 46.56C763.639 46.3733 763.233 46.28 762.785 46.28C762.141 46.28 761.591 46.4853 761.133 46.896C760.685 47.3067 760.429 47.876 760.363 48.604H765.207ZM769.479 46.574C769.703 46.1353 770.02 45.7947 770.431 45.552C770.851 45.3093 771.36 45.188 771.957 45.188V46.504H771.621C770.193 46.504 769.479 47.2787 769.479 48.828V53H768.205V45.328H769.479V46.574ZM784.16 48.87C784.16 49.1127 784.146 49.3693 784.118 49.64H777.986C778.033 50.396 778.289 50.9887 778.756 51.418C779.232 51.838 779.806 52.048 780.478 52.048C781.029 52.048 781.486 51.922 781.85 51.67C782.223 51.4087 782.485 51.0633 782.634 50.634H784.006C783.801 51.3713 783.39 51.9733 782.774 52.44C782.158 52.8973 781.393 53.126 780.478 53.126C779.75 53.126 779.097 52.9627 778.518 52.636C777.949 52.3093 777.501 51.8473 777.174 51.25C776.847 50.6433 776.684 49.9433 776.684 49.15C776.684 48.3567 776.843 47.6613 777.16 47.064C777.477 46.4667 777.921 46.0093 778.49 45.692C779.069 45.3653 779.731 45.202 780.478 45.202C781.206 45.202 781.85 45.3607 782.41 45.678C782.97 45.9953 783.399 46.434 783.698 46.994C784.006 47.5447 784.16 48.17 784.16 48.87ZM782.844 48.604C782.844 48.1187 782.737 47.7033 782.522 47.358C782.307 47.0033 782.013 46.7373 781.64 46.56C781.276 46.3733 780.87 46.28 780.422 46.28C779.778 46.28 779.227 46.4853 778.77 46.896C778.322 47.3067 778.065 47.876 778 48.604H782.844ZM789.58 45.188C790.513 45.188 791.269 45.4727 791.848 46.042C792.426 46.602 792.716 47.414 792.716 48.478V53H791.456V48.66C791.456 47.8947 791.264 47.3113 790.882 46.91C790.499 46.4993 789.976 46.294 789.314 46.294C788.642 46.294 788.105 46.504 787.704 46.924C787.312 47.344 787.116 47.9553 787.116 48.758V53H785.842V45.328H787.116V46.42C787.368 46.028 787.708 45.7247 788.138 45.51C788.576 45.2953 789.057 45.188 789.58 45.188ZM794.321 49.136C794.321 48.352 794.479 47.666 794.797 47.078C795.114 46.4807 795.548 46.0187 796.099 45.692C796.659 45.3653 797.284 45.202 797.975 45.202C798.572 45.202 799.127 45.342 799.641 45.622C800.154 45.8927 800.546 46.252 800.817 46.7V42.64H802.105V53H800.817V51.558C800.565 52.0153 800.191 52.3933 799.697 52.692C799.202 52.9813 798.623 53.126 797.961 53.126C797.279 53.126 796.659 52.958 796.099 52.622C795.548 52.286 795.114 51.8147 794.797 51.208C794.479 50.6013 794.321 49.9107 794.321 49.136ZM800.817 49.15C800.817 48.5713 800.7 48.0673 800.467 47.638C800.233 47.2087 799.916 46.882 799.515 46.658C799.123 46.4247 798.689 46.308 798.213 46.308C797.737 46.308 797.303 46.42 796.911 46.644C796.519 46.868 796.206 47.1947 795.973 47.624C795.739 48.0533 795.623 48.5573 795.623 49.136C795.623 49.724 795.739 50.2373 795.973 50.676C796.206 51.1053 796.519 51.4367 796.911 51.67C797.303 51.894 797.737 52.006 798.213 52.006C798.689 52.006 799.123 51.894 799.515 51.67C799.916 51.4367 800.233 51.1053 800.467 50.676C800.7 50.2373 800.817 49.7287 800.817 49.15ZM806.974 53.126C806.386 53.126 805.858 53.028 805.392 52.832C804.925 52.6267 804.556 52.3467 804.286 51.992C804.015 51.628 803.866 51.2127 803.838 50.746H805.154C805.191 51.1287 805.368 51.4413 805.686 51.684C806.012 51.9267 806.437 52.048 806.96 52.048C807.445 52.048 807.828 51.9407 808.108 51.726C808.388 51.5113 808.528 51.2407 808.528 50.914C808.528 50.578 808.378 50.3307 808.08 50.172C807.781 50.004 807.319 49.8407 806.694 49.682C806.124 49.5327 805.658 49.3833 805.294 49.234C804.939 49.0753 804.631 48.8467 804.37 48.548C804.118 48.24 803.992 47.8387 803.992 47.344C803.992 46.952 804.108 46.5927 804.342 46.266C804.575 45.9393 804.906 45.6827 805.336 45.496C805.765 45.3 806.255 45.202 806.806 45.202C807.655 45.202 808.341 45.4167 808.864 45.846C809.386 46.2753 809.666 46.8633 809.704 47.61H808.43C808.402 47.2087 808.238 46.8867 807.94 46.644C807.65 46.4013 807.258 46.28 806.764 46.28C806.306 46.28 805.942 46.378 805.672 46.574C805.401 46.77 805.266 47.0267 805.266 47.344C805.266 47.596 805.345 47.806 805.504 47.974C805.672 48.1327 805.877 48.2633 806.12 48.366C806.372 48.4593 806.717 48.5667 807.156 48.688C807.706 48.8373 808.154 48.9867 808.5 49.136C808.845 49.276 809.139 49.4907 809.382 49.78C809.634 50.0693 809.764 50.4473 809.774 50.914C809.774 51.334 809.657 51.712 809.424 52.048C809.19 52.384 808.859 52.65 808.43 52.846C808.01 53.0327 807.524 53.126 806.974 53.126ZM818.021 53.126C817.433 53.126 816.905 53.028 816.439 52.832C815.972 52.6267 815.603 52.3467 815.333 51.992C815.062 51.628 814.913 51.2127 814.885 50.746H816.201C816.238 51.1287 816.415 51.4413 816.733 51.684C817.059 51.9267 817.484 52.048 818.007 52.048C818.492 52.048 818.875 51.9407 819.155 51.726C819.435 51.5113 819.575 51.2407 819.575 50.914C819.575 50.578 819.425 50.3307 819.127 50.172C818.828 50.004 818.366 49.8407 817.741 49.682C817.171 49.5327 816.705 49.3833 816.341 49.234C815.986 49.0753 815.678 48.8467 815.417 48.548C815.165 48.24 815.039 47.8387 815.039 47.344C815.039 46.952 815.155 46.5927 815.389 46.266C815.622 45.9393 815.953 45.6827 816.383 45.496C816.812 45.3 817.302 45.202 817.853 45.202C818.702 45.202 819.388 45.4167 819.911 45.846C820.433 46.2753 820.713 46.8633 820.751 47.61H819.477C819.449 47.2087 819.285 46.8867 818.987 46.644C818.697 46.4013 818.305 46.28 817.811 46.28C817.353 46.28 816.989 46.378 816.719 46.574C816.448 46.77 816.313 47.0267 816.313 47.344C816.313 47.596 816.392 47.806 816.551 47.974C816.719 48.1327 816.924 48.2633 817.167 48.366C817.419 48.4593 817.764 48.5667 818.203 48.688C818.753 48.8373 819.201 48.9867 819.547 49.136C819.892 49.276 820.186 49.4907 820.429 49.78C820.681 50.0693 820.811 50.4473 820.821 50.914C820.821 51.334 820.704 51.712 820.471 52.048C820.237 52.384 819.906 52.65 819.477 52.846C819.057 53.0327 818.571 53.126 818.021 53.126ZM825.965 53.126C825.246 53.126 824.593 52.9627 824.005 52.636C823.426 52.3093 822.969 51.8473 822.633 51.25C822.306 50.6433 822.143 49.9433 822.143 49.15C822.143 48.366 822.311 47.6753 822.647 47.078C822.992 46.4713 823.459 46.0093 824.047 45.692C824.635 45.3653 825.293 45.202 826.021 45.202C826.749 45.202 827.407 45.3653 827.995 45.692C828.583 46.0093 829.045 46.4667 829.381 47.064C829.726 47.6613 829.899 48.3567 829.899 49.15C829.899 49.9433 829.722 50.6433 829.367 51.25C829.022 51.8473 828.55 52.3093 827.953 52.636C827.356 52.9627 826.693 53.126 825.965 53.126ZM825.965 52.006C826.422 52.006 826.852 51.8987 827.253 51.684C827.654 51.4693 827.976 51.1473 828.219 50.718C828.471 50.2887 828.597 49.766 828.597 49.15C828.597 48.534 828.476 48.0113 828.233 47.582C827.99 47.1527 827.673 46.8353 827.281 46.63C826.889 46.4153 826.464 46.308 826.007 46.308C825.54 46.308 825.111 46.4153 824.719 46.63C824.336 46.8353 824.028 47.1527 823.795 47.582C823.562 48.0113 823.445 48.534 823.445 49.15C823.445 49.7753 823.557 50.3027 823.781 50.732C824.014 51.1613 824.322 51.4833 824.705 51.698C825.088 51.9033 825.508 52.006 825.965 52.006ZM834.92 53.126C834.201 53.126 833.548 52.9627 832.96 52.636C832.381 52.3093 831.924 51.8473 831.588 51.25C831.261 50.6433 831.098 49.9433 831.098 49.15C831.098 48.366 831.266 47.6753 831.602 47.078C831.947 46.4713 832.414 46.0093 833.002 45.692C833.59 45.3653 834.248 45.202 834.976 45.202C835.704 45.202 836.362 45.3653 836.95 45.692C837.538 46.0093 838 46.4667 838.336 47.064C838.681 47.6613 838.854 48.3567 838.854 49.15C838.854 49.9433 838.677 50.6433 838.322 51.25C837.977 51.8473 837.505 52.3093 836.908 52.636C836.311 52.9627 835.648 53.126 834.92 53.126ZM834.92 52.006C835.377 52.006 835.807 51.8987 836.208 51.684C836.609 51.4693 836.931 51.1473 837.174 50.718C837.426 50.2887 837.552 49.766 837.552 49.15C837.552 48.534 837.431 48.0113 837.188 47.582C836.945 47.1527 836.628 46.8353 836.236 46.63C835.844 46.4153 835.419 46.308 834.962 46.308C834.495 46.308 834.066 46.4153 833.674 46.63C833.291 46.8353 832.983 47.1527 832.75 47.582C832.517 48.0113 832.4 48.534 832.4 49.15C832.4 49.7753 832.512 50.3027 832.736 50.732C832.969 51.1613 833.277 51.4833 833.66 51.698C834.043 51.9033 834.463 52.006 834.92 52.006ZM844.267 45.188C845.201 45.188 845.957 45.4727 846.535 46.042C847.114 46.602 847.403 47.414 847.403 48.478V53H846.143V48.66C846.143 47.8947 845.952 47.3113 845.569 46.91C845.187 46.4993 844.664 46.294 844.001 46.294C843.329 46.294 842.793 46.504 842.391 46.924C841.999 47.344 841.803 47.9553 841.803 48.758V53H840.529V45.328H841.803V46.42C842.055 46.028 842.396 45.7247 842.825 45.51C843.264 45.2953 843.745 45.188 844.267 45.188ZM851.136 43.242L850.982 50.242H849.918L849.764 43.242H851.136ZM850.506 53.084C850.264 53.084 850.058 53 849.89 52.832C849.722 52.664 849.638 52.4587 849.638 52.216C849.638 51.9733 849.722 51.768 849.89 51.6C850.058 51.432 850.264 51.348 850.506 51.348C850.74 51.348 850.936 51.432 851.094 51.6C851.262 51.768 851.346 51.9733 851.346 52.216C851.346 52.4587 851.262 52.664 851.094 52.832C850.936 53 850.74 53.084 850.506 53.084Z" fill="black"/>
</svg>
