<svg width="391" height="46" viewBox="0 0 391 46" fill="none" xmlns="http://www.w3.org/2000/svg">
<path d="M160.25 13.0596C160.007 13.1138 159.768 13.1948 159.537 13.3025C155.553 15.1646 153 20.3715 153 24.8337C153 29.0737 156.183 32.5568 160.25 32.9417V13.0596Z" fill="url(#paint0_linear_6010_9221)"/>
<path d="M161.75 32.9417C165.817 32.5568 169 29.0737 169 24.8337C169 24.4277 168.979 24.0155 168.937 23.6002L161.75 30.7876V32.9417Z" fill="url(#paint1_linear_6010_9221)"/>
<path d="M167.26 18.1566C166.871 17.4318 166.422 16.7451 165.92 16.1177L161.75 20.2876V23.6663L167.26 18.1566Z" fill="url(#paint2_linear_6010_9221)"/>
<path d="M164.908 15.0079C164.173 14.3026 163.354 13.7189 162.463 13.3025C162.232 13.1948 161.993 13.1138 161.75 13.0596V18.1663L164.908 15.0079Z" fill="url(#paint3_linear_6010_9221)"/>
<path d="M167.936 19.6012L161.75 25.7876V28.6663L168.5 21.9163L168.632 21.7844C168.458 21.0467 168.225 20.3133 167.936 19.6012Z" fill="url(#paint4_linear_6010_9221)"/>
<path d="M183.432 28.9766V27.6646H186.872C187.523 27.6646 188.029 27.4886 188.392 27.1366C188.765 26.7846 188.952 26.3046 188.952 25.6966C188.952 25.0566 188.755 24.5446 188.36 24.1606C187.976 23.7766 187.448 23.5846 186.776 23.5846H183.432V22.3046H186.616C187.267 22.3046 187.768 22.1499 188.12 21.8406C188.483 21.5206 188.664 21.0672 188.664 20.4806C188.664 19.9259 188.493 19.5046 188.152 19.2166C187.821 18.9179 187.331 18.7686 186.68 18.7686H183.432V17.4566H186.936C187.981 17.4566 188.813 17.7126 189.432 18.2246C190.051 18.7259 190.36 19.4139 190.36 20.2886C190.36 20.8432 190.232 21.3339 189.976 21.7606C189.731 22.1766 189.389 22.5019 188.952 22.7366C188.515 22.9606 188.019 23.0726 187.464 23.0726L187.544 22.7366C188.141 22.7366 188.675 22.8752 189.144 23.1526C189.613 23.4192 189.987 23.7872 190.264 24.2566C190.541 24.7259 190.68 25.2699 190.68 25.8886C190.68 26.4966 190.531 27.0352 190.232 27.5046C189.944 27.9739 189.533 28.3366 189 28.5926C188.467 28.8486 187.848 28.9766 187.144 28.9766H183.432ZM182.184 28.9766V17.4566H183.88V28.9766H182.184ZM195.922 29.1366C195.101 29.1366 194.376 28.9552 193.746 28.5926C193.128 28.2299 192.642 27.7286 192.29 27.0886C191.938 26.4486 191.762 25.7126 191.762 24.8806C191.762 24.0379 191.933 23.3019 192.274 22.6726C192.626 22.0326 193.117 21.5366 193.746 21.1846C194.376 20.8326 195.096 20.6566 195.906 20.6566C196.696 20.6566 197.378 20.8272 197.954 21.1686C198.541 21.4992 198.989 21.9632 199.298 22.5606C199.618 23.1579 199.778 23.8672 199.778 24.6886C199.778 24.8166 199.773 24.9392 199.762 25.0566C199.762 25.1632 199.752 25.2752 199.73 25.3926H192.882V24.1446H198.562L198.146 24.6406C198.146 23.7659 197.949 23.0992 197.554 22.6406C197.16 22.1819 196.61 21.9526 195.906 21.9526C195.149 21.9526 194.546 22.2139 194.098 22.7366C193.661 23.2486 193.442 23.9632 193.442 24.8806C193.442 25.8086 193.661 26.5339 194.098 27.0566C194.546 27.5792 195.165 27.8406 195.954 27.8406C196.434 27.8406 196.85 27.7446 197.202 27.5526C197.554 27.3499 197.816 27.0566 197.986 26.6726H199.554C199.288 27.4406 198.834 28.0432 198.194 28.4806C197.565 28.9179 196.808 29.1366 195.922 29.1366ZM201.481 28.9766V20.8166H203.065V22.7366H203.145V28.9766H201.481ZM207.273 28.9766V23.7286C207.273 23.1632 207.129 22.7419 206.841 22.4646C206.563 22.1872 206.147 22.0486 205.593 22.0486C205.113 22.0486 204.686 22.1552 204.312 22.3686C203.95 22.5819 203.662 22.8752 203.449 23.2486C203.246 23.6219 203.145 24.0646 203.145 24.5766L202.937 22.6246C203.203 22.0166 203.614 21.5366 204.169 21.1846C204.723 20.8326 205.369 20.6566 206.105 20.6566C206.979 20.6566 207.667 20.9019 208.169 21.3926C208.67 21.8832 208.921 22.5339 208.921 23.3446V28.9766H207.273ZM214.704 29.1366C213.882 29.1366 213.157 28.9552 212.528 28.5926C211.909 28.2299 211.424 27.7286 211.072 27.0886C210.72 26.4486 210.544 25.7126 210.544 24.8806C210.544 24.0379 210.714 23.3019 211.056 22.6726C211.408 22.0326 211.898 21.5366 212.528 21.1846C213.157 20.8326 213.877 20.6566 214.688 20.6566C215.477 20.6566 216.16 20.8272 216.736 21.1686C217.322 21.4992 217.77 21.9632 218.08 22.5606C218.4 23.1579 218.56 23.8672 218.56 24.6886C218.56 24.8166 218.554 24.9392 218.544 25.0566C218.544 25.1632 218.533 25.2752 218.512 25.3926H211.664V24.1446H217.344L216.928 24.6406C216.928 23.7659 216.73 23.0992 216.336 22.6406C215.941 22.1819 215.392 21.9526 214.688 21.9526C213.93 21.9526 213.328 22.2139 212.88 22.7366C212.442 23.2486 212.224 23.9632 212.224 24.8806C212.224 25.8086 212.442 26.5339 212.88 27.0566C213.328 27.5792 213.946 27.8406 214.736 27.8406C215.216 27.8406 215.632 27.7446 215.984 27.5526C216.336 27.3499 216.597 27.0566 216.768 26.6726H218.336C218.069 27.4406 217.616 28.0432 216.976 28.4806C216.346 28.9179 215.589 29.1366 214.704 29.1366ZM220.808 28.9766V19.8726C220.808 19.0406 221.043 18.4059 221.512 17.9686C221.982 17.5206 222.686 17.2966 223.624 17.2966C223.838 17.2966 224.014 17.3072 224.152 17.3286C224.291 17.3499 224.414 17.3819 224.52 17.4246V18.7526C224.446 18.7312 224.344 18.7099 224.216 18.6886C224.099 18.6672 223.966 18.6566 223.816 18.6566C223.347 18.6566 223.006 18.7739 222.792 19.0086C222.579 19.2326 222.472 19.5526 222.472 19.9686V28.9766H220.808ZM226.008 28.9766V20.8166H227.656V28.9766H226.008ZM219.24 22.2086V20.8166H226.68V22.2086H219.24ZM225.944 19.2806V17.4566H227.72V19.2806H225.944ZM233.187 29.1366C232.238 29.1366 231.539 28.9179 231.091 28.4806C230.654 28.0326 230.435 27.3766 230.435 26.5126V18.9446L232.083 18.3206V26.5286C232.083 26.9552 232.195 27.2699 232.419 27.4726C232.643 27.6752 233.006 27.7766 233.507 27.7766C233.699 27.7766 233.87 27.7606 234.019 27.7286C234.168 27.6966 234.296 27.6592 234.403 27.6166V28.9606C234.286 29.0139 234.12 29.0566 233.907 29.0886C233.694 29.1206 233.454 29.1366 233.187 29.1366ZM228.803 22.1446V20.8166H234.403V22.1446H228.803ZM238.878 29.1366C237.811 29.1366 236.963 28.9019 236.334 28.4326C235.704 27.9632 235.347 27.3019 235.262 26.4486H236.798C236.872 26.9179 237.086 27.2806 237.438 27.5366C237.8 27.7819 238.291 27.9046 238.91 27.9046C239.454 27.9046 239.87 27.8086 240.158 27.6166C240.446 27.4246 240.59 27.1526 240.59 26.8006C240.59 26.5446 240.504 26.3312 240.334 26.1606C240.174 25.9792 239.854 25.8299 239.374 25.7126L238.062 25.4086C237.24 25.2059 236.627 24.9072 236.222 24.5126C235.827 24.1072 235.63 23.6112 235.63 23.0246C235.63 22.2886 235.902 21.7126 236.446 21.2966C237 20.8699 237.758 20.6566 238.718 20.6566C239.667 20.6566 240.43 20.8699 241.006 21.2966C241.592 21.7232 241.923 22.3206 241.998 23.0886H240.462C240.398 22.7046 240.211 22.4112 239.902 22.2086C239.603 21.9952 239.192 21.8886 238.67 21.8886C238.179 21.8886 237.8 21.9792 237.534 22.1606C237.278 22.3312 237.15 22.5712 237.15 22.8806C237.15 23.1366 237.246 23.3499 237.438 23.5206C237.64 23.6912 237.971 23.8352 238.43 23.9526L239.774 24.2886C240.552 24.4806 241.139 24.7952 241.534 25.2326C241.928 25.6592 242.126 26.1766 242.126 26.7846C242.126 27.5206 241.838 28.0966 241.262 28.5126C240.696 28.9286 239.902 29.1366 238.878 29.1366Z" fill="white"/>
<path d="M276 23.5C276 11.6514 266.35 1 255.079 1M276 23.5C276 11.6514 266.37 1 255.079 1M276 23.5H390.5M276 23.5C276 35.9263 266.5 45 255.079 44.9535M276 23.5C276 36 266.5 45 255.079 44.9535M255.079 1H213M255.079 44.9535H213" stroke="url(#paint5_linear_6010_9221)" stroke-linecap="round"/>
<path d="M115.5 23.5C115.5 11.6514 125.15 1 136.421 1M115.5 23.5C115.5 11.6514 125.13 1 136.421 1M115.5 23.5H1M115.5 23.5C115.5 35.9263 125 45 136.421 44.9535M115.5 23.5C115.5 36 125 45 136.421 44.9535M136.421 1H178.5M136.421 44.9535H178.5" stroke="url(#paint6_linear_6010_9221)" stroke-linecap="round"/>
<defs>
<linearGradient id="paint0_linear_6010_9221" x1="161" y1="13.0596" x2="161" y2="32.9417" gradientUnits="userSpaceOnUse">
<stop stop-color="#DDFB24"/>
<stop offset="1" stop-color="#546200"/>
</linearGradient>
<linearGradient id="paint1_linear_6010_9221" x1="161" y1="13.0596" x2="161" y2="32.9417" gradientUnits="userSpaceOnUse">
<stop stop-color="#DDFB24"/>
<stop offset="1" stop-color="#546200"/>
</linearGradient>
<linearGradient id="paint2_linear_6010_9221" x1="161" y1="13.0596" x2="161" y2="32.9417" gradientUnits="userSpaceOnUse">
<stop stop-color="#DDFB24"/>
<stop offset="1" stop-color="#546200"/>
</linearGradient>
<linearGradient id="paint3_linear_6010_9221" x1="161" y1="13.0596" x2="161" y2="32.9417" gradientUnits="userSpaceOnUse">
<stop stop-color="#DDFB24"/>
<stop offset="1" stop-color="#546200"/>
</linearGradient>
<linearGradient id="paint4_linear_6010_9221" x1="161" y1="13.0596" x2="161" y2="32.9417" gradientUnits="userSpaceOnUse">
<stop stop-color="#DDFB24"/>
<stop offset="1" stop-color="#546200"/>
</linearGradient>
<linearGradient id="paint5_linear_6010_9221" x1="390" y1="22.9768" x2="213" y2="22.9768" gradientUnits="userSpaceOnUse">
<stop stop-color="#DDFB24" stop-opacity="0"/>
<stop offset="0.47" stop-color="#DDFB24"/>
<stop offset="1" stop-color="#DDFB24" stop-opacity="0"/>
</linearGradient>
<linearGradient id="paint6_linear_6010_9221" x1="1.5" y1="22.9768" x2="178.5" y2="22.9768" gradientUnits="userSpaceOnUse">
<stop stop-color="#DDFB24" stop-opacity="0"/>
<stop offset="0.47" stop-color="#DDFB24"/>
<stop offset="1" stop-color="#DDFB24" stop-opacity="0"/>
</linearGradient>
</defs>
</svg>
