<svg width="126" height="42" viewBox="0 0 126 42" fill="none" xmlns="http://www.w3.org/2000/svg">
<g clip-path="url(#clip0_80_241)">
<path d="M18.3271 8.4682C24.4604 5.02852 33.2221 7.84871 37.9008 14.7726C42.5794 21.6964 41.4021 30.0954 35.2723 33.5351C40.4848 30.6122 41.4842 23.4693 37.5072 17.5859C33.5302 11.7025 26.0793 9.3033 20.8701 12.2262C15.6575 15.1525 14.6582 22.2919 18.6318 28.1788C22.6088 34.0621 30.0563 36.4614 35.2688 33.5351C29.1356 36.9782 20.3738 34.1545 15.6952 27.2307C11.02 20.3103 12.1973 11.9079 18.3271 8.4682Z" fill="#3D3D3D"/>
<path d="M22.8856 10.693C27.9099 7.87277 35.0905 10.1864 38.9203 15.8576C42.7536 21.5288 41.7884 28.4116 36.7641 31.2318C41.0355 28.836 41.8535 22.9834 38.5952 18.1644C35.3403 13.3455 29.2345 11.3775 24.9665 13.7733C20.6952 16.1691 19.8772 22.0217 23.1355 26.844C26.3938 31.6664 32.4962 33.631 36.7675 31.2318C31.7432 34.052 24.5627 31.7417 20.7328 26.0671C16.8996 20.3959 17.8647 13.5097 22.889 10.693H22.8856Z" fill="#3D3D3D"/>
<path d="M29.943 10.4671C35.2685 10.8025 40.1457 15.4298 40.8336 20.8032C41.5181 26.1766 37.7567 30.2598 32.4312 29.9278C36.9593 30.2118 40.156 26.7414 39.5741 22.1722C38.9889 17.6031 34.8476 13.6706 30.3195 13.3865C25.7915 13.1024 22.5914 16.5729 23.1766 21.1421C23.7619 25.7112 27.9066 29.6437 32.4312 29.9278C27.1057 29.5924 22.232 24.9651 21.544 19.5916C20.8561 14.2182 24.6175 10.1351 29.9464 10.4671H29.943Z" fill="#3D3D3D"/>
<path d="M35.533 12.6404C39.7462 15.1697 41.7347 20.3138 39.9789 24.1265C38.2197 27.9393 33.3802 28.9797 29.1671 26.4505C32.7505 28.5998 36.8644 27.7168 38.3566 24.4756C39.8523 21.2345 38.1581 16.8639 34.5781 14.7111C30.9947 12.5617 26.8808 13.4447 25.3885 16.6859C23.8929 19.9271 25.5836 24.2977 29.1671 26.447C24.9539 23.9178 22.9654 18.7736 24.7246 14.9609C26.4838 11.1482 31.3233 10.1077 35.5365 12.637L35.533 12.6404Z" fill="#3D3D3D"/>
</g>
<path d="M107.649 29.4078C106.891 29.4078 106.249 29.2651 105.724 28.9799C105.198 28.6881 104.8 28.3024 104.527 27.8226C104.262 27.3429 104.129 26.8145 104.129 26.2375C104.129 25.7318 104.213 25.278 104.382 24.876C104.55 24.4676 104.809 24.1175 105.159 23.8257C105.51 23.5275 105.963 23.2844 106.521 23.0964C106.942 22.9602 107.435 22.837 107.999 22.7268C108.57 22.6166 109.186 22.5161 109.847 22.4253C110.515 22.3281 111.212 22.2244 111.938 22.1142L111.101 22.5907C111.108 21.8645 110.946 21.3297 110.615 20.9861C110.284 20.6425 109.727 20.4707 108.942 20.4707C108.469 20.4707 108.012 20.5809 107.571 20.8013C107.13 21.0217 106.822 21.401 106.647 21.9391L104.508 21.2681C104.767 20.3799 105.26 19.6667 105.986 19.1286C106.719 18.5905 107.704 18.3215 108.942 18.3215C109.876 18.3215 110.696 18.4738 111.403 18.7785C112.116 19.0832 112.644 19.5825 112.988 20.2762C113.176 20.6457 113.289 21.025 113.328 21.414C113.367 21.7965 113.387 22.2146 113.387 22.6685V29.116H111.335V26.8404L111.675 27.21C111.202 27.9685 110.648 28.5261 110.012 28.8826C109.383 29.2327 108.596 29.4078 107.649 29.4078ZM108.116 27.5406C108.647 27.5406 109.101 27.4466 109.477 27.2586C109.853 27.0706 110.152 26.8404 110.372 26.5681C110.599 26.2958 110.751 26.0397 110.829 25.7999C110.952 25.5016 111.02 25.1613 111.033 24.7788C111.053 24.3898 111.062 24.0753 111.062 23.8354L111.782 24.0494C111.075 24.1596 110.469 24.2569 109.964 24.3411C109.458 24.4254 109.023 24.5065 108.66 24.5843C108.297 24.6556 107.976 24.7366 107.698 24.8274C107.425 24.9246 107.195 25.0381 107.007 25.1677C106.819 25.2974 106.673 25.4465 106.57 25.6151C106.472 25.7837 106.424 25.9814 106.424 26.2083C106.424 26.4676 106.489 26.6978 106.618 26.8988C106.748 27.0933 106.936 27.2489 107.182 27.3656C107.435 27.4823 107.746 27.5406 108.116 27.5406Z" fill="#3D3D3D"/>
<path d="M99.8012 29.116V24.0591C99.8012 23.7284 99.7785 23.3621 99.7332 22.9602C99.6878 22.5582 99.5808 22.1725 99.4122 21.8029C99.2502 21.4269 99.0038 21.1189 98.6731 20.8791C98.349 20.6392 97.9081 20.5192 97.3506 20.5192C97.0523 20.5192 96.7574 20.5679 96.4656 20.6651C96.1739 20.7624 95.9081 20.9309 95.6682 21.1708C95.4348 21.4042 95.2468 21.7284 95.1041 22.1433C94.9615 22.5517 94.8902 23.0769 94.8902 23.7187L93.4995 23.1255C93.4995 22.2308 93.6713 21.4204 94.015 20.6943C94.365 19.9682 94.8772 19.3912 95.5515 18.9633C96.2257 18.5289 97.0556 18.3117 98.041 18.3117C98.819 18.3117 99.4609 18.4414 99.9665 18.7007C100.472 18.96 100.874 19.2907 101.172 19.6926C101.471 20.0946 101.691 20.5225 101.834 20.9763C101.976 21.4301 102.067 21.8613 102.106 22.2697C102.151 22.6717 102.174 22.9991 102.174 23.2519V29.116H99.8012ZM92.5173 29.116V18.6132H94.6082V21.871H94.8902V29.116H92.5173Z" fill="#3D3D3D"/>
<path d="M87.2809 17.0183V14.8691H89.6246V17.0183H87.2809ZM87.2809 29.116V18.6132H89.6246V29.116H87.2809Z" fill="#3D3D3D"/>
<path d="M82.2065 29.116V22.7365C82.2065 22.0169 82.0282 21.4561 81.6717 21.0541C81.3151 20.6457 80.8321 20.4415 80.2227 20.4415C79.8466 20.4415 79.5095 20.529 79.2113 20.7041C78.913 20.8726 78.6764 21.1255 78.5014 21.4626C78.3263 21.7932 78.2388 22.1887 78.2388 22.649L77.1982 22.0364C77.1918 21.3102 77.3538 20.6716 77.6845 20.1206C78.0216 19.563 78.4754 19.1286 79.046 18.8174C79.6165 18.5062 80.2518 18.3506 80.952 18.3506C82.1125 18.3506 83.0007 18.7007 83.6166 19.4009C84.239 20.0946 84.5502 21.0088 84.5502 22.1433V29.116H82.2065ZM69.574 29.116V18.6132H71.6454V21.871H71.9371V29.116H69.574ZM75.9048 29.116V22.7657C75.9048 22.0331 75.7265 21.4626 75.37 21.0541C75.0134 20.6457 74.5272 20.4415 73.9112 20.4415C73.3148 20.4415 72.835 20.6457 72.472 21.0541C72.1154 21.4626 71.9371 21.9942 71.9371 22.649L70.8868 21.9488C70.8868 21.2681 71.0554 20.6554 71.3925 20.1108C71.7296 19.5662 72.1835 19.1384 72.754 18.8272C73.331 18.5095 73.9761 18.3506 74.6892 18.3506C75.4737 18.3506 76.1285 18.5192 76.6536 18.8563C77.1853 19.187 77.5807 19.6408 77.8401 20.2178C78.1059 20.7883 78.2388 21.4334 78.2388 22.1531V29.116H75.9048Z" fill="#3D3D3D"/>
<path d="M61.3574 29.4175C60.5794 29.4175 59.9376 29.2878 59.4319 29.0285C58.9262 28.7692 58.5242 28.4385 58.226 28.0366C57.9278 27.6346 57.7074 27.2067 57.5647 26.7529C57.4221 26.2991 57.3281 25.8712 57.2827 25.4692C57.2438 25.0608 57.2244 24.7301 57.2244 24.4773V18.6132H59.5972V23.6701C59.5972 23.9943 59.6199 24.3606 59.6653 24.769C59.7107 25.171 59.8144 25.56 59.9765 25.936C60.1451 26.3056 60.3914 26.6103 60.7156 26.8501C61.0462 27.09 61.4903 27.21 62.0479 27.21C62.3461 27.21 62.6411 27.1613 62.9328 27.0641C63.2246 26.9668 63.4872 26.8015 63.7205 26.5681C63.9604 26.3282 64.1517 26.0008 64.2943 25.5859C64.4369 25.171 64.5083 24.6459 64.5083 24.0105L65.8989 24.6037C65.8989 25.4984 65.7239 26.3088 65.3738 27.0349C65.0302 27.761 64.5212 28.3413 63.847 28.7757C63.1727 29.2036 62.3429 29.4175 61.3574 29.4175ZM64.7903 29.116V25.8582H64.5083V18.6132H66.8617V29.116H64.7903Z" fill="#3D3D3D"/>
<path d="M47.2419 29.116V15.1122H49.5856V26.9182H55.7706V29.116H47.2419Z" fill="#3D3D3D"/>
<defs>
<clipPath id="clip0_80_241">
<rect width="28.4347" height="28" fill="white" transform="translate(12.834 7)"/>
</clipPath>
</defs>
</svg>
