<svg width="126" height="42" viewBox="0 0 126 42" fill="none" xmlns="http://www.w3.org/2000/svg">
<g clip-path="url(#clip0_80_256)">
<path d="M16.334 20.9921C16.334 24.857 17.9427 28.5807 20.7718 31.2332C21.6311 29.7774 21.9097 27.945 21.4035 26.093C20.7051 23.5269 18.6882 21.6239 16.334 20.9921Z" fill="#3D3D3D"/>
<path d="M17.0557 16.5858C16.7065 17.6334 16.4828 18.7007 16.3887 19.7601C19.6493 20.0858 22.4156 23.8408 22.7373 28.6043C22.8315 29.9933 22.702 31.3234 22.3999 32.532C23.1336 33.0381 23.9262 33.4737 24.7738 33.8425C25.2211 31.6216 25.2054 29.1654 24.6325 26.6855C23.5142 21.8397 20.5518 18.1239 17.0557 16.5818V16.5858Z" fill="#3D3D3D"/>
<path d="M32.155 14.259C35.6942 15.0555 39.1628 14.5297 41.8506 13.0426C41.3484 12.3128 40.7755 11.63 40.1359 11.0062C37.7032 12.9641 33.6146 13.3643 29.7026 11.736C27.6623 10.8884 25.979 9.61322 24.7862 8.14966C24.4134 8.31053 24.0446 8.4871 23.6875 8.68329C25.4532 11.3279 28.4588 13.4271 32.155 14.259Z" fill="#3D3D3D"/>
<path d="M44.181 23.0757C44.2947 22.3105 44.3458 21.5415 44.334 20.7803C41.4108 21.7024 38.6406 23.8487 36.7768 26.9602C35.3603 29.3262 34.6815 31.8885 34.6854 34.3055C35.015 34.1996 35.3368 34.0818 35.6585 33.9524C35.9489 31.7511 37.1143 29.2321 39.0526 26.9877C40.6103 25.1827 42.4192 23.8487 44.181 23.0796V23.0757Z" fill="#3D3D3D"/>
<path d="M42.9685 14.9809C39.0212 16.7859 32.9825 16.6093 26.9987 14.1216C24.7151 13.1721 22.6669 11.9792 20.9208 10.6412C19.7829 11.6732 18.802 12.9013 18.0408 14.31C22.561 16.213 26.2571 23.2051 26.8339 31.7668C26.8967 32.7203 26.9203 33.658 26.9046 34.5762C28.8311 35.0667 30.7891 35.1255 32.6686 34.8038C32.9511 30.8643 34.9718 26.2147 38.5228 22.1065C40.1747 20.1956 41.9875 18.5986 43.8435 17.347C43.6237 16.5347 43.3334 15.7421 42.9685 14.9809ZM30.7734 26.042C25.1467 26.042 25.1546 17.3116 30.7734 17.3116C36.3922 17.3116 36.3922 26.042 30.7734 26.042Z" fill="#3D3D3D"/>
<path d="M32.8104 11.5908C35.047 12.0028 37.3031 11.3711 39.0453 10.0449C38.0526 9.25619 36.9382 8.58522 35.7061 8.07513C33.0419 6.96863 30.2286 6.74498 27.5918 7.27469C28.4001 9.44453 30.2913 11.1278 32.8104 11.5908Z" fill="#3D3D3D"/>
<path d="M43.4122 25.9832C41.3561 26.3088 39.3197 27.6821 38.0209 29.8441C37.3343 30.9899 36.9497 32.2102 36.832 33.3991C39.6297 31.9355 41.9525 29.5185 43.2592 26.3755C43.3141 26.246 43.3612 26.1126 43.4122 25.9832Z" fill="#3D3D3D"/>
</g>
<path d="M99.625 28.0457L103.478 22.72L99.703 17.5114H102.473L104.843 20.8765L107.175 17.5114H109.945L106.17 22.72L110.042 28.0457H107.272L104.843 24.5635L102.395 28.0457H99.625Z" fill="#3D3D3D"/>
<path d="M94.2319 28.3383C93.1654 28.3383 92.229 28.1075 91.4227 27.6458C90.6164 27.1841 89.9856 26.5436 89.5304 25.7243C89.0818 24.9049 88.8574 23.9621 88.8574 22.8956C88.8574 21.7447 89.0785 20.7465 89.5207 19.9012C89.9629 19.0493 90.5774 18.3893 91.3642 17.9211C92.151 17.4529 93.0614 17.2188 94.0953 17.2188C95.1877 17.2188 96.1144 17.4757 96.8752 17.9894C97.6425 18.4966 98.2115 19.2151 98.5821 20.145C98.9528 21.0749 99.0926 22.1706 99.0016 23.4321H96.6704V22.5737C96.6639 21.4293 96.4623 20.5937 96.0656 20.067C95.6689 19.5403 95.0447 19.2769 94.1928 19.2769C93.2305 19.2769 92.5152 19.576 92.047 20.1743C91.5788 20.766 91.3447 21.6341 91.3447 22.7786C91.3447 23.845 91.5788 24.6708 92.047 25.2561C92.5152 25.8413 93.1979 26.1339 94.0953 26.1339C94.674 26.1339 95.1715 26.0071 95.5877 25.7535C96.0103 25.4934 96.3355 25.1195 96.5631 24.6318L98.8845 25.3341C98.4813 26.2835 97.8571 27.0215 97.0117 27.5483C96.1729 28.075 95.2463 28.3383 94.2319 28.3383ZM90.6034 23.4321V21.6569H97.8506V23.4321H90.6034Z" fill="#3D3D3D"/>
<path d="M87.71 28.0457C87.0142 28.1758 86.3314 28.2311 85.6616 28.2116C84.9984 28.1986 84.4034 28.0783 83.8767 27.8507C83.3499 27.6166 82.95 27.2492 82.6769 26.7485C82.4363 26.2933 82.3095 25.8283 82.2965 25.3536C82.2835 24.879 82.277 24.3425 82.277 23.7442V14.5853H84.618V23.6077C84.618 24.0304 84.6212 24.401 84.6277 24.7196C84.6407 25.0383 84.709 25.2984 84.8326 25.5C85.0666 25.8901 85.4406 26.108 85.9543 26.1535C86.468 26.199 87.0532 26.173 87.71 26.0754V28.0457ZM80.3652 19.355V17.5115H87.71V19.355H80.3652Z" fill="#3D3D3D"/>
<path d="M73.7444 28.0457V17.5114H75.822V20.0767L75.5684 19.7451C75.6984 19.3939 75.8708 19.0753 76.0853 18.7892C76.3064 18.4966 76.5698 18.256 76.8754 18.0674C77.1355 17.8918 77.4216 17.7553 77.7338 17.6577C78.0524 17.5537 78.3775 17.4919 78.7092 17.4724C79.0408 17.4464 79.3627 17.4594 79.6748 17.5114V19.7061C79.3627 19.615 79.0018 19.5858 78.5921 19.6183C78.1889 19.6508 77.8248 19.7646 77.4997 19.9597C77.1745 20.1353 76.9079 20.3596 76.6998 20.6327C76.4983 20.9058 76.3487 21.2179 76.2512 21.5691C76.1536 21.9137 76.1048 22.2876 76.1048 22.6908V28.0457H73.7444Z" fill="#3D3D3D"/>
<path d="M66.3375 28.3383C65.2841 28.3383 64.3639 28.101 63.5771 27.6263C62.7903 27.1516 62.179 26.4981 61.7434 25.6657C61.3142 24.8269 61.0996 23.8645 61.0996 22.7786C61.0996 21.6731 61.3207 20.7042 61.7629 19.8719C62.2051 19.0396 62.8196 18.3893 63.6064 17.9211C64.3932 17.4529 65.3036 17.2188 66.3375 17.2188C67.3974 17.2188 68.3208 17.4562 69.1076 17.9309C69.8944 18.4055 70.5057 19.0623 70.9414 19.9012C71.377 20.7335 71.5949 21.6926 71.5949 22.7786C71.5949 23.871 71.3738 24.8367 70.9316 25.6755C70.4959 26.5078 69.8847 27.1614 69.0979 27.636C68.311 28.1042 67.3909 28.3383 66.3375 28.3383ZM66.3375 26.1339C67.2739 26.1339 67.9697 25.8218 68.4248 25.1976C68.88 24.5733 69.1076 23.767 69.1076 22.7786C69.1076 21.7577 68.8768 20.9448 68.4151 20.3401C67.9534 19.7288 67.2609 19.4232 66.3375 19.4232C65.7067 19.4232 65.1865 19.5663 64.7769 19.8524C64.3737 20.132 64.0746 20.5254 63.8795 21.0326C63.6844 21.5333 63.5869 22.1153 63.5869 22.7786C63.5869 23.7995 63.8177 24.6156 64.2794 25.2268C64.7476 25.8316 65.4336 26.1339 66.3375 26.1339Z" fill="#3D3D3D"/>
<path d="M53.5103 28.0457L49.082 14H51.501L55.2075 25.7633L58.9628 14H61.3818L56.9535 28.0457H53.5103Z" fill="#3D3D3D"/>
<defs>
<clipPath id="clip0_80_256">
<rect width="28" height="28" fill="white" transform="translate(16.334 7)"/>
</clipPath>
</defs>
</svg>
