<svg width="126" height="42" viewBox="0 0 126 42" fill="none" xmlns="http://www.w3.org/2000/svg">
<g clip-path="url(#clip0_80_274)">
<path fill-rule="evenodd" clip-rule="evenodd" d="M14.0339 30.277C7.19013 24.2158 8.09769 14.3762 14.9599 9.50043C19.7802 6.07857 27.1194 5.6572 31.7914 11.4915C35.1022 15.6264 35.3291 21.5719 33.2315 25.1604C31.9164 27.4015 28.8974 29.0592 27.0499 26.8459C25.3691 24.8363 27.2444 23.0536 27.9019 20.706C30.2495 12.2926 18.6041 6.33324 12.4688 14.4272C9.33864 18.5575 9.51459 24.9243 14.0339 30.277Z" fill="#3D3D3D"/>
<path fill-rule="evenodd" clip-rule="evenodd" d="M35.4996 11.9221C42.2044 18.1407 41.07 27.9572 34.0966 32.6709C29.1977 35.9817 21.8539 36.2317 17.3161 30.2955C14.0979 26.0819 14.01 20.1318 16.1909 16.5942C17.5568 14.3855 20.6129 12.7926 22.4141 15.0523C24.0487 17.0989 22.127 18.8399 21.4186 21.169C18.8811 29.5315 30.383 35.7594 36.7035 27.8044C39.9263 23.7481 39.8985 17.3721 35.5043 11.9221H35.4996Z" fill="#3D3D3D"/>
</g>
<path d="M109.217 31.85L111.121 26.6232L111.157 28.161L106.846 17.57H109.143L112.201 25.4057H111.615L114.59 17.57H116.796L111.285 31.85H109.217Z" fill="#3D3D3D"/>
<path d="M106.059 27.4562C105.406 27.5782 104.765 27.6301 104.137 27.6118C103.514 27.5996 102.956 27.4867 102.461 27.2731C101.967 27.0534 101.592 26.7086 101.335 26.2387C101.11 25.8115 100.991 25.3752 100.978 24.9297C100.966 24.4842 100.96 23.9808 100.96 23.4193V14.8239H103.157V23.2912C103.157 23.6878 103.16 24.0357 103.166 24.3347C103.178 24.6337 103.243 24.8778 103.358 25.067C103.578 25.4332 103.929 25.6376 104.411 25.6803C104.893 25.723 105.443 25.6986 106.059 25.6071V27.4562ZM99.166 19.3001V17.57H106.059V19.3001H99.166Z" fill="#3D3D3D"/>
<path d="M95.3164 16.0688V14.0458H97.5225V16.0688H95.3164ZM95.3164 27.4562V17.57H97.5225V27.4562H95.3164Z" fill="#3D3D3D"/>
<path d="M89.1644 27.7308C88.1453 27.7308 87.2757 27.505 86.5556 27.0534C85.8355 26.5957 85.2832 25.9733 84.8987 25.186C84.5204 24.3988 84.3281 23.5078 84.322 22.5131C84.3281 21.5001 84.5265 20.603 84.917 19.8219C85.3137 19.0346 85.8751 18.4183 86.6013 17.9728C87.3275 17.5212 88.191 17.2954 89.1919 17.2954C90.3147 17.2954 91.2637 17.5792 92.0387 18.1467C92.8198 18.7082 93.3294 19.4771 93.5674 20.4535L91.3705 21.0485C91.1996 20.5176 90.9158 20.1056 90.5192 19.8127C90.1225 19.5137 89.6709 19.3642 89.1644 19.3642C88.5908 19.3642 88.1178 19.5015 87.7456 19.7761C87.3733 20.0446 87.0987 20.4169 86.9217 20.8929C86.7447 21.3689 86.6563 21.9089 86.6563 22.5131C86.6563 23.4529 86.8668 24.2127 87.2879 24.7924C87.7089 25.3722 88.3345 25.662 89.1644 25.662C89.7503 25.662 90.211 25.5278 90.5466 25.2593C90.8884 24.9907 91.1447 24.6032 91.3156 24.0967L93.5674 24.6002C93.2623 25.6071 92.7283 26.3821 91.9655 26.9253C91.2027 27.4623 90.269 27.7308 89.1644 27.7308Z" fill="#3D3D3D"/>
<path d="M77.9215 27.7308C76.9329 27.7308 76.0693 27.5081 75.3309 27.0626C74.5925 26.6171 74.0189 26.0038 73.61 25.2226C73.2072 24.4354 73.0059 23.5322 73.0059 22.5131C73.0059 21.4757 73.2133 20.5664 73.6283 19.7853C74.0433 19.0041 74.62 18.3939 75.3584 17.9545C76.0968 17.5151 76.9512 17.2954 77.9215 17.2954C78.9162 17.2954 79.7828 17.5182 80.5212 17.9636C81.2596 18.4091 81.8332 19.0255 82.2421 19.8127C82.651 20.5938 82.8554 21.494 82.8554 22.5131C82.8554 23.5383 82.6479 24.4446 82.2329 25.2318C81.8241 26.0129 81.2504 26.6262 80.512 27.0717C79.7736 27.5111 78.9101 27.7308 77.9215 27.7308ZM77.9215 25.662C78.8002 25.662 79.4532 25.3691 79.8804 24.7833C80.3076 24.1974 80.5212 23.4407 80.5212 22.5131C80.5212 21.555 80.3045 20.7922 79.8712 20.2246C79.438 19.651 78.788 19.3642 77.9215 19.3642C77.3295 19.3642 76.8413 19.4984 76.4569 19.7669C76.0785 20.0294 75.7978 20.3986 75.6147 20.8746C75.4316 21.3445 75.3401 21.8906 75.3401 22.5131C75.3401 23.4712 75.5567 24.2371 75.99 24.8107C76.4294 25.3783 77.0732 25.662 77.9215 25.662Z" fill="#3D3D3D"/>
<path d="M68.6055 27.4562V14H70.8115V27.4562H68.6055Z" fill="#3D3D3D"/>
<path d="M61.9051 27.7308C60.9043 27.7308 60.0255 27.5142 59.2688 27.0809C58.5121 26.6476 57.9201 26.0465 57.4929 25.2776C57.0719 24.5086 56.8613 23.6238 56.8613 22.6229C56.8613 21.5428 57.0688 20.6061 57.4838 19.8127C57.8988 19.0133 58.4755 18.3939 59.2139 17.9545C59.9523 17.5151 60.8066 17.2954 61.7769 17.2954C62.8022 17.2954 63.6718 17.5365 64.3858 18.0186C65.1059 18.4946 65.6399 19.1689 65.9877 20.0416C66.3356 20.9142 66.4668 21.9425 66.3813 23.1264H64.1936V22.3209C64.1875 21.2468 63.9983 20.4626 63.626 19.9683C63.2538 19.474 62.6679 19.2269 61.8685 19.2269C60.9653 19.2269 60.294 19.5076 59.8546 20.069C59.4153 20.6244 59.1956 21.4391 59.1956 22.5131C59.1956 23.5139 59.4153 24.2889 59.8546 24.8382C60.294 25.3874 60.9348 25.662 61.7769 25.662C62.3201 25.662 62.7869 25.543 63.1775 25.305C63.5741 25.0609 63.8793 24.71 64.0929 24.2523L66.2715 24.9114C65.8931 25.8024 65.3073 26.495 64.5139 26.9893C63.7267 27.4836 62.8571 27.7308 61.9051 27.7308ZM58.4999 23.1264V21.4604H65.3012V23.1264H58.4999Z" fill="#3D3D3D"/>
<path d="M49.7379 27.4561L45.582 14.2746H47.8522L51.3306 25.3141L54.8549 14.2746H57.125L52.9692 27.4561H49.7379Z" fill="#3D3D3D"/>
<defs>
<clipPath id="clip0_80_274">
<rect width="30.6393" height="28" fill="white" transform="translate(9.33398 7)"/>
</clipPath>
</defs>
</svg>
