<svg width="126" height="42" viewBox="0 0 126 42" fill="none" xmlns="http://www.w3.org/2000/svg">
<g clip-path="url(#clip0_80_290)">
<path d="M12.834 29.9973V35L29.9545 27.3482V22.3455L12.834 29.9973Z" fill="#3D3D3D"/>
<path d="M12.834 12.0027V7L29.9545 14.6518V19.6545L12.834 12.0027Z" fill="#3D3D3D"/>
<path d="M12.834 19.657V14.6543L29.9545 22.3061V27.3113L12.834 19.657Z" fill="#3D3D3D"/>
</g>
<path d="M105.303 31.0268L107.37 25.352L107.409 27.0217L102.729 15.5229H105.223L108.542 24.0302H107.906L111.136 15.5229H113.532L107.549 31.0268H105.303Z" fill="#3D3D3D"/>
<path d="M96.1552 31.325C95.5589 31.325 94.9858 31.2323 94.4359 31.0468C93.8926 30.8612 93.4023 30.5929 92.965 30.2418C92.5277 29.8972 92.1699 29.4798 91.8916 28.9895L94.098 27.8963C94.3034 28.2872 94.5916 28.5754 94.9626 28.7609C95.3403 28.9531 95.7411 29.0491 96.1651 29.0491C96.6621 29.0491 97.106 28.9597 97.4969 28.7808C97.8878 28.6085 98.1893 28.3502 98.4013 28.0056C98.6199 27.6677 98.7226 27.2437 98.7094 26.7335V23.6824H99.0075V15.523H101.105V26.7733C101.105 27.0449 101.091 27.3033 101.065 27.5485C101.045 27.8002 101.008 28.0454 100.955 28.2839C100.796 28.9796 100.492 29.5494 100.041 29.9933C99.5906 30.4438 99.0307 30.7784 98.3615 30.9971C97.699 31.2157 96.9635 31.325 96.1552 31.325ZM95.9465 26.5546C94.9593 26.5546 94.098 26.3062 93.3625 25.8092C92.6271 25.3123 92.0573 24.6365 91.6531 23.7818C91.249 22.9271 91.0469 21.9631 91.0469 20.8897C91.0469 19.8031 91.249 18.8358 91.6531 17.9877C92.0639 17.133 92.6436 16.4605 93.3923 15.9702C94.141 15.4733 95.0222 15.2249 96.0359 15.2249C97.0563 15.2249 97.911 15.4733 98.6 15.9702C99.2957 16.4605 99.8225 17.133 100.18 17.9877C100.538 18.8424 100.717 19.8098 100.717 20.8897C100.717 21.9565 100.538 22.9205 100.18 23.7818C99.8225 24.6365 99.2891 25.3123 98.5802 25.8092C97.8712 26.3062 96.9933 26.5546 95.9465 26.5546ZM96.3142 24.4079C96.9569 24.4079 97.4737 24.2622 97.8646 23.9706C98.2621 23.6725 98.5504 23.2584 98.7292 22.7283C98.9148 22.1983 99.0075 21.5854 99.0075 20.8897C99.0075 20.1874 98.9148 19.5746 98.7292 19.0511C98.5504 18.5211 98.2688 18.1103 97.8845 17.8188C97.5002 17.5206 97.0033 17.3715 96.3937 17.3715C95.751 17.3715 95.221 17.5306 94.8036 17.8486C94.3862 18.16 94.0781 18.584 93.8793 19.1207C93.6805 19.6507 93.5812 20.2404 93.5812 20.8897C93.5812 21.5457 93.6772 22.142 93.8694 22.6786C94.0681 23.2087 94.3696 23.6294 94.7738 23.9408C95.1779 24.2522 95.6914 24.4079 96.3142 24.4079Z" fill="#3D3D3D"/>
<path d="M84.0938 26.2564V15.523H86.2106V18.1368L85.9522 17.7989C86.0847 17.4411 86.2603 17.1164 86.479 16.8249C86.7042 16.5268 86.9726 16.2816 87.284 16.0895C87.549 15.9106 87.8405 15.7714 88.1585 15.6721C88.4832 15.566 88.8145 15.5031 89.1524 15.4832C89.4903 15.4567 89.8183 15.47 90.1363 15.523V17.7591C89.8183 17.6664 89.4505 17.6365 89.0331 17.6697C88.6223 17.7028 88.2513 17.8187 87.92 18.0175C87.5887 18.1964 87.3171 18.425 87.1051 18.7033C86.8997 18.9815 86.7473 19.2996 86.6479 19.6573C86.5485 20.0085 86.4988 20.3895 86.4988 20.8003V26.2564H84.0938Z" fill="#3D3D3D"/>
<path d="M77.0151 26.5546C75.9285 26.5546 74.9744 26.3194 74.1529 25.849C73.3313 25.3786 72.6886 24.726 72.2248 23.8911C71.7676 23.0563 71.5391 22.0956 71.5391 21.009C71.5391 19.8363 71.7643 18.8192 72.2149 17.9579C72.6654 17.09 73.2915 16.4175 74.0932 15.9404C74.8949 15.4634 75.8225 15.2249 76.876 15.2249C77.9891 15.2249 78.9332 15.4866 79.7084 16.01C80.4902 16.5268 81.07 17.2589 81.4476 18.2064C81.8253 19.1538 81.9677 20.2702 81.875 21.5556H79.4997V20.681C79.4931 19.5149 79.2877 18.6635 78.8835 18.1269C78.4794 17.5902 77.8433 17.3219 76.9754 17.3219C75.9948 17.3219 75.266 17.6266 74.7889 18.2362C74.3119 18.8391 74.0734 19.7236 74.0734 20.8897C74.0734 21.9763 74.3119 22.8178 74.7889 23.4141C75.266 24.0104 75.9616 24.3085 76.876 24.3085C77.4657 24.3085 77.9725 24.1793 78.3965 23.9209C78.8272 23.6559 79.1585 23.2749 79.3904 22.778L81.7557 23.4936C81.3449 24.4609 80.7089 25.2129 79.8476 25.7496C78.9929 26.2863 78.0487 26.5546 77.0151 26.5546ZM73.318 21.5556V19.7468H80.7023V21.5556H73.318Z" fill="#3D3D3D"/>
<path d="M67.2915 26.2565V21.0885C67.2915 20.7506 67.2683 20.3762 67.2219 19.9655C67.1756 19.5547 67.0662 19.1604 66.894 18.7828C66.7283 18.3985 66.4766 18.0838 66.1387 17.8386C65.8074 17.5935 65.3568 17.4709 64.787 17.4709C64.4823 17.4709 64.1808 17.5206 63.8826 17.62C63.5845 17.7194 63.3128 17.8916 63.0677 18.1368C62.8292 18.3753 62.637 18.7066 62.4913 19.1306C62.3455 19.548 62.2726 20.0847 62.2726 20.7406L60.8514 20.1344C60.8514 19.2201 61.027 18.3919 61.3782 17.6498C61.736 16.9077 62.2594 16.3181 62.9484 15.8808C63.6375 15.4369 64.4856 15.2149 65.4927 15.2149C66.2877 15.2149 66.9437 15.3474 67.4605 15.6124C67.9773 15.8775 68.388 16.2154 68.6928 16.6262C68.9976 17.0369 69.2229 17.4742 69.3686 17.938C69.5144 18.4018 69.6072 18.8424 69.6469 19.2598C69.6933 19.6706 69.7165 20.0052 69.7165 20.2636V26.2565H67.2915ZM59.8477 26.2565V15.523H61.9844V18.8524H62.2726V26.2565H59.8477Z" fill="#3D3D3D"/>
<path d="M50.1561 31.0268L52.2233 25.352L52.263 27.0217L47.582 15.5229H50.0766L53.396 24.0302H52.7599L55.9899 15.5229H58.3851L52.4021 31.0268H50.1561Z" fill="#3D3D3D"/>
<path d="M41.1733 26.5546C40.1264 26.5546 39.1823 26.3724 38.3408 26.008C37.506 25.6436 36.817 25.1235 36.2737 24.4477C35.737 23.7652 35.3958 22.9569 35.25 22.0227L37.7346 21.645C37.9466 22.4931 38.3806 23.149 39.0365 23.6128C39.6991 24.0766 40.461 24.3085 41.3224 24.3085C41.8325 24.3085 42.3129 24.229 42.7634 24.07C43.214 23.911 43.5784 23.6791 43.8566 23.3743C44.1415 23.0695 44.284 22.6952 44.284 22.2513C44.284 22.0525 44.2509 21.8703 44.1846 21.7047C44.1184 21.5324 44.019 21.38 43.8865 21.2475C43.7606 21.115 43.5949 20.9957 43.3895 20.8897C43.1908 20.7771 42.9589 20.681 42.6939 20.6015L38.9968 19.5083C38.6787 19.4155 38.3342 19.2929 37.9632 19.1406C37.5988 18.9815 37.2509 18.7662 36.9196 18.4946C36.595 18.2163 36.3267 17.8651 36.1146 17.4411C35.9092 17.0104 35.8065 16.4804 35.8065 15.851C35.8065 14.93 36.0384 14.1581 36.5022 13.5353C36.9727 12.9059 37.6021 12.4355 38.3905 12.1241C39.1856 11.8127 40.0668 11.6603 41.0341 11.6669C42.0147 11.6735 42.8893 11.8425 43.6579 12.1738C44.4264 12.4984 45.0691 12.9721 45.5859 13.5949C46.1027 14.2177 46.4671 14.9698 46.6791 15.851L44.1051 16.2982C43.9991 15.7946 43.7937 15.3673 43.4889 15.0161C43.1908 14.6583 42.823 14.3867 42.3858 14.2012C41.9551 14.0157 41.4946 13.9163 41.0043 13.903C40.5273 13.8964 40.0834 13.9693 39.6726 14.1217C39.2684 14.2674 38.9405 14.4795 38.6887 14.7577C38.4435 15.036 38.321 15.3607 38.321 15.7317C38.321 16.0829 38.427 16.3711 38.639 16.5963C38.851 16.815 39.1127 16.9906 39.4241 17.1231C39.7422 17.249 40.0635 17.355 40.3881 17.4411L42.9522 18.1567C43.3034 18.2494 43.6976 18.3753 44.1349 18.5343C44.5722 18.6933 44.9929 18.9153 45.3971 19.2002C45.8013 19.4851 46.1325 19.8594 46.3909 20.3232C46.656 20.787 46.7885 21.3767 46.7885 22.0923C46.7885 22.8343 46.6328 23.4869 46.3214 24.0501C46.0166 24.6067 45.6025 25.0705 45.0791 25.4415C44.5556 25.8125 43.956 26.0908 43.2802 26.2763C42.611 26.4618 41.9087 26.5546 41.1733 26.5546Z" fill="#3D3D3D"/>
<defs>
<clipPath id="clip0_80_290">
<rect width="17.1206" height="28" fill="white" transform="translate(12.834 7)"/>
</clipPath>
</defs>
</svg>
