<svg width="126" height="42" viewBox="0 0 126 42" fill="none" xmlns="http://www.w3.org/2000/svg">
<g clip-path="url(#clip0_80_305)">
<path d="M33.7321 34.759C33.7321 34.8989 33.6054 35 33.4654 35C32.2566 35 31.0646 35 29.8689 35C29.3534 35 28.9355 34.5821 28.9355 34.0667C28.9355 30.0212 28.9355 25.9857 28.9355 21.9192C28.9355 21.7105 29.1531 21.5727 29.3373 21.6709C30.7031 22.4582 32.069 23.2537 33.4348 24.033C33.6196 24.1374 33.7401 24.2339 33.7401 24.4829C33.7321 27.9056 33.7321 31.3283 33.7321 34.759Z" fill="#3D3D3D"/>
<path d="M28.3901 18.9356C28.3901 19.6545 27.6114 20.1037 26.9889 19.7441C25.8953 19.1121 24.8208 18.4914 23.7542 17.8706C23.6739 17.8224 23.6016 17.6858 23.6016 17.5894C23.6016 14.0864 23.6016 10.5834 23.6096 7.08037C23.6096 7.03467 23.6645 7.00806 23.7102 7.00806C24.9527 7.00806 26.2002 7.00806 27.4567 7.00806C27.9722 7.00806 28.3901 7.42593 28.3901 7.94139C28.3901 11.5951 28.3901 15.2426 28.3901 18.9356Z" fill="#3D3D3D"/>
<path d="M30.3121 19.7528C29.6897 20.1123 28.9109 19.6632 28.9104 18.9445C28.9095 17.691 28.9106 16.4692 28.9275 15.2514C28.9275 15.1068 29.0962 14.9059 29.2409 14.8175C31.8761 13.2829 34.5195 11.7644 37.1548 10.2379C37.2617 10.1761 37.3679 10.1143 37.4749 10.0521C37.9155 9.79598 38.4771 9.94852 38.7323 10.3896C39.2252 11.2411 39.7154 12.0931 40.2143 12.9568C40.4722 13.4033 40.3201 13.9745 39.8738 14.2327C36.694 16.0725 33.5212 17.8995 30.3121 19.7528Z" fill="#3D3D3D"/>
<path d="M19.1574 32.3433C19.0908 32.3641 19.0121 32.3375 18.9772 32.2771C18.3553 31.2028 17.7379 30.1326 17.1095 29.0435C16.8518 28.597 17.0049 28.0261 17.4514 27.7685C20.8821 25.7888 24.3047 23.8128 27.7734 21.8078C28.0577 21.6435 28.4134 21.8486 28.4134 22.1771C28.4134 23.6795 28.4214 25.1739 28.4053 26.6763C28.4053 26.829 28.3089 27.054 28.1884 27.1182C25.1878 28.8672 22.1792 30.6002 19.1786 32.3332C19.1701 32.3381 19.1669 32.3403 19.1574 32.3433Z" fill="#3D3D3D"/>
<path d="M30.5691 21.8113C29.9466 21.4524 29.9455 20.5537 30.567 20.1931C31.1909 19.831 31.8026 19.4761 32.4143 19.1239C32.7597 18.9231 33.1293 18.7544 33.4507 18.5133C33.8283 18.2321 34.1336 18.2884 34.5273 18.5133C37.3554 20.1684 40.1916 21.7994 43.0277 23.4384C43.1978 23.5466 43.2534 23.7696 43.1529 23.9442C42.5705 24.9552 41.9874 25.9635 41.3974 26.9849C41.1396 27.4312 40.5689 27.5843 40.1225 27.3266C36.9437 25.4919 33.7765 23.6606 30.5691 21.8113Z" fill="#3D3D3D"/>
<path d="M26.7611 20.1957C27.3823 20.5552 27.382 21.4524 26.7608 21.8118C25.6611 22.448 24.5871 23.0677 23.5052 23.6795C23.4168 23.7277 23.2401 23.7197 23.1437 23.6634C20.1308 21.936 17.1179 20.1925 14.113 18.4491C14.0317 18.4084 14.0322 18.2899 14.0777 18.2113C14.6934 17.1474 15.305 16.0874 15.9273 15.0089C16.1853 14.5618 16.7573 14.4091 17.2039 14.6679C20.3892 16.5137 23.5577 18.3419 26.7611 20.1957Z" fill="#3D3D3D"/>
</g>
<path d="M108.166 27.6735C107.437 27.6735 106.82 27.5364 106.316 27.2623C105.811 26.9819 105.428 26.6113 105.166 26.1502C104.911 25.6892 104.783 25.1814 104.783 24.627C104.783 24.141 104.864 23.7049 105.026 23.3186C105.188 22.9262 105.437 22.5897 105.774 22.3094C106.11 22.0228 106.546 21.7892 107.082 21.6085C107.487 21.4777 107.961 21.3593 108.503 21.2534C109.051 21.1475 109.643 21.0509 110.278 20.9637C110.92 20.8702 111.59 20.7705 112.287 20.6646L111.484 21.1225C111.49 20.4248 111.334 19.9108 111.016 19.5806C110.699 19.2504 110.163 19.0853 109.409 19.0853C108.954 19.0853 108.515 19.1912 108.091 19.403C107.668 19.6149 107.372 19.9793 107.204 20.4964L105.148 19.8516C105.397 18.9981 105.87 18.3128 106.568 17.7957C107.272 17.2786 108.219 17.02 109.409 17.02C110.306 17.02 111.094 17.1664 111.773 17.4592C112.459 17.7521 112.966 18.2318 113.297 18.8984C113.477 19.2535 113.586 19.618 113.624 19.9918C113.661 20.3594 113.68 20.7612 113.68 21.1973V27.3931H111.708V25.2064L112.035 25.5615C111.58 26.2904 111.048 26.8262 110.437 27.1688C109.833 27.5053 109.076 27.6735 108.166 27.6735ZM108.615 25.8792C109.126 25.8792 109.562 25.7889 109.923 25.6082C110.284 25.4275 110.571 25.2064 110.783 24.9447C111.001 24.683 111.147 24.437 111.222 24.2064C111.34 23.9199 111.406 23.5928 111.418 23.2252C111.437 22.8514 111.446 22.5492 111.446 22.3187L112.138 22.5243C111.459 22.6302 110.876 22.7237 110.39 22.8047C109.904 22.8857 109.487 22.9635 109.138 23.0383C108.789 23.1068 108.481 23.1847 108.213 23.2719C107.951 23.3654 107.73 23.4744 107.549 23.599C107.369 23.7236 107.229 23.8669 107.129 24.0289C107.035 24.1909 106.989 24.3809 106.989 24.5989C106.989 24.8481 107.051 25.0693 107.176 25.2624C107.3 25.4493 107.481 25.5989 107.718 25.711C107.961 25.8231 108.26 25.8792 108.615 25.8792Z" fill="#3D3D3D"/>
<path d="M100.653 27.3931V21.2627C100.653 20.5712 100.482 20.0323 100.139 19.646C99.7964 19.2535 99.3322 19.0572 98.7466 19.0572C98.3853 19.0572 98.0613 19.1413 97.7747 19.3096C97.4881 19.4715 97.2607 19.7145 97.0925 20.0385C96.9243 20.3562 96.8402 20.7363 96.8402 21.1786L95.8403 20.5898C95.834 19.8921 95.9898 19.2784 96.3075 18.7489C96.6315 18.2131 97.0676 17.7956 97.6158 17.4966C98.1641 17.1976 98.7746 17.048 99.4475 17.048C100.563 17.048 101.416 17.3845 102.008 18.0573C102.606 18.7239 102.905 19.6024 102.905 20.6926V27.3931H100.653ZM88.5137 27.3931V17.3004H90.5042V20.431H90.7845V27.3931H88.5137ZM94.5974 27.3931V21.2907C94.5974 20.5867 94.426 20.0385 94.0834 19.646C93.7407 19.2535 93.2735 19.0572 92.6816 19.0572C92.1084 19.0572 91.6474 19.2535 91.2985 19.646C90.9559 20.0385 90.7845 20.5493 90.7845 21.1786L89.7753 20.5057C89.7753 19.8516 89.9372 19.2628 90.2612 18.7395C90.5852 18.2162 91.0213 17.805 91.5695 17.5059C92.124 17.2007 92.7439 17.048 93.4292 17.048C94.1831 17.048 94.8123 17.21 95.3169 17.534C95.8278 17.8517 96.2078 18.2878 96.457 18.8423C96.7125 19.3906 96.8402 20.0104 96.8402 20.702V27.3931H94.5974Z" fill="#3D3D3D"/>
<path d="M81.2584 32.1592C80.6977 32.1592 80.1588 32.0719 79.6417 31.8975C79.1308 31.7231 78.6698 31.4707 78.2586 31.1405C77.8474 30.8166 77.511 30.4241 77.2494 29.963L79.324 28.9351C79.5171 29.3027 79.7881 29.5737 80.137 29.7481C80.4921 29.9288 80.869 30.0191 81.2678 30.0191C81.735 30.0191 82.1524 29.935 82.52 29.7668C82.8876 29.6048 83.1711 29.3618 83.3704 29.0379C83.576 28.7201 83.6726 28.3214 83.6601 27.8417V24.9727H83.9405V17.3004H85.9123V27.8791C85.9123 28.1345 85.8998 28.3775 85.8749 28.608C85.8562 28.8447 85.822 29.0753 85.7721 29.2995C85.6226 29.9537 85.336 30.4895 84.9124 30.9069C84.4887 31.3306 83.9623 31.6452 83.333 31.8508C82.71 32.0564 82.0185 32.1592 81.2584 32.1592ZM81.0622 27.6735C80.1339 27.6735 79.324 27.4399 78.6324 26.9726C77.9409 26.5053 77.4051 25.8699 77.0251 25.0662C76.645 24.2625 76.455 23.356 76.455 22.3468C76.455 21.325 76.645 20.4154 77.0251 19.618C77.4113 18.8143 77.9565 18.1819 78.6605 17.7209C79.3645 17.2536 80.1931 17.02 81.1463 17.02C82.1057 17.02 82.9094 17.2536 83.5573 17.7209C84.2115 18.1819 84.7068 18.8143 85.0432 19.618C85.3796 20.4217 85.5478 21.3312 85.5478 22.3468C85.5478 23.3498 85.3796 24.2563 85.0432 25.0662C84.7068 25.8699 84.2053 26.5053 83.5386 26.9726C82.872 27.4399 82.0465 27.6735 81.0622 27.6735ZM81.4079 25.6549C82.0123 25.6549 82.4982 25.5179 82.8658 25.2437C83.2396 24.9634 83.5106 24.574 83.6788 24.0756C83.8533 23.5772 83.9405 23.0009 83.9405 22.3468C83.9405 21.6864 83.8533 21.1101 83.6788 20.6179C83.5106 20.1195 83.2458 19.7332 82.8845 19.4591C82.5231 19.1787 82.0559 19.0386 81.4827 19.0386C80.8784 19.0386 80.38 19.1881 79.9875 19.4871C79.595 19.78 79.3053 20.1787 79.1184 20.6833C78.9315 21.1817 78.838 21.7362 78.838 22.3468C78.838 22.9635 78.9284 23.5242 79.109 24.0289C79.2959 24.5273 79.5794 24.9229 79.9594 25.2157C80.3395 25.5085 80.8223 25.6549 81.4079 25.6549Z" fill="#3D3D3D"/>
<path d="M71.9648 15.7678V13.7025H74.217V15.7678H71.9648ZM71.9648 27.3932V17.3004H74.217V27.3932H71.9648Z" fill="#3D3D3D"/>
<path d="M67.0581 27.3932V22.5337C67.0581 22.216 67.0363 21.864 66.9927 21.4777C66.9491 21.0915 66.8463 20.7208 66.6843 20.3657C66.5286 20.0043 66.2918 19.7084 65.9741 19.4779C65.6626 19.2473 65.2389 19.1321 64.7031 19.1321C64.4165 19.1321 64.1331 19.1788 63.8527 19.2723C63.5724 19.3657 63.3169 19.5277 63.0864 19.7582C62.8621 19.9825 62.6815 20.294 62.5444 20.6927C62.4073 21.0852 62.3388 21.5899 62.3388 22.2066L61.0025 21.6366C61.0025 20.7768 61.1676 19.9981 61.4977 19.3003C61.8342 18.6025 62.3264 18.0481 62.9743 17.6369C63.6222 17.2195 64.4197 17.0107 65.3666 17.0107C66.1143 17.0107 66.731 17.1353 67.217 17.3845C67.7029 17.6338 68.0892 17.9515 68.3758 18.3378C68.6624 18.724 68.8742 19.1352 69.0112 19.5713C69.1483 20.0074 69.2355 20.4217 69.2729 20.8142C69.3165 21.2005 69.3383 21.5151 69.3383 21.7581V27.3932H67.0581ZM60.0586 27.3932V17.3004H62.0678V20.4311H62.3388V27.3932H60.0586Z" fill="#3D3D3D"/>
<path d="M49.1445 27.3931V13.9361H57.8355V16.0481H51.3967V19.3656H56.7141V21.4776H51.3967V25.2811H57.8355V27.3931H49.1445Z" fill="#3D3D3D"/>
<defs>
<clipPath id="clip0_80_305">
<rect width="29.3337" height="28" fill="white" transform="translate(14 7)"/>
</clipPath>
</defs>
</svg>
