<svg width="126" height="42" viewBox="0 0 126 42" fill="none" xmlns="http://www.w3.org/2000/svg">
<g clip-path="url(#clip0_80_322)">
<path d="M24.2164 34.9231C24.1632 34.963 24.0847 34.9143 24.0834 34.8479C23.9013 25.4724 16.6839 17.2272 6.19512 16.7907C6.05762 16.785 5.97526 16.6151 6.07256 16.5178C9.17855 13.4119 12.2845 10.3059 15.3828 7.19219C15.5597 7.01537 15.7134 6.96155 15.9518 7.02305C24.1242 9.12959 29.9671 13.8885 32.9732 21.8841C33.3499 22.8836 33.5728 23.9445 33.8496 24.9824C33.8804 25.0977 33.8342 25.2976 33.7497 25.3822C30.5745 28.5651 27.3993 31.7479 24.2164 34.9231Z" fill="#3D3D3D"/>
<path d="M5.97266 21C6.73378 20.2004 7.4949 19.3778 8.29446 18.5859C8.40978 18.4706 8.70193 18.4783 8.89413 18.5167C10.6163 18.8396 12.2461 19.4547 13.7837 20.2927C18.4581 22.8682 21.2643 26.8122 22.3636 32.0093C22.4252 32.3015 22.3713 32.5014 22.1561 32.7243C21.418 33.447 20.703 34.2004 19.9727 34.9462C19.9573 34.9616 19.9342 34.9692 19.8804 35C19.7189 31.1944 18.535 27.8116 15.775 25.1208C13.0303 22.4454 9.67831 21.1922 5.97266 21Z" fill="#3D3D3D"/>
<path d="M15.6363 34.9846C15.4364 28.6573 10.3623 25.313 5.83398 25.2208C5.95699 25.0901 6.03387 24.9901 6.12613 24.8979C6.75655 24.2828 7.40235 23.6755 8.0174 23.0374C8.27111 22.7683 8.50944 22.7068 8.8554 22.8067C13.4144 24.0906 16.4589 26.9429 17.935 31.4712C18.1657 32.1939 18.1195 32.6936 17.5045 33.1933C16.8433 33.7238 16.2667 34.3696 15.6363 34.9846Z" fill="#3D3D3D"/>
<path d="M11.4235 34.9231C11.2313 31.7018 8.85565 29.626 5.84961 29.4262C5.93418 29.3262 6.00337 29.2416 6.07256 29.1648C6.73374 28.519 7.39491 27.8808 8.0484 27.2274C8.21754 27.0505 8.36361 27.0275 8.58657 27.112C11.1544 28.0423 12.8304 29.849 13.776 32.3707C13.8145 32.4629 13.7991 32.6398 13.7376 32.7013C12.9611 33.4547 12.1846 34.1928 11.4235 34.9231Z" fill="#3D3D3D"/>
</g>
<path d="M119.61 27.7159V21.9642C119.61 21.3154 119.45 20.8098 119.128 20.4474C118.807 20.0791 118.371 19.895 117.822 19.895C117.483 19.895 117.179 19.9739 116.91 20.1317C116.641 20.2837 116.428 20.5117 116.27 20.8156C116.112 21.1137 116.033 21.4703 116.033 21.8853L115.095 21.3329C115.089 20.6782 115.235 20.1025 115.533 19.6056C115.837 19.1029 116.246 18.7113 116.761 18.4307C117.275 18.1502 117.848 18.0099 118.479 18.0099C119.526 18.0099 120.326 18.3255 120.882 18.9568C121.443 19.5823 121.723 20.4064 121.723 21.4294V27.7159H119.61ZM108.221 27.7159V18.2466H110.088V21.1839H110.351V27.7159H108.221ZM113.929 27.7159V21.9905C113.929 21.33 113.768 20.8156 113.447 20.4474C113.125 20.0791 112.687 19.895 112.131 19.895C111.594 19.895 111.161 20.0791 110.834 20.4474C110.512 20.8156 110.351 21.2949 110.351 21.8853L109.405 21.254C109.405 20.6402 109.557 20.0879 109.86 19.5969C110.164 19.1059 110.574 18.7201 111.088 18.4395C111.608 18.1531 112.19 18.0099 112.833 18.0099C113.54 18.0099 114.13 18.1619 114.604 18.4658C115.083 18.7639 115.44 19.1731 115.674 19.6933C115.913 20.2077 116.033 20.7893 116.033 21.4381V27.7159H113.929Z" fill="#3D3D3D"/>
<path d="M100.812 27.9877C100.111 27.9877 99.5324 27.8708 99.0764 27.637C98.6205 27.4032 98.2581 27.1051 97.9892 26.7427C97.7203 26.3802 97.5216 25.9945 97.393 25.5853C97.2644 25.1761 97.1796 24.7903 97.1387 24.4279C97.1037 24.0597 97.0861 23.7616 97.0861 23.5336V18.2466H99.2255V22.8059C99.2255 23.0981 99.2459 23.4284 99.2869 23.7966C99.3278 24.1591 99.4213 24.5098 99.5674 24.8488C99.7194 25.182 99.9415 25.4567 100.234 25.673C100.532 25.8892 100.932 25.9974 101.435 25.9974C101.704 25.9974 101.97 25.9535 102.233 25.8659C102.496 25.7782 102.733 25.6291 102.943 25.4187C103.159 25.2024 103.332 24.9072 103.46 24.5331C103.589 24.1591 103.653 23.6856 103.653 23.1128L104.907 23.6476C104.907 24.4542 104.749 25.1849 104.434 25.8396C104.124 26.4942 103.665 27.0174 103.057 27.409C102.449 27.7948 101.701 27.9877 100.812 27.9877ZM103.908 27.7159V24.7786H103.653V18.2466H105.775V27.7159H103.908Z" fill="#3D3D3D"/>
<path d="M90.258 27.716V18.2467H92.1256V20.5526L91.8976 20.2545C92.0145 19.9389 92.1694 19.6524 92.3623 19.3952C92.561 19.1322 92.7978 18.9159 93.0725 18.7464C93.3063 18.5886 93.5635 18.4658 93.8441 18.3782C94.1305 18.2846 94.4227 18.2291 94.7208 18.2116C95.0189 18.1882 95.3083 18.1999 95.5889 18.2467V20.2194C95.3083 20.1376 94.9839 20.1113 94.6156 20.1405C94.2532 20.1697 93.9259 20.272 93.6336 20.4474C93.3414 20.6052 93.1017 20.8069 92.9147 21.0524C92.7335 21.2979 92.599 21.5784 92.5113 21.8941C92.4237 22.2039 92.3798 22.54 92.3798 22.9024V27.716H90.258Z" fill="#3D3D3D"/>
<path d="M88.2215 27.7159C87.5961 27.8328 86.9823 27.8825 86.3803 27.865C85.7841 27.8533 85.2492 27.7452 84.7758 27.5406C84.3023 27.3302 83.9428 26.9999 83.6973 26.5498C83.481 26.1406 83.3671 25.7227 83.3554 25.296C83.3437 24.8693 83.3378 24.3871 83.3378 23.8493V15.6163H85.4421V23.7266C85.4421 24.1065 85.445 24.4397 85.4509 24.7261C85.4626 25.0125 85.524 25.2463 85.635 25.4275C85.8454 25.7782 86.1815 25.9741 86.6433 26.015C87.1051 26.0559 87.6312 26.0325 88.2215 25.9448V27.7159ZM81.6193 19.9038V18.2466H88.2215V19.9038H81.6193Z" fill="#3D3D3D"/>
<path d="M76.697 27.979C75.7208 27.979 74.8879 27.7627 74.1981 27.3301C73.5084 26.8917 72.9794 26.2955 72.6112 25.5415C72.2487 24.7875 72.0646 23.934 72.0588 22.9813C72.0646 22.011 72.2546 21.1517 72.6287 20.4035C73.0086 19.6495 73.5464 19.0591 74.242 18.6324C74.9376 18.1999 75.7647 17.9836 76.7233 17.9836C77.7988 17.9836 78.7077 18.2554 79.4501 18.799C80.1983 19.3368 80.6864 20.0733 80.9143 21.0085L78.81 21.5784C78.6464 21.0699 78.3746 20.6753 77.9946 20.3947C77.6147 20.1083 77.1821 19.9651 76.697 19.9651C76.1475 19.9651 75.6945 20.0966 75.338 20.3597C74.9814 20.6169 74.7184 20.9734 74.5489 21.4294C74.3793 21.8853 74.2946 22.4026 74.2946 22.9813C74.2946 23.8814 74.4962 24.6092 74.8996 25.1645C75.3029 25.7198 75.902 25.9974 76.697 25.9974C77.2581 25.9974 77.6994 25.8688 78.0209 25.6116C78.3483 25.3544 78.5938 24.9833 78.7574 24.4981L80.9143 24.9803C80.6221 25.9448 80.1106 26.6872 79.3799 27.2074C78.6493 27.7218 77.755 27.979 76.697 27.979Z" fill="#3D3D3D"/>
<path d="M66.341 27.979C65.3824 27.979 64.5407 27.7715 63.8159 27.3564C63.0911 26.9414 62.5241 26.3657 62.1149 25.6292C61.7116 24.8927 61.5099 24.0451 61.5099 23.0865C61.5099 22.0519 61.7087 21.1546 62.1062 20.3947C62.5036 19.629 63.056 19.0357 63.7633 18.6149C64.4706 18.194 65.2889 17.9836 66.2183 17.9836C67.2003 17.9836 68.0332 18.2145 68.7171 18.6762C69.4069 19.1322 69.9183 19.7781 70.2515 20.6139C70.5847 21.4498 70.7104 22.4347 70.6285 23.5687H68.533V22.7971C68.5272 21.7684 68.346 21.0173 67.9894 20.5438C67.6328 20.0703 67.0717 19.8336 66.306 19.8336C65.4409 19.8336 64.7979 20.1025 64.377 20.6402C63.9562 21.1722 63.7458 21.9525 63.7458 22.9813C63.7458 23.9399 63.9562 24.6822 64.377 25.2083C64.7979 25.7344 65.4117 25.9974 66.2183 25.9974C66.7385 25.9974 67.1857 25.8834 67.5598 25.6555C67.9397 25.4217 68.232 25.0856 68.4366 24.6472L70.5233 25.2785C70.1609 26.1319 69.5998 26.7953 68.8399 27.2688C68.0859 27.7422 67.2529 27.979 66.341 27.979ZM63.0794 23.5687V21.973H69.5939V23.5687H63.0794Z" fill="#3D3D3D"/>
<path d="M55.7811 27.979C54.8576 27.979 54.0831 27.7598 53.4577 27.3214C52.8322 26.883 52.3617 26.2868 52.046 25.5327C51.7304 24.7728 51.5726 23.9224 51.5726 22.9813C51.5726 22.0285 51.7304 21.1751 52.046 20.421C52.3617 19.667 52.8234 19.0737 53.4313 18.6412C54.0451 18.2028 54.8021 17.9836 55.7022 17.9836C56.5965 17.9836 57.371 18.2028 58.0257 18.6412C58.6862 19.0737 59.1977 19.667 59.5601 20.421C59.9225 21.1692 60.1037 22.0226 60.1037 22.9813C60.1037 23.9282 59.9254 24.7787 59.5689 25.5327C59.2123 26.2868 58.7096 26.883 58.0608 27.3214C57.412 27.7598 56.6521 27.979 55.7811 27.979ZM51.2131 31.9245V18.2466H53.0806V24.8927H53.3437V31.9245H51.2131ZM55.4567 26.0851C56.0062 26.0851 56.4592 25.9477 56.8157 25.673C57.1723 25.3983 57.4353 25.0271 57.6049 24.5595C57.7802 24.086 57.8679 23.5599 57.8679 22.9813C57.8679 22.4084 57.7802 21.8882 57.6049 21.4206C57.4295 20.9471 57.1577 20.573 56.7894 20.2983C56.4212 20.0177 55.9536 19.8774 55.3866 19.8774C54.8488 19.8774 54.4104 20.009 54.0714 20.272C53.7324 20.5292 53.481 20.8916 53.3174 21.3592C53.1595 21.821 53.0806 22.3617 53.0806 22.9813C53.0806 23.595 53.1595 24.1357 53.3174 24.6033C53.481 25.0709 53.7353 25.4363 54.0802 25.6993C54.4309 25.9565 54.8897 26.0851 55.4567 26.0851Z" fill="#3D3D3D"/>
<path d="M44.3782 27.9789C43.4546 27.9789 42.6217 27.8182 41.8793 27.4967C41.1428 27.1752 40.5349 26.7164 40.0556 26.1202C39.5822 25.5181 39.2811 24.805 39.1525 23.9808L41.3445 23.6476C41.5315 24.3958 41.9144 24.9745 42.4931 25.3836C43.0776 25.7928 43.7498 25.9974 44.5097 25.9974C44.9598 25.9974 45.3836 25.9273 45.781 25.787C46.1785 25.6467 46.5 25.4421 46.7455 25.1732C46.9969 24.9043 47.1225 24.5741 47.1225 24.1825C47.1225 24.0071 47.0933 23.8463 47.0348 23.7002C46.9764 23.5482 46.8887 23.4138 46.7718 23.2969C46.6607 23.18 46.5146 23.0748 46.3334 22.9813C46.1581 22.8819 45.9535 22.7971 45.7197 22.727L42.458 21.7625C42.1774 21.6807 41.8735 21.5725 41.5462 21.4381C41.2247 21.2978 40.9178 21.1079 40.6255 20.8682C40.3391 20.6227 40.1024 20.3129 39.9153 19.9388C39.7341 19.5589 39.6435 19.0912 39.6435 18.5359C39.6435 17.7234 39.8481 17.0425 40.2573 16.493C40.6723 15.9377 41.2276 15.5227 41.9232 15.248C42.6246 14.9733 43.402 14.8388 44.2554 14.8447C45.1205 14.8505 45.8921 14.9996 46.5701 15.2918C47.2482 15.5782 47.8152 15.9962 48.2711 16.5456C48.727 17.0951 49.0485 17.7585 49.2356 18.5359L46.9647 18.9305C46.8712 18.4863 46.69 18.1092 46.4211 17.7994C46.1581 17.4838 45.8336 17.2441 45.4479 17.0805C45.0679 16.9168 44.6617 16.8291 44.2291 16.8174C43.8083 16.8116 43.4166 16.8759 43.0542 17.0103C42.6977 17.1389 42.4083 17.326 42.1862 17.5715C41.9699 17.817 41.8618 18.1034 41.8618 18.4307C41.8618 18.7405 41.9553 18.9948 42.1424 19.1935C42.3294 19.3864 42.5603 19.5413 42.835 19.6582C43.1156 19.7693 43.3991 19.8628 43.6855 19.9388L45.9476 20.5701C46.2574 20.6519 46.6052 20.763 46.991 20.9033C47.3768 21.0436 47.748 21.2394 48.1045 21.4907C48.4611 21.7421 48.7533 22.0723 48.9813 22.4815C49.2151 22.8907 49.332 23.4109 49.332 24.0422C49.332 24.6968 49.1947 25.2726 48.9199 25.7694C48.6511 26.2604 48.2857 26.6696 47.824 26.9969C47.3622 27.3243 46.8332 27.5698 46.237 27.7334C45.6466 27.8971 45.027 27.9789 44.3782 27.9789Z" fill="#3D3D3D"/>
<defs>
<clipPath id="clip0_80_322">
<rect width="28.0231" height="28" fill="white" transform="translate(5.83398 7)"/>
</clipPath>
</defs>
</svg>
