<svg width="67" height="78" viewBox="0 0 67 78" fill="none" xmlns="http://www.w3.org/2000/svg">
<path d="M50.0455 23.8659C50.2978 10.9274 40.9374 2.96776 28.6428 1.6998C15.6644 0.372091 -2.12026 10.9938 2.42051 29.7809C5.07593 40.6681 11.5286 41.5378 19.548 50.4069C24.6132 56.0098 27.0495 64.3478 35.3079 62.7612C45.2657 60.8891 43.1547 52.3918 45.7039 42.7393C47.7485 35.0253 49.9194 30.1593 50.0455 23.8659Z" fill="#f7f700"/>
<path d="M45.287 46.4833C39.226 44.598 24.9664 45.2286 20.6779 52.458L27.1239 60.577L30.3104 62.469L33.3774 62.9602L36.7697 62.2366L41.4167 59.8335L42.7776 57.9547L44.5103 52.0663L45.287 46.4833Z" fill="#E88128"/>
<path d="M24.4215 40.8472C20.5868 40.8472 16.9091 39.3239 14.1976 36.6123C11.486 33.9008 9.96271 30.2231 9.96271 26.3884" stroke="#FDF5A3" stroke-width="4.97346" stroke-miterlimit="10"/>
<path d="M24.2233 57.1247C23.8552 57.3026 23.5725 57.6188 23.4369 58.0044C23.3014 58.3901 23.3239 58.8137 23.4997 59.1827C23.5877 59.365 23.7107 59.5281 23.8618 59.6628C24.0128 59.7975 24.1889 59.9011 24.3801 59.9677C24.5712 60.0343 24.7736 60.0626 24.9756 60.0509C25.1777 60.0392 25.3755 59.9878 25.5577 59.8997L26.4671 59.4682C26.6494 59.3802 26.8126 59.2572 26.9473 59.1061C27.082 58.955 27.1856 58.7789 27.2522 58.5878C27.3187 58.3967 27.347 58.1943 27.3353 57.9922C27.3237 57.7902 27.2723 57.5924 27.1841 57.4102C27.0967 57.2273 26.9741 57.0635 26.8233 56.9282C26.6725 56.7928 26.4965 56.6885 26.3053 56.6213C26.1141 56.554 25.9116 56.5252 25.7092 56.5364C25.5069 56.5476 25.3087 56.5987 25.1261 56.6866L24.2233 57.1247Z" fill="#344A48"/>
<path d="M44.4038 57.4965C44.6018 57.5361 44.8055 57.5363 45.0035 57.4969C45.2015 57.4576 45.3898 57.3796 45.5575 57.2673C45.7253 57.1551 45.8693 57.0108 45.9811 56.8428C46.093 56.6748 46.1706 56.4864 46.2095 56.2883C46.2492 56.09 46.2494 55.8857 46.2102 55.6873C46.1709 55.4889 46.093 55.3002 45.9808 55.1319C45.8686 54.9636 45.7243 54.8191 45.5563 54.7065C45.3882 54.594 45.1996 54.5156 45.0013 54.476L44.0122 54.2768C43.6108 54.1987 43.1949 54.2826 42.8553 54.5103C42.5157 54.7379 42.28 55.0908 42.1998 55.4917C42.1602 55.6905 42.1603 55.8951 42.1999 56.0939C42.2396 56.2927 42.3181 56.4817 42.431 56.65C42.5439 56.8184 42.6889 56.9628 42.8577 57.0751C43.0265 57.1873 43.2158 57.2651 43.4147 57.304L44.4038 57.4965Z" fill="#344A48"/>
<path d="M23.1468 76.8147C23.1588 77.0337 23.257 77.2391 23.42 77.3859C23.5829 77.5326 23.7974 77.6089 24.0164 77.5981H26.008C26.2271 77.6089 26.4415 77.5326 26.6045 77.3859C26.7674 77.2391 26.8656 77.0337 26.8777 76.8147C26.864 76.5969 26.765 76.3933 26.6022 76.2479C26.4395 76.1025 26.226 76.0271 26.008 76.038H24.0164C23.7985 76.0271 23.585 76.1025 23.4222 76.2479C23.2594 76.3933 23.1605 76.5969 23.1468 76.8147Z" fill="#344A48"/>
<path d="M45.9054 76.5093C45.8925 76.6157 45.9014 76.7236 45.9316 76.8265C45.9618 76.9293 46.0126 77.025 46.0809 77.1076C46.1492 77.1902 46.2336 77.258 46.329 77.3069C46.4243 77.3559 46.5287 77.3849 46.6356 77.3922L48.6272 77.6644C48.8451 77.7036 49.0698 77.6562 49.2534 77.5322C49.4369 77.4082 49.5647 77.2174 49.6097 77.0005C49.6225 76.8941 49.6136 76.7862 49.5834 76.6833C49.5533 76.5805 49.5025 76.4849 49.4341 76.4023C49.3658 76.3197 49.2814 76.2518 49.1861 76.2029C49.0907 76.154 48.9864 76.1249 48.8794 76.1176L46.8879 75.8454C46.6701 75.8079 46.4462 75.8561 46.2631 75.9798C46.08 76.1035 45.9518 76.2932 45.9054 76.5093Z" fill="#344A48"/>
<path d="M35.2969 31.0617C35.3762 31.3994 35.5845 31.6927 35.8773 31.8789C36.1701 32.065 36.5241 32.1291 36.8636 32.0574C37.2014 31.9782 37.4947 31.7698 37.6808 31.477C37.8669 31.1842 37.931 30.8302 37.8594 30.4907L37.0628 26.9325C36.9835 26.5947 36.7752 26.3014 36.4824 26.1153C36.1896 25.9292 35.8355 25.8651 35.4961 25.9367C35.1583 26.0159 34.865 26.2243 34.6789 26.5171C34.4928 26.8099 34.4287 27.1639 34.5003 27.5034L35.2969 31.0617Z" fill="#344A48"/>
<path d="M20.484 35.3038C20.6027 35.6281 20.8431 35.8933 21.1542 36.0433C21.4653 36.1933 21.8226 36.2161 22.1503 36.107C22.4758 35.9896 22.7426 35.7497 22.8939 35.4385C23.0452 35.1273 23.0689 34.7692 22.9602 34.4407L21.752 30.9953C21.6333 30.6695 21.3918 30.403 21.0791 30.2529C20.7665 30.1028 20.4076 30.081 20.079 30.1921C19.7547 30.3108 19.4895 30.5512 19.3395 30.8623C19.1895 31.1734 19.1667 31.5307 19.2758 31.8583L20.484 35.3038Z" fill="#344A48"/>
<path d="M24.3422 38.1655C24.0236 39.6658 24.9729 42.2947 27.1636 42.8125C30.4364 43.5427 34.0942 42.6399 36.2783 39.7919C37.7455 37.8867 36.8692 35.0122 35.7672 34.2023C34.6718 33.3857 33.3906 33.877 32.5209 34.7001C31.8023 35.3507 30.9537 35.841 30.0312 36.1385C29.1087 36.4361 28.1335 36.5341 27.1702 36.4262C25.9089 36.2403 24.6542 36.6983 24.3422 38.192V38.1655Z" stroke="#010101" stroke-width="1.14244" stroke-miterlimit="10"/>
<path d="M49.1965 23.8727V23.3814C49.1965 23.0495 49.1965 22.5649 49.1235 21.9807C48.9939 20.2474 48.6322 18.5393 48.048 16.9022C47.6366 15.7479 47.1142 14.6363 46.488 13.5829C45.7457 12.3629 44.878 11.2237 43.8989 10.184C42.7725 9.01197 41.5164 7.97188 40.1548 7.08379C38.6303 6.10158 36.9947 5.3038 35.2821 4.70719C33.4035 4.05795 31.4605 3.61281 29.4867 3.37948L28.7166 3.29318H28.5174H28.3382H27.9266C27.442 3.29318 26.9175 3.24007 26.3931 3.25335C25.3285 3.26809 24.2662 3.35458 23.2132 3.51225C18.7121 4.17082 14.4606 5.99222 10.8788 8.79654C7.08213 11.7439 4.5286 16.0076 3.72243 20.7459C3.35115 23.1827 3.41183 25.6658 3.90167 28.0815C4.13737 29.3116 4.4545 30.5247 4.85098 31.7128C5.22079 32.8884 5.70554 34.0246 6.29819 35.1051C7.5704 37.2863 9.19697 39.2405 11.1111 40.8873C13.043 42.6731 15.0943 44.4522 17.0194 46.3376C17.9887 47.267 18.9114 48.2428 19.8143 49.2253C20.7238 50.2092 21.5708 51.249 22.3502 52.3388C23.897 54.4698 25.2313 56.6605 26.798 58.4994C27.5366 59.4068 28.4045 60.2008 29.3738 60.8561C30.2905 61.4651 31.3357 61.8536 32.4275 61.9913C33.5255 62.1076 34.6353 62.0312 35.707 61.7655C36.7682 61.5437 37.7906 61.1656 38.7408 60.6436C39.6257 60.1445 40.3967 59.4662 41.0045 58.6521C41.582 57.8147 42.0296 56.8948 42.3323 55.9236C42.8953 53.9551 43.2949 51.9434 43.5272 49.9091C43.8126 47.9175 44.0981 45.9791 44.5031 44.1468C44.908 42.3146 45.4059 40.6417 45.8308 39.0484C46.7469 35.8885 47.6232 33.1866 48.1875 30.9428C48.6543 29.2284 48.9654 27.4753 49.1169 25.7049C49.1633 25.0942 49.1832 24.6229 49.1899 24.3108C49.1965 23.9988 49.1899 23.8329 49.1899 23.8329L49.1965 23.8727ZM50.9026 23.8727C50.9026 23.8727 50.9026 24.0453 50.9026 24.3772C50.9026 24.7092 50.8628 25.2137 50.7964 25.8576C50.6106 27.7109 50.3001 29.5495 49.867 31.361C49.3359 33.6911 48.4663 36.4262 47.5369 39.553C47.0855 41.1064 46.5876 42.7859 46.2092 44.5252C45.8308 46.2645 45.5453 48.1698 45.2466 50.168C44.992 52.2967 44.5657 54.4013 43.972 56.4613C43.611 57.602 43.0782 58.681 42.392 59.6611C41.6455 60.6797 40.6933 61.5301 39.5972 62.1572C38.498 62.7746 37.3118 63.2222 36.0787 63.4849C34.8182 63.7973 33.5122 63.8827 32.2217 63.7372C30.8757 63.5674 29.5861 63.0929 28.451 62.3497C27.3435 61.6066 26.3447 60.7129 25.4836 59.6943C23.7642 57.7028 22.4033 55.5187 20.8764 53.4806C20.1308 52.4553 19.3192 51.4796 18.4467 50.5597C17.5638 49.617 16.6211 48.7341 15.6519 47.8711C13.7068 46.1384 11.5559 44.6314 9.39175 42.9652C7.08484 41.2811 5.09175 39.2049 3.50335 36.8311C1.97288 34.3759 0.937724 31.6448 0.456261 28.7919C-0.0955935 25.9727 -0.147274 23.0785 0.303577 20.2414C0.761774 17.4153 1.7748 14.7079 3.28428 12.2751C4.74499 9.93754 6.59772 7.86922 8.76109 6.16103C12.8144 2.95113 17.6621 0.900092 22.7884 0.226166C23.99 0.0687727 25.2011 -0.00663607 26.413 0.000457467C27.0105 0.000457467 27.6013 0.000459291 28.2187 0.0801219L28.6303 0.119952H28.856H29.0751L29.9248 0.232806C32.1079 0.540684 34.2514 1.08378 36.3177 1.85261C40.0109 3.15914 43.3149 5.37622 45.9237 8.29865C47.8812 10.6066 49.2906 13.3278 50.0462 16.2583C50.5396 18.0988 50.8203 19.9899 50.8827 21.8944C50.8827 22.5583 50.8827 23.0495 50.8827 23.3748C50.8827 23.7001 50.8827 23.8661 50.8827 23.8661L50.9026 23.8727Z" fill="#344A48"/>
<path d="M45.2872 46.4703C39.3125 44.7442 25.75 45.6405 21.0565 51.9404" stroke="#344A48" stroke-width="1.14244" stroke-miterlimit="10"/>
<path d="M44.6895 50.5591C39.2924 49.0986 28.0931 47.3328 23.3466 55.8699" stroke="#344A48" stroke-width="1.14244" stroke-miterlimit="10"/>
<path d="M43.7652 55.266C36.2038 53.3475 29.7113 54.5491 26.0668 59.3886" stroke="#344A48" stroke-width="1.14244" stroke-miterlimit="10"/>
<path d="M41.683 59.4155C36.0801 57.8422 31.9576 59.0039 29.7336 62.1971" stroke="#344A48" stroke-width="1.14244" stroke-miterlimit="10"/>
<path d="M19.9866 51.8009H19.7343C19.5115 51.8087 19.2896 51.8331 19.0705 51.8739L18.6589 51.9469L18.1477 52.0863C17.7444 52.2233 17.3517 52.3897 16.9727 52.5842C16.5247 52.8217 16.1021 53.1041 15.7114 53.4273C15.285 53.7709 14.9095 54.1732 14.5961 54.6222C14.2816 55.034 14.0822 55.522 14.0185 56.0363C14.0185 56.1425 14.0185 56.2553 14.0185 56.3615L14.0584 56.5076V56.5806C14.0982 56.6868 14.0053 56.4478 14.0185 56.4744V56.5341C14.0916 56.6669 14.1845 56.9125 14.2376 56.8993C14.2907 56.886 14.2974 56.9856 14.4301 57.0851C14.8729 57.4595 15.3817 57.7477 15.9304 57.9349C16.5057 58.1573 17.1017 58.3218 17.7096 58.4261C18.8052 58.619 19.9222 58.6592 21.0288 58.5456L21.6927 58.4527L22.2968 58.3266C22.6752 58.2469 22.9607 58.1208 23.2528 58.0477L24.0494 57.7224L24.9323 59.6144C24.9323 59.6144 24.5738 59.7671 23.9365 60.0061C23.6046 60.0924 23.2129 60.2385 22.7549 60.3314L22.0246 60.4774L21.2081 60.5704C19.9132 60.6894 18.6079 60.6245 17.3312 60.3779C16.5995 60.242 15.8834 60.033 15.1936 59.7538C14.4245 59.4663 13.7155 59.0387 13.1024 58.4925C12.9061 58.3152 12.7322 58.1146 12.5846 57.8951C12.4649 57.7266 12.3626 57.5464 12.2792 57.3573V57.2976C12.2792 57.2976 12.1929 57.0785 12.2328 57.1781V57.1183L12.1929 56.9391L12.1199 56.574C12.1068 56.333 12.1068 56.0914 12.1199 55.8504C12.2233 55.0114 12.5462 54.2145 13.056 53.5402C13.8633 52.4497 14.9163 51.565 16.1296 50.9578C16.6072 50.7162 17.1047 50.5163 17.6166 50.3603L18.2805 50.1877C18.4863 50.1412 18.6987 50.1147 18.878 50.0881C19.1309 50.0512 19.3858 50.029 19.6414 50.0217H19.8937L19.9866 51.8009Z" fill="#344A48"/>
<path d="M45.2009 46.2044L46.2033 46.1049C46.6455 46.0791 47.0888 46.0791 47.531 46.1049C47.7766 46.1049 48.0355 46.158 48.3077 46.2044L49.1641 46.397C49.4495 46.4899 49.7549 46.5828 50.0603 46.6957C50.3656 46.8085 50.6777 46.948 50.983 47.1139C51.6289 47.4528 52.2365 47.86 52.7954 48.3288C53.4024 48.8422 53.9362 49.4364 54.382 50.0946C54.6439 50.4791 54.8433 50.9025 54.9728 51.3493C55.0121 51.5015 55.0366 51.6571 55.0458 51.814V51.9468C55.0458 51.9866 55.0458 51.8738 55.0458 52.0464V52.2522V52.5243C55.0398 52.6317 55.0242 52.7383 54.9994 52.843C54.9466 53.0949 54.8778 53.3433 54.7936 53.5865C54.694 53.8056 54.5944 54.018 54.4882 54.2504L54.0766 54.8213C53.9306 54.9939 53.7646 55.1466 53.6053 55.3059C52.9667 55.8482 52.2328 56.2669 51.4411 56.5407C50.7496 56.7734 50.0352 56.9314 49.3101 57.012C48.9823 57.0597 48.6521 57.0885 48.321 57.0983C48.009 57.0983 47.697 57.0983 47.4115 57.0983C46.8207 57.0983 46.2962 57.0518 45.8249 57.0186L44.6167 56.8659L43.5811 56.6801L44.0192 54.6221L44.9552 54.808L46.0373 54.9607C46.4555 54.9607 46.9269 55.047 47.4381 55.047C47.697 55.047 47.9625 55.047 48.2347 55.047C48.5068 55.047 48.7857 55.047 49.0711 54.9872C49.6563 54.9249 50.2343 54.8071 50.7972 54.6354C51.3414 54.4535 51.8493 54.1771 52.2975 53.8189C52.3904 53.7259 52.4966 53.6396 52.5829 53.54C52.6692 53.4405 52.7356 53.3276 52.8153 53.228L52.9879 52.8828C53.0277 52.7766 53.041 52.677 53.0808 52.5774C53.113 52.509 53.1289 52.434 53.1273 52.3584V52.0862V51.9468V51.8804C53.1273 52.0464 53.1273 51.9269 53.1273 51.9601C53.1273 51.9601 53.1273 51.9269 53.1273 51.887C53.0509 51.6366 52.9367 51.3993 52.7887 51.1834C52.4518 50.6694 52.0452 50.2047 51.5805 49.8025C51.1349 49.4182 50.6498 49.0822 50.1333 48.8001C49.8877 48.6607 49.6288 48.5678 49.3964 48.4549L48.6728 48.2026L48.009 48.0367C47.7899 47.9968 47.5841 47.9836 47.3849 47.9504C47.0585 47.9177 46.7305 47.9022 46.4024 47.9039L45.4 47.9636L45.2009 46.2044Z" fill="#344A48"/>
<path d="M28.9425 61.6188C28.9425 61.6188 28.8362 61.8379 28.6371 62.2296C28.5346 62.4434 28.4502 62.6655 28.3848 62.8934C28.3383 63.0129 28.2919 63.1457 28.2454 63.2785C28.1989 63.4112 28.1591 63.5971 28.1126 63.7631C28.0065 64.1299 27.92 64.5022 27.8537 64.8783C27.7608 65.2767 27.6878 65.7015 27.6214 66.1529C27.482 67.0425 27.3824 68.0117 27.3027 68.981C27.1368 70.9261 27.0969 72.8844 27.0903 74.3582C27.0903 75.0884 27.0903 75.6859 27.0903 76.1307C27.0903 76.5755 27.0903 76.7945 27.0903 76.7945L24.9726 76.8543C24.9726 76.8543 24.9726 76.602 24.9726 76.1506C24.9726 75.6992 24.9726 75.0818 24.9726 74.3316C25.0058 72.8247 25.0921 70.8132 25.3112 68.8017C25.4174 67.7927 25.5435 66.8102 25.7161 65.8476C25.7891 65.3762 25.8821 64.9182 25.9883 64.4867C26.0945 64.0552 26.1941 63.6436 26.307 63.2652C26.3601 63.0727 26.4198 62.8934 26.4663 62.7208C26.5127 62.5482 26.6057 62.369 26.6654 62.2097C26.7586 61.9383 26.8717 61.6742 27.004 61.4197L27.3226 60.8156L28.9425 61.6188Z" fill="#344A48"/>
<path d="M41.3623 59.9601L41.8004 60.5708C41.9332 60.77 42.1058 60.9824 42.2917 61.3011L42.9091 62.3168L43.5729 63.5183L44.2368 64.8859C44.6617 65.8418 45.0865 66.8774 45.4716 67.9197C46.235 70.0042 46.859 72.1285 47.2839 73.7417C47.4897 74.545 47.6557 75.2155 47.7619 75.6935L47.9278 76.4502L45.6906 76.8685C45.6906 76.8685 45.6442 76.6096 45.5579 76.1581C45.4716 75.7067 45.3322 75.0495 45.1529 74.2595C44.7878 72.6928 44.2434 70.615 43.5663 68.5902C43.2277 67.5745 42.8493 66.5986 42.4709 65.656L41.8934 64.3282L41.3291 63.1864L40.8113 62.2836C40.6719 62.0114 40.486 61.7658 40.3665 61.5666L39.9483 60.9426L41.3623 59.9601Z" fill="#344A48"/>
<path d="M24.2093 38.0659C23.8708 39.5861 24.8732 42.3478 27.0838 42.8589C28.7628 43.3553 30.5536 43.3256 32.2152 42.7737C33.8767 42.2218 35.3294 41.1743 36.3778 39.772C37.8449 37.8136 36.9354 34.813 35.8069 34.0097C34.6783 33.1998 33.3373 33.7774 32.4876 34.5806C31.7635 35.2246 30.9131 35.7107 29.9907 36.0078C29.0684 36.305 28.0942 36.4068 27.1303 36.3067C25.8822 36.1208 24.5479 36.5457 24.2027 38.0659H24.2093Z" fill="white" stroke="#344A48" stroke-width="1.14244" stroke-miterlimit="10"/>
<path d="M32.2617 34.7725L35.5876 40.6675" stroke="#344A48" stroke-width="1.14244" stroke-miterlimit="10"/>
<path d="M30.1171 36.333L32.0954 42.4405" stroke="#344A48" stroke-width="1.14244" stroke-miterlimit="10"/>
<path d="M27.3893 36.333L28.166 43.1574" stroke="#344A48" stroke-width="1.14244" stroke-miterlimit="10"/>
<path d="M58.569 7.83362V6.01465C58.569 22.1264 60.149 24.8283 67 24.8283C60.149 24.8283 58.569 27.4837 58.569 43.2038C58.569 27.4638 57.0156 24.8283 50.2974 24.8283C57.0156 24.8283 58.569 22.392 58.569 7.83362Z" fill="#f7f700"/>
<path d="M16.5754 25.3133C16.501 24.754 16.5768 24.185 16.795 23.6647C17.0132 23.1444 17.3658 22.6915 17.8168 22.3525C19.1445 21.4098 20.3859 22.8836 20.6979 24.0785C20.7138 24.1384 20.7527 24.1895 20.8063 24.2206C20.8598 24.2517 20.9235 24.2603 20.9834 24.2445C21.0432 24.2286 21.0944 24.1897 21.1255 24.1361C21.1566 24.0826 21.1652 24.0189 21.1494 23.959C20.8041 22.6313 19.4698 21.0513 17.9562 21.7484C17.3029 22.0944 16.7747 22.6368 16.446 23.299C16.1172 23.9612 16.0046 24.7098 16.124 25.4394C16.1638 25.7382 16.6152 25.612 16.5754 25.3133Z" fill="#344A48"/>
<path d="M32.3282 20.0821C32.4809 18.9137 32.8792 17.9312 34.187 17.7918C35.2823 17.6789 35.8134 18.4955 36.3578 19.2921C36.5238 19.5444 36.9287 19.2921 36.7627 19.0598C36.0458 18.0042 35.2823 17.0682 33.8617 17.3603C32.441 17.6524 32.0294 18.7876 31.8701 20.0821C31.8303 20.3808 32.3016 20.3742 32.3415 20.0821H32.3282Z" fill="#344A48"/>
</svg>
