<svg width="660" height="670" viewBox="0 0 660 670" fill="none" xmlns="http://www.w3.org/2000/svg">
<mask id="mask0_6016_9203" style="mask-type:alpha" maskUnits="userSpaceOnUse" x="0" y="0" width="660" height="670">
<rect width="660" height="670" rx="10" fill="white"/>
</mask>
<g mask="url(#mask0_6016_9203)">
<path fill-rule="evenodd" clip-rule="evenodd" d="M36.654 503.176C35.8708 503.035 35.267 502.928 34.6832 502.823C34.7444 503.263 34.7938 503.609 34.8604 504.086C34.3667 503.914 34.0707 503.811 33.7303 503.693C33.8501 504.023 33.9558 504.316 34.0555 504.592L33.6821 504.965C33.3704 504.747 33.0528 504.523 32.6766 504.259L31.4169 505.518C30.0895 505.106 29.2185 505.364 29.3475 506.069C29.554 506.091 29.7892 506.056 29.9475 506.15C30.0928 506.237 30.1551 506.463 30.3616 506.807C29.7139 506.885 29.1811 506.881 28.6997 507.033C28.426 507.121 28.2336 507.465 27.91 507.788C28.3848 507.86 28.6347 507.898 28.8661 507.934C28.9995 509.298 29.0006 509.301 27.9246 509.615C27.7891 510.016 27.5019 510.424 27.5859 510.733C27.691 511.115 28.0683 511.412 27.5322 511.683C27.1647 511.596 26.8287 511.516 26.3186 511.394C26.4731 512.532 26.5961 513.441 26.7197 514.35C26.4482 514.367 26.2568 514.379 25.9853 514.397C26.0985 514.877 26.2037 515.322 26.3148 515.787C26.1419 516.26 25.9538 516.778 25.7636 517.298C26.0178 517.328 26.1929 517.348 26.3907 517.37C25.9614 518.162 25.5603 518.901 25.1473 519.663C25.3749 519.673 25.5722 519.683 25.6806 519.688C26.0812 520.61 26.4666 521.498 26.9322 522.571C27.691 521.019 26.7007 519.726 26.9278 518.393C27.1566 517.063 27.1853 515.698 27.3143 514.205L27.9772 514.868C27.9241 515.885 28.0152 516.721 27.8027 517.47C27.5804 518.258 28.0536 519.004 27.7837 519.719C27.4802 520.524 27.9702 521.193 28.0124 521.93C28.0829 523.153 28.8949 524.351 28.136 525.553C28.864 526.485 29.3843 527.453 29.3822 528.673L30.5177 529.808C30.3925 530.079 30.2841 530.312 30.173 530.553C30.8212 530.655 31.3774 530.796 31.392 531.602C31.4126 532.736 31.9465 533.653 32.7812 534.357C33.4257 534.901 33.6739 535.668 34.1341 536.308C34.481 536.79 35.0989 537.09 35.0496 537.82C35.0453 537.878 35.2583 537.951 35.3705 538.015C35.6025 537.905 35.8345 537.794 36.0632 537.685C36.1375 537.968 36.1532 538.244 36.2795 538.452C36.4188 538.683 36.641 538.879 36.8622 539.043C37.0844 539.207 37.3852 539.272 37.5858 539.453C37.7592 539.611 37.7901 539.991 37.9701 540.065C39.0102 540.497 39.8981 541.142 40.826 541.767C41.986 542.548 43.3698 542.961 44.6517 543.045C45.5986 541.78 45.8176 540.412 46.603 539.24C47.4377 537.994 47.6464 536.347 48.2551 534.929C49.408 532.244 49.4632 529.218 50.8834 526.617C50.9907 526.421 50.8525 526.09 50.8281 525.822C50.8069 525.596 50.7251 525.357 50.7728 525.146C51.3999 522.354 51.5739 519.529 51.5029 516.674C51.465 515.131 51.1446 513.652 50.7907 512.164C50.5945 511.339 50.0969 510.573 50.0541 509.766C49.9787 508.327 49.0844 507.322 48.3646 506.288C47.5819 505.162 46.5092 504.203 45.4376 503.325C44.327 502.414 42.9659 501.899 41.5415 501.676C41.1209 501.61 40.6499 501.936 40.207 501.921C39.7653 501.906 39.3311 501.69 38.8313 501.544C38.8032 501.827 38.7847 502.008 38.7631 502.221C38.382 502.232 37.9825 502.243 37.576 502.254L36.654 503.176ZM19.6479 511.416C20.184 511.769 21.1331 511.541 21.345 512.545C21.1607 512.565 20.9818 512.583 20.8062 512.602C21.1 513.355 20.8523 514.028 20.5325 514.62C20.5715 515.818 20.6604 516.965 20.6317 518.109C20.6024 519.308 20.4615 520.504 20.3661 521.734C20.2561 521.74 20.0626 521.751 19.6663 521.775C20.7829 522.779 20.8122 524.035 20.7396 525.219C21.1791 525.361 21.5499 525.48 21.9217 525.599C22.0204 525.502 22.1185 525.404 22.274 525.248C22.0659 524.941 21.848 524.62 21.5683 524.209C22.3846 523.607 22.3039 522.764 22.1217 521.843C21.8285 521.791 21.5819 521.748 21.3027 521.7C21.8968 520.755 22.1429 519.818 21.9738 518.635C21.6355 516.27 22.0778 513.906 22.5375 511.576C22.6139 511.186 22.9407 510.848 23.351 510.143C22.512 510.368 22.0708 510.485 21.6832 510.588C21.7391 510.963 21.7884 511.3 21.8643 511.808C21.0816 511.437 20.5097 511.166 19.9373 510.894C20.178 510.109 20.4181 509.324 20.6707 508.502C20.8485 508.48 21.0463 508.457 21.2664 508.431C21.5976 506.616 22.9521 505.315 23.9245 503.732C24.143 503.661 24.5132 503.543 24.8828 503.423L25.5468 504.087C25.73 503.956 25.9262 503.816 26.3349 503.525C25.8211 503.295 25.5045 503.153 25.1793 503.008C25.1788 502.847 25.1793 502.638 25.1788 502.436C25.8845 501.68 26.7013 502.288 27.6363 502.234C27.3799 501.873 27.1767 501.586 26.8937 501.187C27.574 500.16 28.8928 500.173 29.7822 499.527C30.1064 499.789 30.3644 499.997 30.9465 500.467C30.7367 499.806 30.6191 499.436 30.5698 499.282L31.8658 497.986C31.9471 498.284 32.004 498.489 32.1238 498.929C32.3623 498.538 32.5124 498.289 32.8029 497.811C32.6403 497.91 32.7184 497.837 32.8105 497.81C34.3645 497.354 35.9006 496.819 37.478 496.472C39.6157 496.002 41.8163 495.834 43.9839 496.071C45.8181 496.272 47.6096 496.832 49.4725 496.934C49.8481 496.955 50.2129 497.162 50.6048 497.29C50.6053 497.355 50.6048 497.494 50.6043 497.812C51.3214 497.513 52.0005 497.665 52.5978 498.038C54.6364 499.311 54.6288 499.323 54.9795 500.272C55.7871 500.625 56.4831 500.93 57.1704 501.23C57.017 501.689 56.9189 501.984 56.7834 502.391C57.1552 502.475 57.4674 502.545 57.6046 502.576C58.5688 503.981 59.4588 505.277 60.364 506.595C60.1722 506.835 59.9651 507.093 59.6898 507.438C60.7429 508.369 60.6833 509.665 60.647 511.144C61.1473 511.001 61.4812 510.907 61.9327 510.779C62.021 511.163 62.1061 511.536 62.2362 512.101C61.8855 511.928 61.685 511.83 61.4085 511.693C61.2649 512.042 60.9467 512.435 60.9825 512.792C61.1007 513.973 61.318 515.146 61.5646 516.308C61.627 516.603 61.9408 516.845 61.9918 516.912C61.9327 517.902 61.6497 518.779 61.885 519.483C62.5284 521.403 61.8356 523.167 61.5359 524.982C61.453 525.486 61.2725 525.973 61.1305 526.492C60.9527 526.409 60.7196 526.299 60.4714 526.182C60.4345 526.283 60.3407 526.446 60.37 526.472C60.8058 526.858 61.1863 527.255 60.7917 528.097L59.9315 528.957C59.9971 529.633 60.0768 530.455 60.1564 531.272C59.6979 531.524 59.3602 531.71 58.9689 531.924C59.5125 533.43 58.6431 534.763 58.0843 536.192C57.8843 536.214 57.6859 536.236 57.4327 536.264C57.4181 536.838 57.4024 537.436 57.3867 538.047L56.2191 539.214C56.4907 539.997 56.6327 540.73 55.6316 541.105C55.4717 541.936 55.3123 542.767 55.1649 543.54C56.578 543.149 58.1152 542.723 59.6979 542.285C59.7299 542.093 59.7618 541.899 59.796 541.694C60.2659 541.45 60.7538 541.198 61.2351 540.949L61.5576 541.271C61.6557 541.221 61.8329 541.159 61.827 541.127C61.7245 540.515 62.2275 540.261 62.5706 539.976C63.0162 539.605 63.5766 539.377 64.0542 539.04C64.4938 538.731 64.8396 538.225 65.316 538.048C65.9708 537.805 65.8461 537.123 66.2754 536.725C66.754 536.281 67.4901 536.187 67.7996 535.437C68.0451 534.842 68.6939 534.405 69.1888 533.924C70.7309 532.426 71.7564 530.578 72.7857 528.725C73.4177 527.589 74.202 526.53 74.7603 525.36C75.6476 523.504 76.5057 521.618 77.1686 519.675C77.4797 518.762 78.3269 518.018 78.1074 516.922C78.0396 516.584 78.7448 516.299 78.1767 515.86C78.0824 515.788 78.3561 515.295 78.3865 514.99C78.4271 514.576 78.3686 514.153 78.4028 513.737C78.4645 512.955 78.5627 512.177 78.6667 511.205L79.8267 512.365C79.5763 513.26 79.5763 513.26 80.2771 515.034L81.0099 514.301C80.4733 513.126 80.9292 511.803 80.7096 510.512C80.9687 510.52 81.1758 510.526 81.5308 510.537C81.6799 510.972 81.8522 511.474 82.0647 512.094C82.2219 511.918 82.5124 511.74 82.5097 511.566C82.5032 511.073 82.3764 510.582 82.2447 509.763C82.7867 510.065 83.0891 510.234 83.4577 510.439C83.8642 510.361 84.3689 510.264 85.1196 510.12C84.816 510.82 84.5889 511.344 84.3602 511.871C84.6843 512.044 85.0616 512.246 85.5223 512.492C85.4291 513.077 85.3396 513.632 85.2182 514.385C85.6925 514.25 86.0286 514.156 86.3874 514.054C86.3749 514.551 86.3641 515.035 86.3527 515.497C86.0708 515.576 85.77 515.661 85.1288 515.842C85.6925 516.179 85.9857 516.354 86.2573 516.516C86.2166 516.732 86.1603 517.032 86.1137 517.28C86.0741 517.253 85.9115 517.147 85.6161 516.952C85.4529 517.777 85.2995 518.559 85.1407 519.365C85.3922 519.377 85.589 519.387 85.5131 519.383C85.6014 519.929 85.6893 520.469 85.7906 521.099C85.4085 521.134 85.1548 521.158 84.9017 521.181C85.022 521.623 85.1407 522.063 85.2632 522.515L84.4572 523.321C84.1933 524.61 84.042 525.795 83.6919 526.918C83.3802 527.921 82.2382 528.534 82.2268 529.834C81.83 529.822 81.4202 529.81 80.9806 529.796C80.7871 530.019 80.5736 530.265 80.1535 530.749C80.766 530.527 81.0549 530.421 81.4403 530.281C80.9573 531.711 81.1801 533.437 79.2836 533.995C79.2836 534.292 79.2836 534.642 79.283 535.024C79.0998 535.039 78.9139 535.055 78.5941 535.081C78.4309 536.081 77.8624 536.824 76.671 536.987C76.6417 537.465 76.6135 537.927 76.5815 538.45C76.2368 538.631 75.8937 538.811 75.4704 539.034C75.4411 539.142 75.4482 539.462 75.2937 539.599C75.1229 539.752 74.7625 539.674 74.5581 539.809C74.273 539.996 74.0557 540.287 73.8096 540.533C73.6123 540.73 73.4427 540.973 73.2101 541.111C72.9949 541.238 72.712 541.252 72.332 541.348C72.4453 543.07 70.5217 542.652 69.7585 544.078C69.6024 543.141 69.5205 542.647 69.4387 542.155C68.9248 542.173 68.6701 543.09 68.8668 544.305C68.6582 544.169 68.495 544.063 68.295 543.934C67.3936 543.954 67.611 544.91 67.2001 545.386C66.7947 545.398 66.3871 545.41 65.9876 545.421C65.9751 545.615 65.9627 545.807 65.9464 546.069C65.7339 545.948 65.5653 545.852 65.2764 545.688C64.0162 546.379 62.6671 547.13 61.2849 547.811C60.6042 548.145 60.1743 548.015 59.7537 547.827C59.3385 548.227 59.0079 548.829 58.5759 548.915C56.1779 549.392 53.754 549.736 51.342 550.146C50.9647 550.21 50.6102 550.397 50.2373 550.5C49.7928 550.623 49.3397 550.716 48.834 550.835C48.9083 550.978 49.0172 551.191 49.202 551.551C48.3597 552.215 47.8583 553.339 46.5813 553.562C46.4263 554.053 46.2702 554.548 46.1022 555.082C44.6186 555.341 44.2376 557.289 42.7812 557.553C42.5454 557.977 42.3291 558.367 42.0917 558.795C41.7773 558.641 41.5464 558.529 41.2998 558.408C41.0662 559.295 40.4195 559.635 39.6222 560.036C38.8704 560.414 38.285 561.12 37.3289 561.076C37.3191 561.206 37.3088 561.335 37.2888 561.606C37.1208 561.632 36.9153 561.662 36.5874 561.711C36.518 561.915 36.4356 562.159 36.3662 562.364C35.564 562.854 34.7819 563.404 33.9374 563.831C32.2121 564.704 30.7237 566.032 28.7383 566.429C28.07 566.563 27.4526 567.027 26.8488 567.398C23.3066 569.579 19.352 570.567 15.3485 571.428C13.0839 571.915 10.8031 572.136 8.48591 572.024C7.72923 571.987 6.9189 571.891 6.22131 572.108C5.46084 572.343 4.85431 571.89 4.12908 571.983C2.16693 572.234 0.253029 571.624 -1.67876 571.388C-3.55635 571.16 -5.41659 570.708 -7.24919 570.222C-9.18315 569.71 -11.1805 569.253 -12.9573 568.379C-14.6327 567.556 -16.4908 567.054 -17.9765 565.839C-18.157 565.691 -18.5559 565.795 -18.7174 565.64C-19.6367 564.758 -20.898 564.431 -21.872 563.666C-22.5789 563.11 -23.1653 562.401 -23.916 561.65C-23.8851 561.224 -23.8456 560.684 -23.7984 560.027C-23.2125 559.705 -22.5328 559.333 -21.9127 558.993C-21.6748 559.144 -21.5105 559.248 -21.3338 559.36L-20.7528 558.779C-20.124 558.859 -19.5175 558.852 -18.9722 559.03C-18.4285 559.208 -17.848 559.475 -17.4518 559.871C-16.0024 561.322 -14.0029 561.669 -12.2619 562.51C-10.9968 563.122 -9.63737 563.559 -8.35114 564.166C-7.65951 564.494 -6.83888 564.557 -6.07028 564.711C-4.33633 565.057 -2.6452 565.59 -0.883063 565.82C0.0898784 565.946 1.03843 566.301 2.01137 566.378C4.1242 566.543 6.24733 566.685 8.36558 566.674C12.8319 566.653 17.0874 565.481 21.2583 564.008C22.1602 563.689 22.9662 563.075 23.7858 562.548C24.8801 561.845 26.214 561.625 27.2369 560.784C28.715 559.568 30.5942 558.949 31.9736 557.566C32.4739 557.064 33.1672 556.759 33.7542 556.338C34.3418 555.917 34.6361 555.149 35.5516 555.079C35.8638 555.056 36.1776 554.424 36.4042 554.022C37.06 552.86 37.7441 552.216 39.0054 551.685C39.0531 551.428 39.1008 551.171 39.168 550.808C39.4233 550.782 39.6786 550.743 39.9355 550.732C40.1404 550.724 40.3469 550.748 40.4748 550.753C40.4575 550.247 40.4412 549.772 40.4179 549.132C39.6276 548.852 38.6493 548.544 37.7023 548.161C36.7478 547.774 35.8421 547.265 34.8805 546.899C33.9786 546.555 33.1341 546.161 32.0777 545.407C32.1531 545.407 31.804 545.406 31.3883 545.407C30.8359 544.854 30.2717 544.242 29.6548 543.691C29.218 543.299 28.9594 542.659 28.167 542.707C27.9323 542.722 27.5236 542.31 27.4455 542.024C27.0932 540.737 25.9457 540.126 25.1826 539.195C24.5056 538.368 23.8698 537.51 24.0194 536.252C23.3456 535.672 22.7792 534.968 22.4968 534.035C22.3131 533.427 21.6984 532.884 21.6881 532.305C21.6746 531.554 21.0924 531.251 20.9054 530.729C20.5087 529.623 19.6441 528.543 20.5217 527.18C20.0756 527.119 19.8197 527.085 19.52 527.044C19.5802 526.674 19.643 526.289 19.7661 525.534C19.6631 525.3 19.4062 524.718 19.0072 523.813C18.9162 522.702 18.5107 521.169 18.7552 519.75C18.9958 518.354 18.7308 517.013 18.8761 515.668C19.0305 514.238 19.3829 512.831 19.6479 511.416Z" fill="#E4E260"/>
<path fill-rule="evenodd" clip-rule="evenodd" d="M635.534 155.085C635.148 155.746 633.565 155.494 634.143 156.91C634.182 157.009 634.028 157.306 633.923 157.33C632.621 157.635 632.517 158.912 631.96 159.785C630.869 161.499 629.95 163.321 628.876 165.047C627.79 166.79 626.977 168.673 625.435 170.181C624.327 171.265 623.633 172.852 622.997 174.319C622.316 175.889 620.772 176.773 620.102 178.278C619.177 180.357 617.167 181.662 616.315 183.774C616.284 183.852 616.249 183.944 616.186 183.992C614.184 185.513 612.998 187.764 611.25 189.515C610.595 190.173 609.566 190.571 609.576 191.738C610.035 192.357 610.766 192.082 611.336 192.285C613.069 192.902 614.925 193.162 616.554 194.076C617.536 193.446 618.13 194.659 619.107 194.619C619.931 194.587 620.996 194.961 621.809 195.413C622.623 195.867 623.653 195.474 624.325 196.223C625.636 195.808 626.507 197 627.758 197.146C629.994 197.405 632.185 198.167 634.428 198.612C635.728 198.869 636.791 198.699 637.7 198.463C638.719 197.342 638.767 196.147 638.751 195.071C638.707 192.126 638.653 189.157 638.247 186.247C637.61 181.695 637.257 177.122 636.871 172.55C636.555 168.81 636.333 165.062 636.09 161.316C635.953 159.234 636.16 157.124 635.534 155.085ZM631.525 206.835C630.748 207.044 630.091 207.219 629.436 207.394C629.411 207.318 629.388 207.239 629.363 207.162C629.312 207.012 629.235 206.725 629.212 206.73C626.95 207.131 625.262 204.854 622.958 205.382C622.811 205.047 622.775 204.427 622.314 204.498C621.457 204.629 620.844 204.529 620.585 203.611C620.538 203.443 620.374 203.371 620.224 203.536C619.413 204.433 618.823 203.823 618.038 203.409C617.309 203.025 616.355 203.094 615.519 202.885C613.279 202.327 611.231 201.115 608.907 200.868C608.159 200.789 608.36 199.585 607.272 199.817C606.768 199.926 605.855 199.931 605.21 199.339C604.694 198.868 603.857 199.068 603.153 198.778C601.869 198.248 600.476 198.42 599.337 199.424C599.294 199.261 599.25 199.098 599.206 198.936C598.175 198.727 597.69 199.052 598.011 200.162C597.683 200.25 597.355 200.337 597.024 200.427C596.95 200.198 596.875 199.969 596.802 199.75C595.837 199.666 595.287 201.049 594.37 200.614C593.612 200.256 592.862 200.082 592.14 200.036C591.61 199.316 592.669 198.953 592.342 198.353C591.954 198.369 591.534 198.735 591.13 198.032C591.383 197.448 591.519 196.617 592.523 196.413C592.09 195.425 591.34 194.791 590.409 194.241C589.431 193.664 588.644 192.871 588.909 191.505C589.111 190.473 587.785 189.741 588.444 188.531C588.539 188.488 588.828 188.356 589.109 188.207C590.187 187.633 591.226 187.327 592.601 187.755C594.755 188.424 597.16 188.334 599.268 189.095C601.045 189.735 601.833 188.684 602.736 187.836C603.358 187.253 603.961 186.534 604.454 185.852C605.979 183.742 608.04 182.055 609.255 179.715C611.022 178.746 611.259 176.593 612.694 175.32C614.089 174.084 614.444 172.022 615.694 170.713C618 168.298 619.223 165.257 620.93 162.503C622.627 159.763 624.172 156.931 625.783 154.14C627.437 151.275 629.425 148.545 630.653 145.507C631.886 142.455 633.681 139.774 635.11 136.926C636.167 136.643 637.15 136.38 637.999 136.152C638.183 136.839 638.37 137.534 638.569 138.277C639.684 137.762 640.44 138.28 640.815 138.805C642.363 140.966 643.483 143.246 643.413 146.1C643.304 150.458 643.515 154.826 643.642 159.19C643.738 162.538 643.979 165.889 644.277 169.196C644.661 173.456 644.858 177.759 645.694 181.985C646.021 183.643 645.715 185.45 646.394 187.014C646.733 187.794 645.265 188.275 646.365 189.004C647.071 189.471 646.402 190.399 646.669 191.075C646.977 191.854 646.816 192.713 647.002 193.468C647.187 194.219 646.81 194.931 647.132 195.651C647.434 196.324 647.313 197.086 647.394 197.801C647.581 199.474 647.607 201.145 647.559 202.814C647.501 204.813 646.511 206.328 644.808 207.367C644.605 207.49 644.356 207.676 644.203 207.713C643.402 207.906 643.244 209.038 642.573 209.044C640.908 209.06 639.211 209.592 637.601 209.111C636.796 208.869 636.038 208.833 635.259 208.836C634.493 208.841 634.08 208.042 633.189 208.18C632.569 208.276 631.713 207.899 631.525 206.835Z" fill="#E4E260"/>
<path opacity="0.1" fill-rule="evenodd" clip-rule="evenodd" d="M657.704 565.818C657.769 565.537 657.882 565.422 657.899 565.242C657.98 564.376 657.89 563.513 657.864 562.65C657.838 561.812 657.799 560.964 657.655 560.14C657.509 559.302 657.645 558.466 657.544 557.624C657.417 556.556 657.377 555.491 657.07 554.443C656.901 553.868 656.408 553.478 656.32 552.884C656.31 552.819 656.285 552.755 656.257 552.695C656.221 552.617 656.191 552.508 656.037 552.645C656.219 553.305 656.393 553.989 656.54 554.674C656.761 555.706 656.987 556.728 657.132 557.776C657.193 558.215 657.24 558.654 657.235 559.086C657.228 559.562 657.376 560.007 657.382 560.482C657.398 561.688 657.414 562.896 657.493 564.102C657.528 564.624 657.371 565.157 657.704 565.818ZM607.848 600.554C607.597 601.007 607.487 601.435 607.468 601.786C607.407 602.857 607.409 603.931 607.316 605.003C607.19 606.438 607.06 607.879 607.065 609.317C607.067 610.073 606.874 610.909 607.464 611.64C607.564 610.734 607.737 609.866 607.737 608.998C607.737 607.705 607.834 606.423 607.949 605.139C607.995 604.62 608.114 604.087 608.042 603.582C607.962 603.015 608.021 602.475 608.049 601.918C608.072 601.47 608.199 600.973 607.848 600.554ZM648.444 675.526C648.634 675.622 648.693 675.651 648.752 675.681C648.522 675.978 648.561 676.486 648.019 676.516C648.1 676.758 648.14 676.957 648.229 677.13C648.344 677.352 648.223 677.514 648.126 677.677C647.992 677.903 647.797 677.665 647.636 677.715C647.652 678.119 647.667 678.52 647.683 678.919C647.457 678.932 647.537 678.503 647.123 678.703C647.379 679.053 646.818 679.272 646.957 679.698C647.109 679.749 647.257 679.817 647.412 679.849C647.599 679.887 647.54 679.569 647.722 679.587C647.837 679.674 647.818 679.85 647.977 679.871C647.869 679.656 648.271 679.348 647.839 679.178C648.036 678.794 648.177 678.366 648.444 678.041C648.713 677.715 648.771 677.322 648.956 676.974C649.159 676.593 649.441 676.221 649.513 675.813C649.589 675.387 649.815 675.043 649.933 674.648C650.041 674.285 650.185 673.928 650.35 673.587C650.533 673.209 650.63 672.793 650.737 672.406C650.838 672.041 651.053 671.695 651.168 671.096C650.104 672.152 649.959 673.535 649.021 674.33C649.007 674.604 649.216 674.787 649.157 674.989C648.931 675.159 648.735 675.307 648.444 675.526ZM688.645 556.091C688.441 556.553 688.977 556.654 689.064 556.99C689.461 558.517 690.362 559.857 690.725 561.399C690.763 561.561 690.779 561.778 690.889 561.862C691.29 562.173 691.365 562.634 691.47 563.062C691.582 563.518 691.928 563.835 692.077 564.247C692.472 565.343 692.873 566.441 693.17 567.564C693.474 568.714 694.177 569.685 694.489 570.827C694.743 571.757 695.084 572.663 695.392 573.577C695.442 573.725 695.435 573.914 695.847 574.065C695.284 573.273 695.484 572.464 695.207 571.736C694.959 571.083 694.748 570.416 694.545 569.747C694.338 569.063 693.881 568.504 693.665 567.812C693.368 566.855 693.171 565.857 692.572 564.994C692.28 564.575 692.252 563.982 692.038 563.498C691.82 563.003 691.802 562.453 691.383 561.994C691.055 561.636 691.016 561.013 690.849 560.507C690.733 560.16 690.712 559.721 690.482 559.486C690.106 559.103 690.125 558.574 689.851 558.198C689.535 557.767 689.348 557.301 689.21 556.808C689.118 556.476 688.829 556.336 688.645 556.091ZM693.346 578.699C693.449 577.582 693.015 576.591 692.682 575.576C692.215 574.152 691.69 572.746 691.282 571.306C690.723 569.336 689.788 567.513 689.158 565.573C689.138 565.51 689.127 565.441 689.094 565.385C688.916 565.076 688.681 564.802 688.573 564.451C688.437 564.005 688.228 563.574 688.152 563.12C688.076 562.671 687.663 562.451 687.557 562.034C687.443 561.583 687.306 561.131 687.115 560.709C686.92 560.276 687.013 559.698 686.493 559.419C686.452 559.397 686.416 559.274 686.439 559.239C686.729 558.803 686.314 558.62 686.136 558.347C685.913 558.002 685.608 557.698 685.555 557.258C685.551 557.221 685.458 557.193 685.406 557.161C685.316 557.195 685.208 557.203 685.164 557.396C685.114 557.628 685.488 557.588 685.561 557.839C685.825 558.742 686.227 559.597 686.579 560.467C687.068 561.676 687.773 562.805 688.04 564.102C688.054 564.166 688.061 564.258 688.105 564.286C688.534 564.571 688.591 565.055 688.689 565.481C688.795 565.945 689.151 566.248 689.307 566.664C689.936 568.355 690.413 570.093 691.166 571.751C691.863 573.289 692.268 574.959 692.802 576.57C692.854 576.728 692.982 576.906 692.946 577.041C692.778 577.678 693.206 578.148 693.346 578.699ZM592.563 575.849C592.433 575.731 592.227 575.717 592.238 575.48C592.438 575.208 592.475 574.81 592.786 574.591C592.878 574.525 592.957 574.459 592.908 574.37C592.728 574.046 593.053 573.798 593.032 573.55C593.002 573.201 593.207 572.996 593.319 572.739C593.417 572.513 593.523 572.296 593.744 572.11C593.899 571.98 593.833 571.589 593.865 571.315C593.894 571.066 594.203 571.034 594.257 570.816C594.274 570.637 593.972 570.422 594.285 570.307C594.582 570.198 594.396 569.971 594.438 569.816C594.504 569.577 594.883 569.571 594.808 569.312C594.658 568.796 595.022 568.405 595.05 567.916C595.26 568.012 595.431 568.091 595.603 568.169C595.745 567.841 595.462 567.685 595.323 567.508C595.509 567.16 595.831 567.146 596.201 567.109C595.797 566.939 595.83 566.594 595.747 566.312C595.907 565.975 596.088 565.655 596.32 565.111C595.072 566.002 595.137 567.314 594.583 568.305C594.446 568.228 594.336 568.144 594.124 568.262C594.292 568.916 593.735 569.376 593.502 569.95C593.642 570.032 593.726 570.081 593.811 570.131C593.616 570.667 593.25 571.131 593.161 571.73C593.122 571.995 593.003 572.366 592.735 572.475C592.221 572.685 592.115 573.133 592.037 573.558C591.999 573.769 591.89 573.798 591.782 573.891C591.704 573.958 591.721 574.008 591.818 574.026C592.005 574.078 592.175 573.828 592.359 573.985C592.383 574.058 592.435 574.13 592.42 574.181C592.307 574.562 591.925 574.794 591.809 575.143C591.686 575.509 591.881 575.948 591.664 576.327C591.648 576.355 591.634 576.386 591.619 576.416C591.368 576.485 591.101 575.93 590.789 576.481C591.146 576.673 591.467 576.846 591.763 577.005C592.074 576.595 592.114 576.089 592.563 575.849ZM690.684 580.735C690.758 580.563 690.882 580.418 690.85 580.327C690.668 579.807 690.787 579.253 690.585 578.722C690.135 577.541 689.773 576.326 689.375 575.125C689.071 574.208 688.783 573.285 688.459 572.376C688.143 571.49 687.908 570.584 687.416 569.749C687.013 569.065 686.879 568.24 686.462 567.523C686.044 566.804 685.962 565.931 685.487 565.194C685.136 564.653 684.985 563.959 684.846 563.312C684.698 562.624 684.17 562.142 683.994 561.469C683.708 560.375 683 559.51 682.311 558.584C682.18 559.151 682.685 559.352 682.811 559.74C682.979 560.257 683.193 560.746 683.47 561.231C683.864 561.923 684.03 562.733 684.427 563.456C684.86 564.243 684.961 565.181 685.472 565.97C685.814 566.498 685.88 567.173 686.263 567.728C686.553 568.149 686.674 568.713 686.775 569.231C686.879 569.766 687.301 570.107 687.462 570.602C688.392 573.452 689.333 576.297 690.291 579.137C690.456 579.626 690.24 580.181 690.684 580.735ZM652.662 676.83C652.771 676.294 652.817 675.728 653.138 675.291C653.895 674.265 653.832 672.88 654.67 671.9C654.538 671.217 654.993 670.686 655.177 670.093C655.439 669.251 655.631 668.385 655.927 667.56C656.195 666.813 656.365 666.05 656.576 665.292C656.787 664.535 656.992 663.771 657.254 663.034C657.581 662.111 657.653 661.135 657.967 660.21C658.184 659.573 658.469 658.924 658.39 658.211C658.381 658.127 658.487 658.038 658.515 657.943C658.744 657.16 659.021 656.385 659.18 655.587C659.478 654.093 659.789 652.603 660.174 651.127C660.223 650.941 660.437 650.651 660.11 650.365C660.011 650.563 659.859 650.742 659.833 650.937C659.679 652.116 659.298 653.24 659.044 654.393C658.851 655.27 658.66 656.149 658.476 657.028C658.22 658.253 657.749 659.43 657.475 660.657C657.297 661.455 656.993 662.232 656.845 663.018C656.577 664.437 656.056 665.778 655.742 667.181C655.497 668.281 655.065 669.347 654.724 670.428C654.389 671.492 654.039 672.584 653.504 673.584C653.381 673.816 653.306 674.048 653.298 674.311C653.289 674.591 652.784 674.633 652.951 675.009C652.576 675.554 652.541 676.241 652.205 676.802C652.157 676.882 652.147 676.922 652.238 676.955C652.392 676.983 652.529 676.894 652.662 676.83ZM698.231 572.46C698.248 572.143 698.611 571.783 698.119 571.543C698.374 571.274 697.986 571.277 697.938 571.131C697.874 570.932 698.076 570.791 697.986 570.57C697.856 570.254 698.158 569.818 697.656 569.578C697.456 569.482 697.888 569.132 697.609 568.982C697.328 568.832 697.367 568.694 697.443 568.434C697.497 568.249 697.281 568.007 697.471 567.793C696.878 567.395 696.996 566.673 696.717 566.13C696.589 565.884 696.589 565.566 696.291 565.423C696.493 565.04 696.317 564.565 696.088 564.456C695.628 564.238 695.957 563.809 695.68 563.522C695.428 563.261 695.328 562.801 695.088 562.455C694.924 562.219 694.886 561.895 694.792 561.611C694.687 561.295 694.533 560.985 694.493 560.661C694.462 560.398 693.992 560.309 694.247 559.967C694.041 559.726 693.826 559.5 693.761 559.162C693.706 558.87 693.59 558.588 693.484 558.308C693.339 557.922 693.186 557.555 692.95 557.193C692.682 556.782 692.289 556.388 692.247 555.841C692.236 555.695 692.09 555.647 692.018 555.553C691.793 555.257 691.522 554.946 691.443 554.601C691.348 554.191 691.09 553.835 690.85 553.647C690.47 553.35 690.525 552.9 690.23 552.584C689.858 552.184 689.514 551.705 689.276 551.224C688.772 550.207 687.773 549.524 687.449 548.395C687.395 548.209 687.032 548.249 686.914 548.011C686.451 547.075 685.76 546.301 685.092 545.506C685.234 545.877 685.124 546.382 685.671 546.529C685.87 546.582 685.867 546.772 685.924 546.919C686.006 547.134 686.022 547.42 686.174 547.554C686.957 548.247 687.394 549.188 688.024 549.984C688.278 550.305 688.313 550.711 688.57 550.973C689.162 551.578 689.613 552.268 690.085 552.965C690.483 553.552 690.866 554.176 691.208 554.778C691.563 555.403 692.033 556.028 692.144 556.789C692.158 556.886 692.177 557.031 692.24 557.065C692.653 557.283 692.671 557.715 692.761 558.074C692.859 558.471 693.212 558.682 693.329 559.062C693.477 559.548 693.686 560.006 693.945 560.463C694.354 561.182 694.484 562.051 694.953 562.771C695.111 563.014 695.152 563.334 695.246 563.618C695.33 563.871 695.461 564.119 695.485 564.377C695.512 564.672 695.882 564.813 695.816 565.076C695.72 565.456 696.008 565.574 696.172 565.786C696.247 565.881 696.174 565.973 696.129 566.058C696.034 566.237 696.149 566.48 696.218 566.508C696.524 566.632 696.546 566.903 696.622 567.145C696.715 567.441 696.906 567.729 696.742 568.06C697.16 568.229 697.057 568.678 697.233 568.977C697.428 569.311 697.255 569.765 697.589 570.053C697.43 570.956 698.033 571.651 698.231 572.46ZM588.158 615.149C588.22 614.973 588.248 614.936 588.239 614.914C587.663 613.48 587.413 611.955 587.016 610.428C587.032 610.347 587.153 610.358 587.283 610.288C587.342 609.977 587 609.656 587.209 609.293C587.257 609.209 587.118 609.024 586.981 608.9C586.697 608.643 586.592 608.306 586.871 607.942C587.088 607.885 586.969 608.234 587.181 608.2C587.43 607.793 586.921 607.714 586.832 607.482C586.761 607.204 587.094 607.298 587.111 607.121C587.018 606.965 586.892 607.089 586.782 607.077C586.136 605.843 586.334 605.982 586.321 604.682C586.08 604.313 585.726 604.566 585.355 604.516C585.922 604.093 584.996 603.84 585.363 603.392C585.626 603.415 585.845 603.684 586.201 603.707C586.077 603.426 586.145 603.1 585.807 602.95C585.381 602.761 585.278 602.444 585.397 602.002C585.433 601.87 585.332 601.702 585.298 601.564C585.124 601.56 585.001 601.556 584.882 601.553C584.91 601.489 584.92 601.41 584.958 601.393C585.137 601.312 585.379 601.297 585.492 601.166C585.608 601.031 585.873 600.754 585.514 600.606C585.257 600.501 585.662 600.145 585.275 600.128C585.233 600.126 585.422 599.999 585.51 599.921C585.601 599.685 585.085 599.702 585.286 599.418C585.373 599.296 585.387 599.155 585.298 599.052C584.747 598.416 584.962 597.793 585.306 597.165C585.317 597.145 585.28 597.103 585.279 597.072C585.278 597.011 585.286 596.949 585.293 596.847C585.475 597.025 585.64 597.185 585.789 597.33C585.856 597.762 585.354 597.809 585.291 598.174C585.459 598.382 585.621 598.63 585.908 598.733C586.306 598.53 585.904 598.252 585.964 597.993C586.018 597.755 586.127 597.453 585.952 597.156C585.788 596.875 585.73 596.532 585.604 596.149C586.071 596.06 586.278 595.717 586.369 595.283C586.243 594.91 585.887 595.056 585.638 594.959C585.705 594.624 586.292 594.674 586.809 595.071C587.376 594.51 586.549 594.27 586.523 593.842C586.553 593.542 586.958 593.71 587.019 593.448C586.938 593.009 586.533 593.156 586.328 593.063C586.327 592.772 586.123 592.528 586.221 592.278C586.091 592.073 585.703 592.395 585.7 591.984C585.817 591.715 585.996 591.808 586.179 591.911C586.488 591.63 586.264 591.146 586.593 590.882C586.399 590.715 586.199 590.645 585.89 590.713C585.996 590.146 584.965 589.914 585.519 589.207C585.709 589.24 585.7 589.712 586.071 589.397C586.146 589.05 585.669 588.984 585.611 588.641C585.554 588.31 585.622 588.018 585.627 587.709C585.797 587.705 585.986 587.985 586.126 587.669C586.149 587.521 586.084 587.432 585.952 587.365C585.75 587.263 585.662 587.026 585.75 586.876C586.028 586.408 585.897 585.892 585.995 585.406C586.078 584.998 585.91 584.503 586.417 584.245C586.448 584.229 586.459 584.118 586.439 584.069C586.307 583.748 586.511 583.445 586.483 583.147C586.453 582.823 586.712 582.61 586.7 582.328C586.685 581.967 587.097 581.677 587.008 581.44C586.864 581.058 587.501 581.047 587.245 580.717C587.55 580.544 587.642 580.221 587.8 579.931L587.556 579.194C587.727 578.86 587.988 578.73 588.356 578.793C588.527 578.525 588.247 578.311 588.267 578.039C588.349 577.974 588.445 577.897 588.571 577.798L588.369 577.188C588.492 577.083 588.585 577.004 588.691 576.913C588.69 576.586 588.09 576.548 588.316 576.094C588.392 576.019 588.442 576.184 588.586 576.126C588.474 575.87 588.739 575.526 588.383 575.25C588.64 575.02 589.158 575.125 589.172 574.534L588.892 573.689C589.4 573.163 589.64 572.441 590.218 571.986C590.11 571.844 589.983 571.962 589.828 571.933C589.749 571.686 590.135 571.512 589.987 571.266C589.813 570.978 590.081 570.904 590.191 570.733C590.33 570.519 590.431 570.283 590.666 570.144L590.544 569.776C590.568 569.656 590.638 569.605 590.739 569.575C590.831 569.548 590.919 569.505 590.998 569.474C591.086 569.21 590.865 569.028 590.894 568.68C590.954 568.468 591.416 568.279 591.214 567.813C591.177 567.728 591.485 567.603 591.57 567.406C591.819 566.831 592.214 566.33 592.414 565.724C592.514 565.425 592.7 565.166 592.942 564.931C593.169 564.712 593.111 564.333 593.225 564.031C593.335 563.741 593.764 563.654 593.661 563.25C593.625 563.107 593.876 563.116 593.919 563.008C594.015 562.763 594.269 562.653 594.309 562.316C594.369 561.809 594.93 561.51 595.099 561.001C595.243 560.569 595.498 560.181 595.848 559.897C596.146 559.655 595.943 559.126 596.407 559.014C596.605 558.415 597.111 558.001 597.357 557.432C597.461 557.192 597.597 556.981 597.818 556.835C597.962 556.74 597.852 556.286 598.24 556.537C598.347 556.236 598.326 555.878 598.691 555.698C598.766 555.66 598.629 555.455 598.813 555.303C599.195 554.988 599.372 554.477 599.773 554.157C599.891 554.063 600.058 553.909 600.087 553.832C600.48 552.815 601.416 552.226 601.99 551.358C602.044 551.276 602.062 551.161 602.129 551.095C602.631 550.594 603.268 550.223 603.65 549.612C604.022 549.018 604.541 548.564 605.062 548.138C605.363 547.893 605.461 547.503 605.802 547.324C606.183 547.124 606.373 546.752 606.552 546.378C606.733 546.432 606.848 546.466 606.962 546.5C606.944 545.888 607.397 545.55 607.786 545.219C607.925 545.101 608.069 544.961 608.184 544.835C608.983 543.97 609.848 543.186 610.807 542.503C610.905 542.433 610.963 542.308 611.049 542.218C611.471 541.774 611.942 541.426 612.564 541.283C613.043 541.174 614.28 540.3 614.732 539.846C615.625 538.95 616.501 538.036 617.42 537.168C618.068 536.556 618.77 536.001 619.458 535.433C620.195 534.824 620.947 534.232 621.59 533.496C622.085 533.754 622.352 533.288 622.721 533.092C623.145 532.866 622.855 532.277 623.272 532.069C623.51 531.8 623.775 532.152 624.012 532.032C624.209 531.836 623.955 531.665 623.998 531.466C624.101 531.292 624.244 531.305 624.428 531.431C624.473 531.471 624.511 531.45 624.534 531.352C624.614 531.018 624.887 530.807 625.127 530.63C625.309 530.495 625.494 530.407 625.601 530.184C625.756 529.856 626.023 529.832 626.327 529.99C626.524 529.579 626.679 529.177 627.225 529.033C627.458 528.971 627.489 528.441 627.9 528.423C627.965 528.148 628.2 528.058 628.423 528.05C628.839 528.034 628.476 527.619 628.778 527.479C629.598 527.098 630.299 526.506 631.094 526.062C631.514 525.829 632.056 525.735 632.357 525.272C632.456 525.12 632.641 525.298 632.786 525.31C632.864 525.156 632.938 525.007 633.025 524.834C633.319 524.782 633.589 524.506 633.934 524.659C634.097 524.732 634.074 524.597 634.121 524.539C634.628 523.915 635.388 523.651 636.009 523.193C636.468 522.855 637.082 522.813 637.466 522.481C638.101 521.932 639.037 522.059 639.578 521.396C640.212 521.288 640.749 520.847 641.463 520.956C641.786 521.005 642.148 520.722 642.504 520.644C643.79 520.36 645.094 520.15 646.404 520.412C647.012 520.534 647.626 520.772 648.229 520.735C648.89 520.694 649.509 520.908 650.171 520.872C650.706 520.842 651.259 521.137 651.802 521.294C652.698 521.553 653.586 521.846 654.549 521.741C654.672 521.727 654.859 521.763 655.002 521.803C655.575 521.96 656.182 521.941 656.735 522.076C657.31 522.214 657.93 522.244 658.466 522.513C659.138 522.85 659.951 522.826 660.531 523.437C660.833 523.754 661.358 523.847 661.726 524.118C662.065 524.368 662.365 524.643 662.787 524.772C663.013 524.841 663.189 525.067 663.391 525.215C664.012 525.672 664.776 525.846 665.427 526.242C665.759 526.445 666.12 526.587 666.448 526.811C666.736 527.007 667.147 527.072 667.464 527.268C669.057 528.255 670.757 529.091 672.061 530.491C672.255 530.7 672.629 530.588 672.739 530.735C672.893 530.941 673.101 530.995 673.273 531.131C674.154 531.832 675.05 532.517 675.894 533.26C676.08 533.424 676.387 533.599 676.365 533.949C676.349 534.197 676.606 534.272 676.729 534.358C677.304 534.76 677.586 535.341 677.874 535.94C678.007 536.215 678.22 536.452 678.396 536.706L678.651 537.576C678.61 538.186 679.126 538.509 679.474 538.773C679.979 539.156 680.4 539.615 680.87 540.022C681.384 540.467 681.885 540.938 682.361 541.417C682.944 542.004 683.514 542.619 684.053 543.246C685.016 544.366 685.957 545.512 686.77 546.755C687.208 547.425 687.709 548.056 688.199 548.691C688.766 549.427 689.4 550.115 689.795 550.971C690.279 551.102 690.093 551.652 690.394 551.92C690.642 552.14 690.813 552.451 691.006 552.73C691.487 553.426 691.844 554.197 692.304 554.905C692.393 555.042 692.298 555.068 692.281 555.138C692.237 555.316 692.301 555.493 692.404 555.588C692.585 555.754 692.989 555.745 692.777 556.163C692.991 556.36 693.081 556.643 693.24 556.863C693.872 557.741 693.919 558.933 694.781 559.677C694.803 559.696 694.807 559.738 694.814 559.771C695.081 561.032 695.909 562.074 696.218 563.324C696.266 563.518 696.097 563.751 696.228 563.827C696.475 563.97 696.484 564.199 696.553 564.406C696.619 564.604 696.714 564.736 696.907 564.84C697.109 564.948 696.739 565.198 696.961 565.315C697.176 565.429 697.173 565.637 697.233 565.813C697.524 566.664 697.773 567.53 698.101 568.366C698.217 568.662 698.026 569.018 698.32 569.254C698.124 569.608 698.41 569.883 698.484 570.19C698.57 570.544 698.823 570.896 698.794 571.232C698.755 571.682 698.853 572.073 699.026 572.446C699.212 572.847 698.98 573.286 699.205 573.67C699.292 573.817 699.206 573.983 699.21 574.13C699.23 574.783 699.27 575.443 699.388 576.085C699.594 577.197 699.55 578.315 699.524 579.43C699.508 580.166 699.455 580.913 699.308 581.633C699.022 583.043 698.73 584.452 698.245 585.819C697.961 586.619 697.683 587.427 697.447 588.249C697.199 589.115 696.742 589.92 696.378 590.752C696.079 591.438 695.617 592.049 695.489 592.815C695.447 593.061 695.284 593.285 695.009 593.417C695.106 593.477 695.182 593.524 695.285 593.588C695.041 593.873 695.041 594.295 694.66 594.531C694.366 594.713 694.535 595.138 694.356 595.42C693.868 596.189 693.734 597.158 693.014 597.798C692.955 598.246 692.82 598.654 692.428 598.931C692.582 599.421 691.949 599.354 691.945 599.734C691.834 599.855 692.029 599.774 692.032 599.938C691.737 600.172 691.656 600.632 691.391 600.957C691.118 601.292 691.016 601.718 690.61 602.008C690.275 602.248 690.166 602.805 689.934 603.266L689.325 603.468C689.365 603.656 689.398 603.812 689.43 603.961C689.102 604.346 688.592 604.519 688.392 605.044C688.225 605.482 687.717 605.683 687.514 606.148C687.371 606.473 687.063 606.741 686.786 606.987C686.651 607.107 686.421 607.121 686.218 607.188C685.84 608.091 685.253 608.815 684.384 609.288C683.866 610.16 682.875 610.599 682.367 611.46C682.198 611.746 681.918 611.783 681.723 612.001C680.814 613.016 679.848 613.976 678.957 615.011C678.255 615.828 677.458 616.565 676.676 617.309C676.19 617.771 675.798 618.286 675.448 618.858C674.72 620.05 674.02 621.257 673.309 622.459C672.581 623.689 671.882 624.939 671.134 626.154C670.003 627.991 669.146 629.959 668.149 631.859C667.477 633.14 666.965 634.498 666.348 635.807C665.784 637.006 665.319 638.258 664.804 639.484C664.135 641.079 663.551 642.711 662.985 644.346C662.346 646.19 661.826 648.074 661.333 649.962C660.868 651.736 660.538 653.545 660.108 655.325C659.726 656.905 659.308 658.483 658.885 660.056C658.578 661.201 658.331 662.363 658.022 663.508C657.626 664.97 657.215 666.427 656.709 667.857C656.498 668.454 656.369 669.076 656.144 669.675C656.036 669.964 655.977 670.304 655.801 670.557C655.618 670.821 655.693 671.115 655.577 671.387C655.16 672.365 654.85 673.383 654.416 674.361C653.931 675.452 653.544 676.59 653.033 677.674C652.897 677.963 652.647 678.212 652.526 678.47C652.385 678.77 652.374 679.116 652.082 679.37C651.864 679.56 652.078 679.984 651.674 680.159C651.544 680.216 651.547 680.609 651.456 680.847C651.207 681.5 650.687 681.976 650.398 682.6C650.104 683.234 649.833 683.891 649.447 684.468C648.835 685.382 648.342 686.369 647.72 687.27C647.128 688.128 646.712 689.13 645.892 689.803C645.67 689.985 645.983 690.3 645.639 690.336C644.617 691.694 643.604 693.06 642.569 694.407C642.135 694.973 641.592 695.45 641.109 695.971C640.483 696.647 639.945 697.418 639.2 697.989C638.296 698.683 637.687 699.713 636.65 700.261C636.489 700.83 635.837 700.938 635.569 701.414C635.464 701.601 635.288 701.504 635.156 701.428C634.576 702.153 633.946 702.809 633.19 703.365C632.249 704.057 631.405 704.879 630.47 705.579C629.031 706.655 627.595 707.732 626.037 708.645C625.41 709.013 624.797 709.382 624.141 709.704C623.533 710.001 622.987 710.445 622.359 710.738C622.283 710.773 622.247 710.931 622.178 710.942C621.384 711.065 620.833 711.752 620.044 711.863C619.441 711.948 619.065 712.473 618.482 712.608C617.932 712.735 617.331 712.846 616.882 713.153C615.844 713.86 614.641 714.1 613.488 714.415C612.748 714.618 611.994 714.847 611.236 714.977C610.037 715.182 608.817 715.399 607.604 715.336C605.927 715.251 604.281 714.981 602.665 714.407C601.418 713.965 600.437 713.22 599.44 712.433C598.753 711.892 598.197 711.212 597.674 710.545C597.285 710.048 596.979 709.433 596.622 708.886C596.107 708.097 595.747 707.227 595.222 706.443C594.929 706.003 594.737 705.464 594.536 704.973C593.662 702.842 592.786 700.707 592.131 698.491C592.01 698.084 592.179 697.666 591.961 697.264C591.775 696.918 591.589 696.51 591.598 696.134C591.611 695.59 591.335 695.127 591.311 694.63C591.286 694.099 591.086 693.629 591.012 693.128C590.856 692.071 590.912 690.986 590.577 689.953C590.77 688.135 590.414 686.324 590.58 684.492C590.702 683.147 590.824 681.794 590.895 680.444C590.951 679.392 591.183 678.369 591.247 677.322C591.272 676.914 591.548 676.526 591.614 676.142C591.677 675.776 591.548 675.359 591.607 674.941C591.658 674.58 591.757 674.299 592.015 674.13C591.598 673.568 592.192 673.089 592.078 672.544C591.97 672.032 592.181 671.451 592.268 670.903C592.355 670.353 592.488 669.81 592.556 669.258C592.628 668.675 592.716 668.097 592.813 667.517C592.904 666.974 592.883 666.413 592.91 665.86C592.937 665.297 593.17 664.778 593.257 664.222C593.344 663.668 593.272 663.112 593.405 662.562C593.533 662.033 593.559 661.478 593.628 660.945C593.36 660.848 593.44 661.096 593.325 661.126C592.998 660.944 593.218 660.715 593.332 660.558C593.506 660.318 593.234 660.128 593.324 659.901C593.402 659.702 593.489 659.463 593.444 659.27C593.391 659.037 593.439 658.836 593.445 658.617C593.451 658.413 593.222 658.169 593.615 658.088C593.721 657.842 593.516 657.654 593.488 657.43C593.687 657.266 593.812 657.059 593.768 656.711C593.916 656.892 593.994 656.987 594.073 657.084C594.411 656.758 594.315 656.325 594.058 656.152C593.639 655.87 593.837 655.539 593.846 655.284C593.689 655.029 593.3 655.352 593.296 654.914C593.724 654.657 594.19 654.385 593.945 653.733C594.336 653.189 593.967 652.571 594.116 651.982C594.256 651.43 594.045 650.82 594.22 650.233C594.311 649.929 593.977 649.662 594.055 649.296C594.142 648.88 593.965 648.455 594.044 647.998C594.095 647.701 593.938 647.319 593.968 646.946C593.99 646.674 593.833 646.387 593.754 646.099C593.853 646.04 593.933 645.993 594.037 645.932C593.646 645.555 593.791 645.051 593.759 644.6C593.724 644.114 593.756 643.605 593.87 643.133C593.952 642.793 593.878 642.501 593.668 642.35C593.453 642.195 593.715 641.867 593.396 641.828C593.685 641.479 593.095 641.074 593.473 640.72C593.647 640.556 593.452 640.269 593.632 640.089C593.368 640.068 593.372 639.716 593.123 639.676C593.166 638.942 593.166 638.942 593.417 638.68C593.072 638.381 592.831 638.075 593.14 637.553C593.315 637.258 592.833 636.864 593.038 636.47C592.919 636.415 592.721 636.323 592.785 636.22C592.999 635.877 592.629 635.572 592.745 635.289C592.884 634.948 592.656 634.719 592.6 634.442C592.539 634.138 592.255 633.933 592.29 633.553C592.32 633.225 591.994 632.909 592.176 632.525C592.268 632.33 591.832 632.389 591.941 632.105C592.015 631.908 591.569 631.838 591.759 631.498C591.902 631.244 591.636 630.943 591.561 630.662C591.493 630.406 591.398 630.157 591.314 629.904C591.118 630.003 591.118 630.003 591.07 630.089C590.96 630.073 590.931 629.989 590.888 629.902C590.752 629.628 591.001 629.351 590.84 629.054C590.727 628.847 590.586 628.605 590.687 628.31C590.764 628.084 590.401 628.049 590.391 627.798C590.384 627.607 590.546 627.459 590.44 627.24C589.934 626.201 590.059 624.991 589.546 623.969C589.687 623.75 589.772 623.987 589.88 623.957C589.891 623.935 589.926 623.897 589.918 623.876C589.503 622.843 589.549 621.69 589.091 620.67C588.975 620.413 589.181 620.078 588.84 619.867C588.613 619.726 588.986 619.336 588.64 619.184C588.856 618.834 588.569 618.556 588.499 618.25C588.432 617.959 588.316 617.679 588.221 617.395C588.117 617.079 588.073 616.721 587.891 616.458C587.693 616.17 588.203 615.693 587.614 615.56C587.87 615.219 587.584 614.931 587.509 614.629C587.421 614.275 587.285 613.932 587.17 613.585C587.065 613.268 586.929 612.959 586.863 612.635C586.754 612.103 586.799 611.539 586.535 611.041C586.282 610.563 586.587 610.029 586.254 609.593L586.541 609.498C587.082 611.344 587.327 613.273 588.158 615.149Z" fill="#6BD96C"/>
<path opacity="0.32" d="M627.909 588.27L627.476 588.737C629.062 585.321 631.047 582.104 633.389 579.154C636.748 575.007 640.697 571.375 645.108 568.376C649.43 565.444 653.952 562.822 658.643 560.53C665.51 557.217 672.196 553.539 678.674 549.513C683.992 546.155 688.6 541.782 692.236 536.645C693.672 534.601 695.077 532.531 696.388 530.328C696.65 530.814 696.132 530.959 696.123 531.499C696.497 530.851 697.06 530.319 697.01 529.854C696.962 529.595 696.984 529.328 697.074 529.08C697.164 528.832 697.319 528.612 697.522 528.444C699.029 527.5 699.294 525.792 700.118 524.445C700.745 523.359 700.865 522.035 701.571 520.947C702.475 519.569 703.038 518.002 704.299 516.814C704.853 516.145 705.22 515.342 705.364 514.485C705.553 513.638 706.015 512.876 706.678 512.316C707.766 511.574 708.043 510.355 708.814 509.438C710.681 507.182 712.68 505.039 714.801 503.02C717.881 500.195 721.251 497.703 724.853 495.586C730.799 492.01 737.219 491.216 743.957 492.077C750.695 492.938 756.135 495.993 760.093 501.588C762.172 504.548 764.252 507.509 766.058 510.646C767.234 512.643 768.141 514.788 768.756 517.024C769.294 519.024 770.421 520.703 771.495 522.405C774.406 526.819 776.582 531.678 777.937 536.793C779.158 541.995 779.374 547.385 778.574 552.673C777.598 559.741 775.111 566.349 772.161 572.815C767.926 582.128 763.663 591.433 761.183 601.417C759.443 608.464 758.284 615.567 758.676 622.848C758.937 626.033 759.639 629.164 760.764 632.152C762.598 637.501 764.749 642.73 766.327 648.158C767.561 652.033 768.376 656.031 768.758 660.082C769.255 667.222 768.851 674.308 766.67 681.179C764.321 688.528 760.8 695.217 754.822 700.355C749.125 705.234 742.704 708.154 735.041 707.537C730.851 707.198 727.019 705.647 723.405 703.584C716.776 699.804 710.537 695.376 703.923 691.612C699.416 689.064 695.009 686.333 690.195 684.465C684.258 682.189 678.151 681.903 671.914 682.904C667.718 683.597 663.57 684.449 659.395 685.2C654.393 686.104 649.359 686.702 644.261 686.282C635.292 685.534 628.734 681.001 624.083 673.472C621.408 669.075 619.411 664.297 618.161 659.299C617.61 657.174 617.233 655.017 616.819 652.871C616.441 650.911 616.26 648.918 616.279 646.921C616.296 645.319 615.971 643.73 615.953 642.107C615.886 636.242 616.209 630.377 616.92 624.553C617.378 621.072 618.051 617.621 618.761 614.184C619.331 611.437 620.073 608.712 620.91 606.026C621.604 603.802 622.249 601.542 623.028 599.345C623.447 598.162 624.293 597.155 624.752 595.956C625.606 593.566 626.634 591.242 627.828 589.002C627.917 588.904 627.973 588.779 627.986 588.647C628 588.514 627.971 588.381 627.903 588.267C628.977 587.011 629.577 585.488 630.337 584.05C629.375 585.363 628.56 586.779 627.909 588.27ZM755.611 692.844L755.759 692.883C756.328 692.005 756.959 691.154 757.453 690.232C759.057 687.265 760.785 684.299 761.217 680.795C761.331 679.871 761.956 678.963 761.994 677.942C762.036 676.525 762.714 675.243 762.758 673.796C762.861 671.52 763.034 669.283 763.275 667.024C763.356 665.554 763.336 664.08 763.214 662.612C763.137 661.453 762.995 660.3 762.787 659.157C762.529 657.022 762.093 654.913 761.482 652.852C760.85 650.774 760.129 648.715 759.378 646.669C758.626 644.623 757.815 642.652 757.123 640.625C756.326 638.231 755.377 635.891 754.282 633.619C753.717 632.514 753.663 631.276 753.151 630.132C752.66 629.164 752.287 628.141 752.039 627.083C751.671 625.158 751.448 623.207 751.372 621.247C751.244 614.746 752.013 608.257 753.657 601.962C754.141 600.007 754.487 597.995 755.569 596.229C755.939 595.697 756.196 595.096 756.325 594.462C756.502 593.253 756.865 592.078 757.404 590.981C758.505 588.657 759.297 586.21 760.342 583.862C762.043 580.055 763.773 576.265 765.687 572.573C766.856 570.32 767.693 567.93 768.917 565.701C769.73 564.293 770.003 562.582 770.492 560.996C772.817 553.515 773.622 545.936 771.59 538.268C771.336 537.296 771.871 536.437 771.478 535.517C769.648 531.346 767.884 527.127 766.296 522.846C764.624 518.345 761.536 514.646 759.186 510.541C758.713 509.707 758.678 509.726 758.799 508.643C758.809 508.532 758.666 508.403 758.58 508.283C756.952 505.981 755.526 503.53 753.69 501.372C752.548 500.027 751.499 498.55 749.933 497.646C744.525 494.414 738.854 494.153 733.019 496.313C729.79 497.622 726.751 499.362 723.985 501.486C718.153 505.653 713.266 511.008 709.643 517.197C705.989 523.42 702.78 529.892 698.907 535.995C695.168 541.98 690.276 547.158 684.516 551.227C677.508 556.144 669.96 560.087 662.397 563.991C657.136 566.551 652.115 569.582 647.396 573.045C640.968 578.014 635.829 584.461 632.416 591.838C630.266 596.322 628.425 600.947 626.908 605.681C622.708 618.566 620.582 632.033 620.612 645.576C620.639 651.821 621.32 657.915 623.424 663.817C624.838 667.795 626.511 671.634 629.104 675.008C630.526 677.039 632.477 678.64 634.746 679.636C637.646 680.794 640.733 681.415 643.857 681.47C650.212 681.596 656.384 680.222 662.572 679.037C668.76 677.852 674.757 676.837 680.996 677.783C684.572 678.306 688.054 679.339 691.336 680.848C699.718 684.777 707.394 689.917 715.096 695.01C718.653 697.36 722.004 700.026 725.875 701.887C728.413 703.216 731.191 704.026 734.048 704.27C739.187 704.488 744.246 702.899 748.347 699.778C748.453 699.679 748.575 699.599 748.708 699.543C750.299 699.114 751.169 697.849 752.12 696.645C752.368 696.337 752.607 695.883 752.928 695.796C754.077 695.501 754.044 694.159 755.003 693.614C755.422 693.373 755.649 692.375 756.118 691.805L755.611 692.844ZM691.091 544.059C693.93 541.223 696.42 538.057 698.508 534.628C701.044 530.532 703.372 526.324 705.658 522.084C706.892 519.798 708.217 517.557 709.448 515.263C709.762 514.72 710.494 514.379 710.381 513.512C709.254 514.963 708.253 516.509 707.389 518.131C704.599 523.124 701.953 528.231 699.006 533.094C696.695 536.974 694.046 540.644 691.091 544.059ZM760.251 692.229C757.643 695.865 754.538 699.116 751.027 701.886C754.863 699.499 758.036 696.178 760.248 692.235L760.251 692.229ZM759.148 602.118C757.64 607.051 756.876 612.18 756.883 617.335C757.35 612.224 758.175 607.164 759.144 602.124L759.148 602.118ZM777.445 547.38C777.588 542.79 777.298 538.223 775.444 533.945C776.621 538.331 777.292 542.838 777.445 547.38ZM633.384 587.149C635.689 582.888 638.958 579.364 642.118 575.76C638.43 578.891 635.453 582.774 633.384 587.149ZM763.467 686.712C763.108 686.769 762.992 686.756 762.977 686.795C762.352 688.34 761.564 689.814 760.625 691.191C760.547 691.326 760.508 691.474 760.64 691.582C760.772 691.689 760.995 691.6 761.077 691.444C761.895 689.947 762.637 688.405 763.485 686.722L763.467 686.712ZM752.126 615.235C751.768 617.177 751.708 619.162 751.949 621.121L752.126 615.235ZM700.288 525.548C699.03 527.041 698.723 527.923 699.338 528.66C698.554 527.195 700.291 526.835 700.288 525.548ZM701.253 521.9L701.37 521.968L703.521 518.242L703.404 518.174L701.253 521.9Z" fill="#CCEEE3"/>
<path opacity="0.1" d="M64.5 137C113.377 137 153 97.3772 153 48.5C153 -0.377213 113.377 -40 64.5 -40C15.6228 -40 -24 -0.377213 -24 48.5C-24 97.3772 15.6228 137 64.5 137Z" fill="#01B880"/>
<path opacity="0.7" d="M0.713566 52.6781C7.9933 46.8323 16.768 43.1714 26.0273 42.1169C35.2867 41.0624 44.6541 42.6572 53.0511 46.7177C61.448 50.7782 68.533 57.1392 73.4903 65.0684C78.4476 72.9975 81.0757 82.1724 81.0718 91.5365C81.0679 100.901 78.4323 110.073 73.4684 117.998C68.5045 125.923 61.4142 132.278 53.0139 136.332C44.6135 140.385 35.2448 141.972 25.9864 140.91C16.7279 139.848 7.95623 136.18 0.681351 130.328" stroke="#6BD96C" stroke-width="2.82072" stroke-miterlimit="10" stroke-dasharray="6.35 6.35"/>
</g>
</svg>
